<ttFont>
    <TTGlyph name=".notdef" xMin="140" yMin="-95" xMax="1895" yMax="1557">
      <contour>
        <pt x="1698" y="-8" on="1"/>
        <pt x="1698" y="1470" on="1"/>
        <pt x="1400" y="1470" on="1"/>
        <pt x="1400" y="1557" on="1"/>
        <pt x="1895" y="1557" on="1"/>
        <pt x="1895" y="-95" on="1"/>
        <pt x="1400" y="-95" on="1"/>
        <pt x="1400" y="-8" on="1"/>
      </contour>
      <contour>
        <pt x="140" y="1557" on="1"/>
        <pt x="635" y="1557" on="1"/>
        <pt x="635" y="1470" on="1"/>
        <pt x="337" y="1470" on="1"/>
        <pt x="337" y="-8" on="1"/>
        <pt x="635" y="-8" on="1"/>
        <pt x="635" y="-95" on="1"/>
        <pt x="140" y="-95" on="1"/>
      </contour>
      <contour>
        <pt x="1009" y="1033" on="1"/>
        <pt x="880" y="1033" on="0"/>
        <pt x="974" y="926" on="1"/>
        <pt x="1054" y="833" on="1"/>
        <pt x="1133" y="926" on="1"/>
        <pt x="1223" y="1033" on="0"/>
        <pt x="1113" y="1033" on="1"/>
        <pt x="1113" y="1131" on="1"/>
        <pt x="1480" y="1131" on="1"/>
        <pt x="1480" y="1033" on="1"/>
        <pt x="1386" y="1033" on="0"/>
        <pt x="1285" y="926" on="1"/>
        <pt x="1120" y="755" on="1"/>
        <pt x="1312" y="533" on="1"/>
        <pt x="1403" y="426" on="0"/>
        <pt x="1480" y="426" on="1"/>
        <pt x="1480" y="318" on="1"/>
        <pt x="1024" y="318" on="1"/>
        <pt x="1024" y="426" on="1"/>
        <pt x="1164" y="426" on="0"/>
        <pt x="1070" y="533" on="1"/>
        <pt x="977" y="635" on="1"/>
        <pt x="890" y="533" on="1"/>
        <pt x="830" y="463" on="0"/>
        <pt x="879" y="436" on="1"/>
        <pt x="896" y="426" on="0"/>
        <pt x="930" y="426" on="1"/>
        <pt x="930" y="318" on="1"/>
        <pt x="542" y="318" on="1"/>
        <pt x="542" y="426" on="1"/>
        <pt x="642" y="426" on="0"/>
        <pt x="738" y="533" on="1"/>
        <pt x="905" y="713" on="1"/>
        <pt x="711" y="926" on="1"/>
        <pt x="615" y="1033" on="0"/>
        <pt x="542" y="1033" on="1"/>
        <pt x="542" y="1131" on="1"/>
        <pt x="1009" y="1131" on="1"/>
      </contour>
    </TTGlyph>
    <TTGlyph name=".ttfautohint" xMin="0" yMin="0" xMax="0" yMax="0">
      <contour>
        <pt x="0" y="0" on="1"/>
      </contour>
    </TTGlyph>
    <TTGlyph name="A" xMin="-11" yMin="0" xMax="1574" yMax="1500">
      <contour>
        <pt x="-11" y="110" on="1"/>
        <pt x="72" y="110" on="0"/>
        <pt x="157" y="161" on="0"/>
        <pt x="180" y="219" on="1"/>
        <pt x="720" y="1500" on="1"/>
        <pt x="891" y="1500" on="1"/>
        <pt x="1385" y="219" on="1"/>
        <pt x="1412" y="155" on="0"/>
        <pt x="1478" y="110" on="0"/>
        <pt x="1574" y="110" on="1"/>
        <pt x="1574" y="0" on="1"/>
        <pt x="957" y="0" on="1"/>
        <pt x="957" y="110" on="1"/>
        <pt x="1089" y="110" on="0"/>
        <pt x="1138" y="146" on="0"/>
        <pt x="1135" y="188" on="0"/>
        <pt x="1123" y="219" on="1"/>
        <pt x="1033" y="470" on="1"/>
        <pt x="452" y="470" on="1"/>
        <pt x="349" y="219" on="1"/>
        <pt x="326" y="159" on="0"/>
        <pt x="400" y="110" on="0"/>
        <pt x="536" y="110" on="1"/>
        <pt x="536" y="0" on="1"/>
        <pt x="-11" y="0" on="1"/>
      </contour>
      <contour>
        <pt x="994" y="580" on="1"/>
        <pt x="762" y="1228" on="1"/>
        <pt x="497" y="580" on="1"/>
      </contour>
    </TTGlyph>
    <TTGlyph name="AE" xMin="-22" yMin="0" xMax="2066" yMax="1500">
      <contour>
        <pt x="-22" y="110" on="1"/>
        <pt x="116" y="110" on="0"/>
        <pt x="189" y="219" on="1"/>
        <pt x="860" y="1236" on="1"/>
        <pt x="937" y="1351" on="0"/>
        <pt x="826" y="1382" on="1"/>
        <pt x="798" y="1390" on="0"/>
        <pt x="752" y="1390" on="1"/>
        <pt x="638" y="1390" on="1"/>
        <pt x="638" y="1500" on="1"/>
        <pt x="1998" y="1500" on="1"/>
        <pt x="2037" y="1137" on="1"/>
        <pt x="1892" y="1136" on="1"/>
        <pt x="1865" y="1249" on="1"/>
        <pt x="1845" y="1330" on="0"/>
        <pt x="1824" y="1351" on="1"/>
        <pt x="1787" y="1388" on="0"/>
        <pt x="1699" y="1388" on="1"/>
        <pt x="1324" y="1388" on="1"/>
        <pt x="1324" y="806" on="1"/>
        <pt x="1511" y="806" on="1"/>
        <pt x="1565" y="806" on="0"/>
        <pt x="1629" y="810" on="0"/>
        <pt x="1670" y="843" on="0"/>
        <pt x="1670" y="945" on="1"/>
        <pt x="1820" y="945" on="1"/>
        <pt x="1820" y="558" on="1"/>
        <pt x="1670" y="558" on="1"/>
        <pt x="1670" y="655" on="0"/>
        <pt x="1629" y="690" on="0"/>
        <pt x="1565" y="696" on="0"/>
        <pt x="1511" y="696" on="1"/>
        <pt x="1324" y="696" on="1"/>
        <pt x="1324" y="110" on="1"/>
        <pt x="1738" y="110" on="1"/>
        <pt x="1861" y="110" on="0"/>
        <pt x="1888" y="182" on="1"/>
        <pt x="1897" y="206" on="0"/>
        <pt x="1904" y="238" on="1"/>
        <pt x="1931" y="361" on="1"/>
        <pt x="2066" y="361" on="1"/>
        <pt x="2027" y="0" on="1"/>
        <pt x="929" y="0" on="1"/>
        <pt x="929" y="110" on="1"/>
        <pt x="1026" y="110" on="0"/>
        <pt x="1082" y="146" on="0"/>
        <pt x="1098" y="187" on="0"/>
        <pt x="1098" y="217" on="1"/>
        <pt x="1098" y="470" on="1"/>
        <pt x="522" y="470" on="1"/>
        <pt x="358" y="219" on="1"/>
        <pt x="321" y="162" on="0"/>
        <pt x="382" y="110" on="0"/>
        <pt x="515" y="110" on="1"/>
        <pt x="515" y="0" on="1"/>
        <pt x="-22" y="0" on="1"/>
      </contour>
      <contour>
        <pt x="1098" y="580" on="1"/>
        <pt x="1098" y="1347" on="1"/>
        <pt x="594" y="580" on="1"/>
      </contour>
    </TTGlyph>
    <TTGlyph name="AEacute" xMin="41" yMin="0" xMax="2129" yMax="2010">
      <component glyphName=".ttfautohint" x="41" y="0" flags="0x0"/>
      <component glyphName="AE" x="63" y="0" flags="0x1004"/>
      <component glyphName="acute.cap" x="1413" y="0" flags="0x1004"/>
    </TTGlyph>
    <TTGlyph name="Aacute" xMin="-1" yMin="0" xMax="1584" yMax="2010">
      <component glyphName=".ttfautohint" x="0" y="0" flags="0x0"/>
      <component glyphName="A" x="10" y="0" flags="0x1004"/>
      <component glyphName="acute.cap" x="862" y="0" flags="0x1004"/>
    </TTGlyph>
    <TTGlyph name="Abreve" xMin="-1" yMin="0" xMax="1584" yMax="1981">
      <component glyphName=".ttfautohint" x="0" y="0" flags="0x0"/>
      <component glyphName="A" x="10" y="0" flags="0x1004"/>
      <component glyphName="breve.cap" x="813" y="0" flags="0x1004"/>
    </TTGlyph>
    <TTGlyph name="Acircumflex" xMin="-1" yMin="0" xMax="1584" yMax="2000">
      <component glyphName=".ttfautohint" x="0" y="0" flags="0x0"/>
      <component glyphName="A" x="10" y="0" flags="0x1004"/>
      <component glyphName="circumflex.cap" x="813" y="0" flags="0x1004"/>
    </TTGlyph>
    <TTGlyph name="Adieresis" xMin="-1" yMin="0" xMax="1584" yMax="1957">
      <component glyphName=".ttfautohint" x="0" y="0" flags="0x0"/>
      <component glyphName="A" x="10" y="0" flags="0x1004"/>
      <component glyphName="dieresis.cap" x="813" y="0" flags="0x1004"/>
    </TTGlyph>
    <TTGlyph name="Agrave" xMin="-1" yMin="0" xMax="1584" yMax="2010">
      <component glyphName=".ttfautohint" x="0" y="0" flags="0x0"/>
      <component glyphName="A" x="10" y="0" flags="0x1004"/>
      <component glyphName="grave.cap" x="813" y="0" flags="0x1004"/>
    </TTGlyph>
    <TTGlyph name="Amacron" xMin="-1" yMin="0" xMax="1584" yMax="1864">
      <component glyphName=".ttfautohint" x="0" y="0" flags="0x0"/>
      <component glyphName="A" x="10" y="0" flags="0x1004"/>
      <component glyphName="macron.cap" x="813" y="0" flags="0x1004"/>
    </TTGlyph>
    <TTGlyph name="Aogonek" xMin="-1" yMin="-510" xMax="1584" yMax="1500">
      <contour>
        <pt x="1270" y="-265" on="1"/>
        <pt x="1270" y="-356" on="0"/>
        <pt x="1378" y="-356" on="1"/>
        <pt x="1417" y="-356" on="0"/>
        <pt x="1479" y="-284" on="0"/>
        <pt x="1479" y="-219" on="1"/>
        <pt x="1569" y="-219" on="1"/>
        <pt x="1569" y="-226" on="0"/>
        <pt x="1569" y="-299" on="0"/>
        <pt x="1551" y="-351" on="1"/>
        <pt x="1496" y="-510" on="0"/>
        <pt x="1319" y="-510" on="1"/>
        <pt x="1219" y="-510" on="0"/>
        <pt x="1090" y="-397" on="0"/>
        <pt x="1090" y="-297" on="1"/>
        <pt x="1090" y="-148" on="0"/>
        <pt x="1298" y="0" on="1"/>
        <pt x="949" y="0" on="1"/>
        <pt x="949" y="110" on="1"/>
        <pt x="1081" y="110" on="0"/>
        <pt x="1130" y="146" on="0"/>
        <pt x="1127" y="188" on="0"/>
        <pt x="1115" y="219" on="1"/>
        <pt x="1025" y="470" on="1"/>
        <pt x="460" y="470" on="1"/>
        <pt x="359" y="219" on="1"/>
        <pt x="336" y="159" on="0"/>
        <pt x="410" y="110" on="0"/>
        <pt x="546" y="110" on="1"/>
        <pt x="546" y="0" on="1"/>
        <pt x="-1" y="0" on="1"/>
        <pt x="-1" y="110" on="1"/>
        <pt x="82" y="110" on="0"/>
        <pt x="167" y="161" on="0"/>
        <pt x="190" y="219" on="1"/>
        <pt x="730" y="1500" on="1"/>
        <pt x="901" y="1500" on="1"/>
        <pt x="1395" y="219" on="1"/>
        <pt x="1422" y="155" on="0"/>
        <pt x="1488" y="110" on="0"/>
        <pt x="1584" y="110" on="1"/>
        <pt x="1584" y="0" on="1"/>
        <pt x="1536" y="0" on="1"/>
        <pt x="1440" y="0" on="0"/>
        <pt x="1270" y="-166" on="0"/>
      </contour>
      <contour>
        <pt x="986" y="580" on="1"/>
        <pt x="762" y="1208" on="1"/>
        <pt x="763" y="1217" on="1"/>
        <pt x="505" y="580" on="1"/>
      </contour>
    </TTGlyph>
    <TTGlyph name="Aring" xMin="-11" yMin="0" xMax="1574" yMax="1950">
      <contour>
        <pt x="-11" y="110" on="1"/>
        <pt x="72" y="110" on="0"/>
        <pt x="157" y="161" on="0"/>
        <pt x="180" y="219" on="1"/>
        <pt x="686" y="1420" on="1"/>
        <pt x="574" y="1470" on="0"/>
        <pt x="538" y="1592" on="1"/>
        <pt x="526" y="1630" on="0"/>
        <pt x="526" y="1680" on="1"/>
        <pt x="526" y="1788" on="0"/>
        <pt x="688" y="1950" on="0"/>
        <pt x="803" y="1950" on="1"/>
        <pt x="918" y="1950" on="0"/>
        <pt x="1081" y="1787" on="0"/>
        <pt x="1081" y="1546" on="0"/>
        <pt x="986" y="1463" on="1"/>
        <pt x="957" y="1437" on="0"/>
        <pt x="921" y="1421" on="1"/>
        <pt x="1385" y="219" on="1"/>
        <pt x="1412" y="155" on="0"/>
        <pt x="1478" y="110" on="0"/>
        <pt x="1574" y="110" on="1"/>
        <pt x="1574" y="0" on="1"/>
        <pt x="957" y="0" on="1"/>
        <pt x="957" y="110" on="1"/>
        <pt x="1089" y="110" on="0"/>
        <pt x="1138" y="146" on="0"/>
        <pt x="1135" y="188" on="0"/>
        <pt x="1123" y="219" on="1"/>
        <pt x="1033" y="470" on="1"/>
        <pt x="452" y="470" on="1"/>
        <pt x="349" y="219" on="1"/>
        <pt x="326" y="159" on="0"/>
        <pt x="400" y="110" on="0"/>
        <pt x="536" y="110" on="1"/>
        <pt x="536" y="0" on="1"/>
        <pt x="-11" y="0" on="1"/>
      </contour>
      <contour>
        <pt x="803" y="1514" on="1"/>
        <pt x="885" y="1514" on="0"/>
        <pt x="916" y="1606" on="1"/>
        <pt x="926" y="1635" on="0"/>
        <pt x="926" y="1672" on="1"/>
        <pt x="926" y="1742" on="0"/>
        <pt x="856" y="1829" on="0"/>
        <pt x="803" y="1829" on="1"/>
        <pt x="721" y="1829" on="0"/>
        <pt x="690" y="1738" on="1"/>
        <pt x="680" y="1709" on="0"/>
        <pt x="680" y="1672" on="1"/>
        <pt x="680" y="1562" on="0"/>
        <pt x="756" y="1525" on="1"/>
        <pt x="778" y="1514" on="0"/>
      </contour>
      <contour>
        <pt x="994" y="580" on="1"/>
        <pt x="762" y="1228" on="1"/>
        <pt x="497" y="580" on="1"/>
      </contour>
    </TTGlyph>
    <TTGlyph name="Atilde" xMin="-1" yMin="0" xMax="1584" yMax="2002">
      <component glyphName=".ttfautohint" x="0" y="0" flags="0x0"/>
      <component glyphName="A" x="10" y="0" flags="0x1004"/>
      <component glyphName="tilde.cap" x="813" y="0" flags="0x1004"/>
    </TTGlyph>
    <TTGlyph name="B" xMin="72" yMin="0" xMax="1291" yMax="1500">
      <contour>
        <pt x="959" y="790" on="1"/>
        <pt x="1291" y="703" on="0"/>
        <pt x="1291" y="421" on="1"/>
        <pt x="1291" y="304" on="0"/>
        <pt x="1220" y="173" on="0"/>
        <pt x="1176" y="133" on="1"/>
        <pt x="1032" y="0" on="0"/>
        <pt x="680" y="0" on="1"/>
        <pt x="73" y="0" on="1"/>
        <pt x="73" y="110" on="1"/>
        <pt x="178" y="110" on="0"/>
        <pt x="230" y="147" on="0"/>
        <pt x="240" y="189" on="0"/>
        <pt x="240" y="219" on="1"/>
        <pt x="240" y="1281" on="1"/>
        <pt x="240" y="1346" on="0"/>
        <pt x="218" y="1362" on="1"/>
        <pt x="178" y="1390" on="0"/>
        <pt x="72" y="1390" on="1"/>
        <pt x="72" y="1500" on="1"/>
        <pt x="629" y="1500" on="1"/>
        <pt x="1034" y="1500" on="0"/>
        <pt x="1160" y="1308" on="1"/>
        <pt x="1210" y="1232" on="0"/>
        <pt x="1210" y="1131" on="1"/>
        <pt x="1210" y="893" on="0"/>
      </contour>
      <contour>
        <pt x="601" y="822" on="1"/>
        <pt x="881" y="828" on="0"/>
        <pt x="942" y="986" on="1"/>
        <pt x="962" y="1038" on="0"/>
        <pt x="962" y="1102" on="1"/>
        <pt x="962" y="1237" on="0"/>
        <pt x="803" y="1390" on="0"/>
        <pt x="610" y="1390" on="1"/>
        <pt x="465" y="1390" on="1"/>
        <pt x="465" y="822" on="1"/>
      </contour>
      <contour>
        <pt x="661" y="110" on="1"/>
        <pt x="959" y="110" on="0"/>
        <pt x="1023" y="304" on="1"/>
        <pt x="1042" y="361" on="0"/>
        <pt x="1042" y="428" on="1"/>
        <pt x="1042" y="566" on="0"/>
        <pt x="833" y="728" on="0"/>
        <pt x="651" y="732" on="1"/>
        <pt x="630" y="732" on="0"/>
        <pt x="586" y="732" on="0"/>
        <pt x="563" y="732" on="1"/>
        <pt x="465" y="732" on="1"/>
        <pt x="465" y="110" on="1"/>
      </contour>
    </TTGlyph>
    <TTGlyph name="C" xMin="78" yMin="-20" xMax="1340" yMax="1520">
      <contour>
        <pt x="798" y="110" on="1"/>
        <pt x="1113" y="110" on="0"/>
        <pt x="1196" y="400" on="1"/>
        <pt x="1340" y="400" on="1"/>
        <pt x="1340" y="322" on="0"/>
        <pt x="1256" y="171" on="0"/>
        <pt x="1180" y="112" on="1"/>
        <pt x="1012" y="-20" on="0"/>
        <pt x="484" y="-20" on="0"/>
        <pt x="296" y="156" on="1"/>
        <pt x="78" y="359" on="0"/>
        <pt x="78" y="750" on="1"/>
        <pt x="78" y="1062" on="0"/>
        <pt x="246" y="1276" on="1"/>
        <pt x="365" y="1429" on="0"/>
        <pt x="563" y="1489" on="1"/>
        <pt x="665" y="1520" on="0"/>
        <pt x="787" y="1520" on="1"/>
        <pt x="1028" y="1520" on="0"/>
        <pt x="1338" y="1299" on="0"/>
        <pt x="1338" y="1132" on="1"/>
        <pt x="1338" y="1007" on="0"/>
        <pt x="1240" y="964" on="1"/>
        <pt x="1211" y="951" on="0"/>
        <pt x="1177" y="951" on="1"/>
        <pt x="1072" y="951" on="0"/>
        <pt x="1036" y="1040" on="1"/>
        <pt x="1025" y="1068" on="0"/>
        <pt x="1025" y="1145" on="0"/>
        <pt x="1069" y="1220" on="0"/>
        <pt x="1105" y="1240" on="1"/>
        <pt x="1024" y="1395" on="0"/>
        <pt x="606" y="1395" on="0"/>
        <pt x="344" y="1078" on="0"/>
        <pt x="344" y="443" on="0"/>
        <pt x="610" y="110" on="0"/>
      </contour>
    </TTGlyph>
    <TTGlyph name="Cacute" xMin="78" yMin="-20" xMax="1340" yMax="2010">
      <component glyphName=".ttfautohint" x="78" y="0" flags="0x0"/>
      <component glyphName="C" x="0" y="0" flags="0x1204"/>
      <component glyphName="acute.cap" x="819" y="0" flags="0x1004"/>
    </TTGlyph>
    <TTGlyph name="Ccaron" xMin="78" yMin="-20" xMax="1340" yMax="1972">
      <component glyphName=".ttfautohint" x="78" y="0" flags="0x0"/>
      <component glyphName="C" x="0" y="0" flags="0x1204"/>
      <component glyphName="caron.cap" x="770" y="0" flags="0x1004"/>
    </TTGlyph>
    <TTGlyph name="Ccedilla" xMin="78" yMin="-419" xMax="1340" yMax="1520">
      <contour>
        <pt x="881" y="-170" on="1"/>
        <pt x="881" y="-419" on="0"/>
        <pt x="621" y="-419" on="1"/>
        <pt x="563" y="-419" on="0"/>
        <pt x="467" y="-387" on="0"/>
        <pt x="456" y="-379" on="1"/>
        <pt x="463" y="-273" on="1"/>
        <pt x="513" y="-288" on="0"/>
        <pt x="539" y="-288" on="1"/>
        <pt x="619" y="-288" on="0"/>
        <pt x="661" y="-258" on="1"/>
        <pt x="750" y="-194" on="0"/>
        <pt x="754" y="-20" on="1"/>
        <pt x="476" y="-17" on="0"/>
        <pt x="292" y="160" on="1"/>
        <pt x="78" y="363" on="0"/>
        <pt x="78" y="750" on="1"/>
        <pt x="78" y="1062" on="0"/>
        <pt x="246" y="1276" on="1"/>
        <pt x="365" y="1429" on="0"/>
        <pt x="563" y="1489" on="1"/>
        <pt x="665" y="1520" on="0"/>
        <pt x="787" y="1520" on="1"/>
        <pt x="1028" y="1520" on="0"/>
        <pt x="1338" y="1299" on="0"/>
        <pt x="1338" y="1132" on="1"/>
        <pt x="1338" y="1007" on="0"/>
        <pt x="1240" y="964" on="1"/>
        <pt x="1211" y="951" on="0"/>
        <pt x="1177" y="951" on="1"/>
        <pt x="1072" y="951" on="0"/>
        <pt x="1036" y="1040" on="1"/>
        <pt x="1025" y="1068" on="0"/>
        <pt x="1025" y="1145" on="0"/>
        <pt x="1069" y="1220" on="0"/>
        <pt x="1105" y="1240" on="1"/>
        <pt x="1024" y="1395" on="0"/>
        <pt x="606" y="1395" on="0"/>
        <pt x="344" y="1078" on="0"/>
        <pt x="344" y="443" on="0"/>
        <pt x="610" y="110" on="0"/>
        <pt x="798" y="110" on="1"/>
        <pt x="1113" y="110" on="0"/>
        <pt x="1196" y="400" on="1"/>
        <pt x="1340" y="400" on="1"/>
        <pt x="1340" y="255" on="0"/>
        <pt x="1074" y="12" on="0"/>
        <pt x="866" y="-13" on="1"/>
        <pt x="881" y="-97" on="0"/>
      </contour>
    </TTGlyph>
    <TTGlyph name="Ccircumflex" xMin="78" yMin="-20" xMax="1340" yMax="2000">
      <component glyphName=".ttfautohint" x="78" y="0" flags="0x0"/>
      <component glyphName="C" x="0" y="0" flags="0x1204"/>
      <component glyphName="circumflex.cap" x="770" y="0" flags="0x1004"/>
    </TTGlyph>
    <TTGlyph name="Cdotaccent" xMin="78" yMin="-20" xMax="1340" yMax="1985">
      <component glyphName=".ttfautohint" x="78" y="0" flags="0x0"/>
      <component glyphName="C" x="0" y="0" flags="0x1204"/>
      <component glyphName="dotaccent.cap" x="770" y="0" flags="0x1004"/>
    </TTGlyph>
    <TTGlyph name="D" xMin="72" yMin="0" xMax="1426" yMax="1500">
      <contour>
        <pt x="72" y="110" on="1"/>
        <pt x="178" y="110" on="0"/>
        <pt x="230" y="147" on="0"/>
        <pt x="240" y="189" on="0"/>
        <pt x="240" y="219" on="1"/>
        <pt x="240" y="1281" on="1"/>
        <pt x="240" y="1346" on="0"/>
        <pt x="218" y="1362" on="1"/>
        <pt x="178" y="1390" on="0"/>
        <pt x="72" y="1390" on="1"/>
        <pt x="72" y="1500" on="1"/>
        <pt x="609" y="1500" on="1"/>
        <pt x="1255" y="1500" on="0"/>
        <pt x="1386" y="1076" on="1"/>
        <pt x="1426" y="944" on="0"/>
        <pt x="1426" y="641" on="0"/>
        <pt x="1366" y="412" on="0"/>
        <pt x="1312" y="324" on="1"/>
        <pt x="1209" y="157" on="0"/>
        <pt x="850" y="0" on="0"/>
        <pt x="629" y="0" on="1"/>
        <pt x="72" y="0" on="1"/>
      </contour>
      <contour>
        <pt x="651" y="111" on="1"/>
        <pt x="1165" y="111" on="0"/>
        <pt x="1165" y="781" on="1"/>
        <pt x="1165" y="1067" on="0"/>
        <pt x="881" y="1400" on="0"/>
        <pt x="600" y="1400" on="1"/>
        <pt x="465" y="1400" on="1"/>
        <pt x="465" y="111" on="1"/>
      </contour>
    </TTGlyph>
    <TTGlyph name="Dcaron" xMin="82" yMin="0" xMax="1436" yMax="1972">
      <component glyphName=".ttfautohint" x="82" y="0" flags="0x0"/>
      <component glyphName="D" x="10" y="0" flags="0x1004"/>
      <component glyphName="caron.cap" x="725" y="0" flags="0x1004"/>
    </TTGlyph>
    <TTGlyph name="Dcroat" xMin="82" yMin="0" xMax="1436" yMax="1500">
      <component glyphName=".ttfautohint" x="82" y="0" flags="0x0"/>
      <component glyphName="Eth" x="0" y="0" flags="0x1204"/>
    </TTGlyph>
    <TTGlyph name="Delta" xMin="73" yMin="0" xMax="1534" yMax="1500">
      <contour>
        <pt x="73" y="108" on="1"/>
        <pt x="742" y="1500" on="1"/>
        <pt x="886" y="1500" on="1"/>
        <pt x="1534" y="108" on="1"/>
        <pt x="1534" y="0" on="1"/>
        <pt x="73" y="0" on="1"/>
      </contour>
      <contour>
        <pt x="1281" y="108" on="1"/>
        <pt x="759" y="1224" on="1"/>
        <pt x="225" y="108" on="1"/>
      </contour>
    </TTGlyph>
    <TTGlyph name="E" xMin="71" yMin="0" xMax="1258" yMax="1500">
      <contour>
        <pt x="71" y="110" on="1"/>
        <pt x="168" y="110" on="0"/>
        <pt x="224" y="146" on="0"/>
        <pt x="240" y="187" on="0"/>
        <pt x="240" y="217" on="1"/>
        <pt x="240" y="1281" on="1"/>
        <pt x="240" y="1343" on="0"/>
        <pt x="166" y="1390" on="0"/>
        <pt x="72" y="1390" on="1"/>
        <pt x="72" y="1500" on="1"/>
        <pt x="1160" y="1500" on="1"/>
        <pt x="1199" y="1137" on="1"/>
        <pt x="1054" y="1136" on="1"/>
        <pt x="1027" y="1249" on="1"/>
        <pt x="1007" y="1330" on="0"/>
        <pt x="986" y="1351" on="1"/>
        <pt x="949" y="1388" on="0"/>
        <pt x="861" y="1388" on="1"/>
        <pt x="465" y="1388" on="1"/>
        <pt x="465" y="806" on="1"/>
        <pt x="659" y="806" on="1"/>
        <pt x="772" y="806" on="0"/>
        <pt x="823" y="836" on="0"/>
        <pt x="842" y="892" on="0"/>
        <pt x="842" y="945" on="1"/>
        <pt x="972" y="945" on="1"/>
        <pt x="972" y="558" on="1"/>
        <pt x="842" y="558" on="1"/>
        <pt x="842" y="651" on="0"/>
        <pt x="769" y="696" on="0"/>
        <pt x="659" y="696" on="1"/>
        <pt x="465" y="696" on="1"/>
        <pt x="465" y="110" on="1"/>
        <pt x="890" y="110" on="1"/>
        <pt x="1006" y="110" on="0"/>
        <pt x="1044" y="188" on="1"/>
        <pt x="1056" y="212" on="0"/>
        <pt x="1068" y="238" on="1"/>
        <pt x="1113" y="361" on="1"/>
        <pt x="1258" y="361" on="1"/>
        <pt x="1219" y="0" on="1"/>
        <pt x="71" y="0" on="1"/>
      </contour>
    </TTGlyph>
    <TTGlyph name="Eacute" xMin="81" yMin="0" xMax="1268" yMax="2010">
      <component glyphName=".ttfautohint" x="81" y="0" flags="0x0"/>
      <component glyphName="E" x="10" y="0" flags="0x1004"/>
      <component glyphName="acute.cap" x="698" y="0" flags="0x1004"/>
    </TTGlyph>
    <TTGlyph name="Ebreve" xMin="81" yMin="0" xMax="1268" yMax="1981">
      <component glyphName=".ttfautohint" x="81" y="0" flags="0x0"/>
      <component glyphName="E" x="10" y="0" flags="0x1004"/>
      <component glyphName="breve.cap" x="649" y="0" flags="0x1004"/>
    </TTGlyph>
    <TTGlyph name="Ecaron" xMin="81" yMin="0" xMax="1268" yMax="1972">
      <component glyphName=".ttfautohint" x="81" y="0" flags="0x0"/>
      <component glyphName="E" x="10" y="0" flags="0x1004"/>
      <component glyphName="caron.cap" x="649" y="0" flags="0x1004"/>
    </TTGlyph>
    <TTGlyph name="Ecircumflex" xMin="81" yMin="0" xMax="1268" yMax="2000">
      <component glyphName=".ttfautohint" x="81" y="0" flags="0x0"/>
      <component glyphName="E" x="10" y="0" flags="0x1004"/>
      <component glyphName="circumflex.cap" x="649" y="0" flags="0x1004"/>
    </TTGlyph>
    <TTGlyph name="Edieresis" xMin="81" yMin="0" xMax="1268" yMax="1957">
      <component glyphName=".ttfautohint" x="81" y="0" flags="0x0"/>
      <component glyphName="E" x="10" y="0" flags="0x1004"/>
      <component glyphName="dieresis.cap" x="649" y="0" flags="0x1004"/>
    </TTGlyph>
    <TTGlyph name="Edotaccent" xMin="81" yMin="0" xMax="1268" yMax="1985">
      <component glyphName=".ttfautohint" x="81" y="0" flags="0x0"/>
      <component glyphName="E" x="10" y="0" flags="0x1004"/>
      <component glyphName="dotaccent.cap" x="649" y="0" flags="0x1004"/>
    </TTGlyph>
    <TTGlyph name="Egrave" xMin="81" yMin="0" xMax="1268" yMax="2010">
      <component glyphName=".ttfautohint" x="81" y="0" flags="0x0"/>
      <component glyphName="E" x="10" y="0" flags="0x1004"/>
      <component glyphName="grave.cap" x="649" y="0" flags="0x1004"/>
    </TTGlyph>
    <TTGlyph name="Emacron" xMin="81" yMin="0" xMax="1268" yMax="1864">
      <component glyphName=".ttfautohint" x="81" y="0" flags="0x0"/>
      <component glyphName="E" x="10" y="0" flags="0x1004"/>
      <component glyphName="macron.cap" x="649" y="0" flags="0x1004"/>
    </TTGlyph>
    <TTGlyph name="Eng" xMin="98" yMin="-510" xMax="1634" yMax="1500">
      <contour>
        <pt x="1007" y="-369" on="1"/>
        <pt x="1042" y="-396" on="0"/>
        <pt x="1091" y="-396" on="1"/>
        <pt x="1188" y="-396" on="0"/>
        <pt x="1300" y="-251" on="0"/>
        <pt x="1300" y="-154" on="1"/>
        <pt x="1300" y="36" on="0"/>
        <pt x="1175" y="207" on="1"/>
        <pt x="431" y="1151" on="1"/>
        <pt x="431" y="223" on="1"/>
        <pt x="431" y="158" on="0"/>
        <pt x="454" y="141" on="1"/>
        <pt x="495" y="112" on="0"/>
        <pt x="605" y="112" on="1"/>
        <pt x="605" y="0" on="1"/>
        <pt x="98" y="0" on="1"/>
        <pt x="98" y="112" on="1"/>
        <pt x="196" y="112" on="0"/>
        <pt x="254" y="150" on="0"/>
        <pt x="271" y="193" on="0"/>
        <pt x="271" y="223" on="1"/>
        <pt x="271" y="1277" on="1"/>
        <pt x="271" y="1342" on="0"/>
        <pt x="248" y="1359" on="1"/>
        <pt x="207" y="1388" on="0"/>
        <pt x="98" y="1388" on="1"/>
        <pt x="98" y="1500" on="1"/>
        <pt x="443" y="1500" on="1"/>
        <pt x="1301" y="411" on="1"/>
        <pt x="1301" y="1277" on="1"/>
        <pt x="1301" y="1343" on="0"/>
        <pt x="1278" y="1359" on="1"/>
        <pt x="1238" y="1388" on="0"/>
        <pt x="1130" y="1388" on="1"/>
        <pt x="1130" y="1500" on="1"/>
        <pt x="1634" y="1500" on="1"/>
        <pt x="1634" y="1388" on="1"/>
        <pt x="1536" y="1388" on="0"/>
        <pt x="1478" y="1350" on="0"/>
        <pt x="1461" y="1307" on="0"/>
        <pt x="1461" y="1277" on="1"/>
        <pt x="1461" y="0" on="1"/>
        <pt x="1461" y="-374" on="0"/>
        <pt x="1230" y="-477" on="1"/>
        <pt x="1155" y="-510" on="0"/>
        <pt x="1076" y="-510" on="1"/>
        <pt x="933" y="-510" on="0"/>
        <pt x="748" y="-365" on="0"/>
        <pt x="748" y="-255" on="1"/>
        <pt x="748" y="-175" on="0"/>
        <pt x="848" y="-64" on="0"/>
        <pt x="992" y="-64" on="0"/>
        <pt x="1082" y="-161" on="0"/>
        <pt x="1082" y="-318" on="0"/>
      </contour>
    </TTGlyph>
    <TTGlyph name="Eogonek" xMin="81" yMin="-510" xMax="1218" yMax="1500">
      <contour>
        <pt x="880" y="-265" on="1"/>
        <pt x="880" y="-356" on="0"/>
        <pt x="988" y="-356" on="1"/>
        <pt x="1027" y="-356" on="0"/>
        <pt x="1089" y="-284" on="0"/>
        <pt x="1089" y="-219" on="1"/>
        <pt x="1179" y="-219" on="1"/>
        <pt x="1179" y="-226" on="0"/>
        <pt x="1179" y="-299" on="0"/>
        <pt x="1161" y="-351" on="1"/>
        <pt x="1106" y="-510" on="0"/>
        <pt x="929" y="-510" on="1"/>
        <pt x="829" y="-510" on="0"/>
        <pt x="700" y="-397" on="0"/>
        <pt x="700" y="-297" on="1"/>
        <pt x="700" y="-140" on="0"/>
        <pt x="913" y="0" on="1"/>
        <pt x="81" y="0" on="1"/>
        <pt x="81" y="110" on="1"/>
        <pt x="178" y="110" on="0"/>
        <pt x="234" y="146" on="0"/>
        <pt x="250" y="187" on="0"/>
        <pt x="250" y="217" on="1"/>
        <pt x="250" y="1281" on="1"/>
        <pt x="250" y="1343" on="0"/>
        <pt x="176" y="1390" on="0"/>
        <pt x="82" y="1390" on="1"/>
        <pt x="82" y="1500" on="1"/>
        <pt x="1150" y="1500" on="1"/>
        <pt x="1189" y="1137" on="1"/>
        <pt x="1044" y="1136" on="1"/>
        <pt x="1017" y="1249" on="1"/>
        <pt x="997" y="1330" on="0"/>
        <pt x="976" y="1351" on="1"/>
        <pt x="939" y="1388" on="0"/>
        <pt x="851" y="1388" on="1"/>
        <pt x="490" y="1388" on="1"/>
        <pt x="490" y="806" on="1"/>
        <pt x="663" y="806" on="1"/>
        <pt x="717" y="806" on="0"/>
        <pt x="781" y="810" on="0"/>
        <pt x="822" y="843" on="0"/>
        <pt x="822" y="945" on="1"/>
        <pt x="972" y="945" on="1"/>
        <pt x="972" y="558" on="1"/>
        <pt x="822" y="558" on="1"/>
        <pt x="822" y="655" on="0"/>
        <pt x="781" y="690" on="0"/>
        <pt x="717" y="696" on="0"/>
        <pt x="663" y="696" on="1"/>
        <pt x="490" y="696" on="1"/>
        <pt x="490" y="110" on="1"/>
        <pt x="890" y="110" on="1"/>
        <pt x="1013" y="110" on="0"/>
        <pt x="1040" y="182" on="1"/>
        <pt x="1049" y="206" on="0"/>
        <pt x="1056" y="238" on="1"/>
        <pt x="1083" y="361" on="1"/>
        <pt x="1218" y="361" on="1"/>
        <pt x="1179" y="0" on="1"/>
        <pt x="1146" y="0" on="1"/>
        <pt x="1050" y="0" on="0"/>
        <pt x="880" y="-166" on="0"/>
      </contour>
    </TTGlyph>
    <TTGlyph name="Eth" xMin="82" yMin="0" xMax="1436" yMax="1500">
      <contour>
        <pt x="82" y="110" on="1"/>
        <pt x="188" y="110" on="0"/>
        <pt x="240" y="147" on="0"/>
        <pt x="250" y="189" on="0"/>
        <pt x="250" y="219" on="1"/>
        <pt x="250" y="723" on="1"/>
        <pt x="82" y="723" on="1"/>
        <pt x="82" y="843" on="1"/>
        <pt x="250" y="843" on="1"/>
        <pt x="250" y="1281" on="1"/>
        <pt x="250" y="1346" on="0"/>
        <pt x="228" y="1362" on="1"/>
        <pt x="188" y="1390" on="0"/>
        <pt x="82" y="1390" on="1"/>
        <pt x="82" y="1500" on="1"/>
        <pt x="629" y="1500" on="1"/>
        <pt x="1051" y="1500" on="0"/>
        <pt x="1253" y="1302" on="1"/>
        <pt x="1436" y="1121" on="0"/>
        <pt x="1436" y="786" on="1"/>
        <pt x="1436" y="254" on="0"/>
        <pt x="1020" y="75" on="1"/>
        <pt x="846" y="0" on="0"/>
        <pt x="619" y="0" on="1"/>
        <pt x="82" y="0" on="1"/>
      </contour>
      <contour>
        <pt x="641" y="111" on="1"/>
        <pt x="1170" y="111" on="0"/>
        <pt x="1170" y="764" on="1"/>
        <pt x="1170" y="1071" on="0"/>
        <pt x="889" y="1400" on="0"/>
        <pt x="600" y="1400" on="1"/>
        <pt x="480" y="1400" on="1"/>
        <pt x="480" y="843" on="1"/>
        <pt x="821" y="843" on="1"/>
        <pt x="821" y="723" on="1"/>
        <pt x="480" y="723" on="1"/>
        <pt x="480" y="111" on="1"/>
      </contour>
    </TTGlyph>
    <TTGlyph name="Euro" xMin="24" yMin="-20" xMax="1424" yMax="1520">
      <contour>
        <pt x="932" y="110" on="1"/>
        <pt x="1204" y="110" on="0"/>
        <pt x="1280" y="370" on="1"/>
        <pt x="1424" y="370" on="1"/>
        <pt x="1424" y="215" on="0"/>
        <pt x="1142" y="-20" on="0"/>
        <pt x="704" y="-20" on="0"/>
        <pt x="540" y="99" on="1"/>
        <pt x="352" y="235" on="0"/>
        <pt x="290" y="494" on="1"/>
        <pt x="24" y="494" on="1"/>
        <pt x="41" y="593" on="1"/>
        <pt x="272" y="593" on="1"/>
        <pt x="262" y="667" on="0"/>
        <pt x="262" y="793" on="0"/>
        <pt x="266" y="839" on="1"/>
        <pt x="75" y="839" on="1"/>
        <pt x="92" y="938" on="1"/>
        <pt x="279" y="938" on="1"/>
        <pt x="351" y="1338" on="0"/>
        <pt x="672" y="1472" on="1"/>
        <pt x="786" y="1520" on="0"/>
        <pt x="912" y="1520" on="1"/>
        <pt x="1143" y="1520" on="0"/>
        <pt x="1422" y="1316" on="0"/>
        <pt x="1422" y="1162" on="1"/>
        <pt x="1422" y="1037" on="0"/>
        <pt x="1324" y="994" on="1"/>
        <pt x="1295" y="981" on="0"/>
        <pt x="1261" y="981" on="1"/>
        <pt x="1156" y="981" on="0"/>
        <pt x="1120" y="1070" on="1"/>
        <pt x="1109" y="1098" on="0"/>
        <pt x="1109" y="1175" on="0"/>
        <pt x="1153" y="1249" on="0"/>
        <pt x="1188" y="1269" on="1"/>
        <pt x="1118" y="1390" on="0"/>
        <pt x="947" y="1390" on="1"/>
        <pt x="705" y="1390" on="0"/>
        <pt x="596" y="1142" on="1"/>
        <pt x="559" y="1056" on="0"/>
        <pt x="543" y="938" on="1"/>
        <pt x="995" y="938" on="1"/>
        <pt x="978" y="839" on="1"/>
        <pt x="534" y="839" on="1"/>
        <pt x="532" y="799" on="0"/>
        <pt x="532" y="669" on="0"/>
        <pt x="542" y="593" on="1"/>
        <pt x="949" y="593" on="1"/>
        <pt x="932" y="494" on="1"/>
        <pt x="559" y="494" on="1"/>
        <pt x="603" y="304" on="0"/>
        <pt x="807" y="110" on="0"/>
      </contour>
    </TTGlyph>
    <TTGlyph name="F" xMin="72" yMin="0" xMax="1179" yMax="1500">
      <contour>
        <pt x="72" y="110" on="1"/>
        <pt x="178" y="110" on="0"/>
        <pt x="230" y="147" on="0"/>
        <pt x="240" y="189" on="0"/>
        <pt x="240" y="219" on="1"/>
        <pt x="240" y="1281" on="1"/>
        <pt x="240" y="1343" on="0"/>
        <pt x="166" y="1390" on="0"/>
        <pt x="72" y="1390" on="1"/>
        <pt x="72" y="1500" on="1"/>
        <pt x="1140" y="1500" on="1"/>
        <pt x="1179" y="1137" on="1"/>
        <pt x="1034" y="1136" on="1"/>
        <pt x="1007" y="1249" on="1"/>
        <pt x="987" y="1330" on="0"/>
        <pt x="966" y="1351" on="1"/>
        <pt x="929" y="1388" on="0"/>
        <pt x="841" y="1388" on="1"/>
        <pt x="465" y="1388" on="1"/>
        <pt x="465" y="806" on="1"/>
        <pt x="649" y="806" on="1"/>
        <pt x="762" y="806" on="0"/>
        <pt x="813" y="836" on="0"/>
        <pt x="832" y="892" on="0"/>
        <pt x="832" y="945" on="1"/>
        <pt x="962" y="945" on="1"/>
        <pt x="962" y="558" on="1"/>
        <pt x="832" y="558" on="1"/>
        <pt x="832" y="651" on="0"/>
        <pt x="759" y="696" on="0"/>
        <pt x="649" y="696" on="1"/>
        <pt x="465" y="696" on="1"/>
        <pt x="465" y="269" on="1"/>
        <pt x="465" y="218" on="0"/>
        <pt x="480" y="156" on="0"/>
        <pt x="565" y="110" on="0"/>
        <pt x="779" y="110" on="1"/>
        <pt x="779" y="0" on="1"/>
        <pt x="72" y="0" on="1"/>
      </contour>
    </TTGlyph>
    <TTGlyph name="G" xMin="78" yMin="-20" xMax="1372" yMax="1520">
      <contour>
        <pt x="134" y="388" on="0"/>
        <pt x="78" y="611" on="0"/>
        <pt x="78" y="844" on="0"/>
        <pt x="115" y="1032" on="0"/>
        <pt x="153" y="1118" on="1"/>
        <pt x="234" y="1301" on="0"/>
        <pt x="566" y="1520" on="0"/>
        <pt x="1050" y="1520" on="0"/>
        <pt x="1372" y="1280" on="0"/>
        <pt x="1372" y="1107" on="1"/>
        <pt x="1372" y="989" on="0"/>
        <pt x="1278" y="948" on="1"/>
        <pt x="1249" y="935" on="0"/>
        <pt x="1216" y="935" on="1"/>
        <pt x="1152" y="935" on="0"/>
        <pt x="1072" y="1015" on="0"/>
        <pt x="1072" y="1068" on="1"/>
        <pt x="1072" y="1174" on="0"/>
        <pt x="1157" y="1214" on="1"/>
        <pt x="1117" y="1298" on="0"/>
        <pt x="925" y="1395" on="0"/>
        <pt x="824" y="1395" on="1"/>
        <pt x="611" y="1395" on="0"/>
        <pt x="342" y="1077" on="0"/>
        <pt x="342" y="442" on="0"/>
        <pt x="622" y="110" on="0"/>
        <pt x="822" y="110" on="1"/>
        <pt x="985" y="110" on="0"/>
        <pt x="1164" y="274" on="0"/>
        <pt x="1164" y="471" on="0"/>
        <pt x="1074" y="522" on="0"/>
        <pt x="913" y="522" on="1"/>
        <pt x="913" y="655" on="1"/>
        <pt x="1371" y="655" on="1"/>
        <pt x="1371" y="0" on="1"/>
        <pt x="1237" y="0" on="1"/>
        <pt x="1200" y="120" on="1"/>
        <pt x="1114" y="30" on="0"/>
        <pt x="934" y="-6" on="1"/>
        <pt x="868" y="-20" on="0"/>
        <pt x="700" y="-20" on="0"/>
        <pt x="527" y="17" on="0"/>
        <pt x="369" y="95" on="0"/>
        <pt x="234" y="217" on="0"/>
      </contour>
    </TTGlyph>
    <TTGlyph name="Gbreve" xMin="132" yMin="-20" xMax="1426" yMax="1981">
      <component glyphName=".ttfautohint" x="132" y="0" flags="0x0"/>
      <component glyphName="G" x="54" y="0" flags="0x1004"/>
      <component glyphName="breve.cap" x="864" y="0" flags="0x1004"/>
    </TTGlyph>
    <TTGlyph name="Gcircumflex" xMin="132" yMin="-20" xMax="1426" yMax="2000">
      <component glyphName=".ttfautohint" x="132" y="0" flags="0x0"/>
      <component glyphName="G" x="54" y="0" flags="0x1004"/>
      <component glyphName="circumflex.cap" x="864" y="0" flags="0x1004"/>
    </TTGlyph>
    <TTGlyph name="Gcommaaccent" xMin="132" yMin="-547" xMax="1426" yMax="1520">
      <component glyphName=".ttfautohint" x="132" y="0" flags="0x0"/>
      <component glyphName="G" x="54" y="0" flags="0x1004"/>
      <component glyphName="commaaccent" x="499" y="0" flags="0x1004"/>
    </TTGlyph>
    <TTGlyph name="Gdotaccent" xMin="132" yMin="-20" xMax="1426" yMax="1985">
      <component glyphName=".ttfautohint" x="132" y="0" flags="0x0"/>
      <component glyphName="G" x="54" y="0" flags="0x1004"/>
      <component glyphName="dotaccent.cap" x="864" y="0" flags="0x1004"/>
    </TTGlyph>
    <TTGlyph name="H" xMin="72" yMin="0" xMax="1604" yMax="1500">
      <contour>
        <pt x="72" y="110" on="1"/>
        <pt x="167" y="110" on="0"/>
        <pt x="225" y="147" on="0"/>
        <pt x="241" y="189" on="0"/>
        <pt x="241" y="219" on="1"/>
        <pt x="240" y="1281" on="1"/>
        <pt x="240" y="1346" on="0"/>
        <pt x="218" y="1362" on="1"/>
        <pt x="178" y="1390" on="0"/>
        <pt x="72" y="1390" on="1"/>
        <pt x="72" y="1500" on="1"/>
        <pt x="634" y="1500" on="1"/>
        <pt x="634" y="1390" on="1"/>
        <pt x="539" y="1390" on="0"/>
        <pt x="481" y="1353" on="0"/>
        <pt x="465" y="1311" on="0"/>
        <pt x="465" y="1281" on="1"/>
        <pt x="465" y="834" on="1"/>
        <pt x="1210" y="834" on="1"/>
        <pt x="1210" y="1281" on="1"/>
        <pt x="1210" y="1346" on="0"/>
        <pt x="1188" y="1362" on="1"/>
        <pt x="1148" y="1390" on="0"/>
        <pt x="1042" y="1390" on="1"/>
        <pt x="1042" y="1500" on="1"/>
        <pt x="1604" y="1500" on="1"/>
        <pt x="1604" y="1390" on="1"/>
        <pt x="1509" y="1390" on="0"/>
        <pt x="1451" y="1353" on="0"/>
        <pt x="1435" y="1311" on="0"/>
        <pt x="1435" y="1281" on="1"/>
        <pt x="1436" y="219" on="1"/>
        <pt x="1436" y="154" on="0"/>
        <pt x="1458" y="138" on="1"/>
        <pt x="1498" y="110" on="0"/>
        <pt x="1604" y="110" on="1"/>
        <pt x="1604" y="0" on="1"/>
        <pt x="1042" y="0" on="1"/>
        <pt x="1042" y="110" on="1"/>
        <pt x="1137" y="110" on="0"/>
        <pt x="1195" y="147" on="0"/>
        <pt x="1211" y="189" on="0"/>
        <pt x="1211" y="219" on="1"/>
        <pt x="1210" y="704" on="1"/>
        <pt x="465" y="704" on="1"/>
        <pt x="466" y="219" on="1"/>
        <pt x="466" y="154" on="0"/>
        <pt x="488" y="138" on="1"/>
        <pt x="528" y="110" on="0"/>
        <pt x="634" y="110" on="1"/>
        <pt x="634" y="0" on="1"/>
        <pt x="72" y="0" on="1"/>
      </contour>
    </TTGlyph>
    <TTGlyph name="Hbar" xMin="81" yMin="0" xMax="1627" yMax="1500">
      <contour>
        <pt x="93" y="110" on="1"/>
        <pt x="188" y="110" on="0"/>
        <pt x="246" y="147" on="0"/>
        <pt x="262" y="189" on="0"/>
        <pt x="262" y="219" on="1"/>
        <pt x="261" y="1043" on="1"/>
        <pt x="81" y="1043" on="1"/>
        <pt x="81" y="1173" on="1"/>
        <pt x="261" y="1173" on="1"/>
        <pt x="261" y="1281" on="1"/>
        <pt x="261" y="1346" on="0"/>
        <pt x="238" y="1362" on="1"/>
        <pt x="199" y="1390" on="0"/>
        <pt x="93" y="1390" on="1"/>
        <pt x="93" y="1500" on="1"/>
        <pt x="655" y="1500" on="1"/>
        <pt x="655" y="1390" on="1"/>
        <pt x="560" y="1390" on="0"/>
        <pt x="502" y="1353" on="0"/>
        <pt x="486" y="1311" on="0"/>
        <pt x="486" y="1281" on="1"/>
        <pt x="486" y="1173" on="1"/>
        <pt x="1231" y="1173" on="1"/>
        <pt x="1231" y="1281" on="1"/>
        <pt x="1231" y="1346" on="0"/>
        <pt x="1208" y="1362" on="1"/>
        <pt x="1169" y="1390" on="0"/>
        <pt x="1063" y="1390" on="1"/>
        <pt x="1063" y="1500" on="1"/>
        <pt x="1625" y="1500" on="1"/>
        <pt x="1625" y="1390" on="1"/>
        <pt x="1530" y="1390" on="0"/>
        <pt x="1472" y="1353" on="0"/>
        <pt x="1456" y="1311" on="0"/>
        <pt x="1456" y="1281" on="1"/>
        <pt x="1456" y="1173" on="1"/>
        <pt x="1627" y="1173" on="1"/>
        <pt x="1627" y="1043" on="1"/>
        <pt x="1456" y="1043" on="1"/>
        <pt x="1457" y="219" on="1"/>
        <pt x="1457" y="154" on="0"/>
        <pt x="1480" y="138" on="1"/>
        <pt x="1519" y="110" on="0"/>
        <pt x="1625" y="110" on="1"/>
        <pt x="1625" y="0" on="1"/>
        <pt x="1063" y="0" on="1"/>
        <pt x="1063" y="110" on="1"/>
        <pt x="1158" y="110" on="0"/>
        <pt x="1216" y="147" on="0"/>
        <pt x="1232" y="189" on="0"/>
        <pt x="1232" y="219" on="1"/>
        <pt x="1231" y="704" on="1"/>
        <pt x="486" y="704" on="1"/>
        <pt x="487" y="219" on="1"/>
        <pt x="487" y="154" on="0"/>
        <pt x="510" y="138" on="1"/>
        <pt x="549" y="110" on="0"/>
        <pt x="655" y="110" on="1"/>
        <pt x="655" y="0" on="1"/>
        <pt x="93" y="0" on="1"/>
      </contour>
      <contour>
        <pt x="1231" y="834" on="1"/>
        <pt x="1231" y="1043" on="1"/>
        <pt x="486" y="1043" on="1"/>
        <pt x="486" y="834" on="1"/>
      </contour>
    </TTGlyph>
    <TTGlyph name="Hcircumflex" xMin="93" yMin="0" xMax="1625" yMax="2000">
      <component glyphName=".ttfautohint" x="93" y="0" flags="0x0"/>
      <component glyphName="H" x="21" y="0" flags="0x1004"/>
      <component glyphName="circumflex.cap" x="854" y="0" flags="0x1004"/>
    </TTGlyph>
    <TTGlyph name="I" xMin="81" yMin="0" xMax="643" yMax="1500">
      <contour>
        <pt x="81" y="110" on="1"/>
        <pt x="176" y="110" on="0"/>
        <pt x="234" y="147" on="0"/>
        <pt x="250" y="189" on="0"/>
        <pt x="250" y="219" on="1"/>
        <pt x="249" y="1281" on="1"/>
        <pt x="249" y="1346" on="0"/>
        <pt x="226" y="1362" on="1"/>
        <pt x="187" y="1390" on="0"/>
        <pt x="81" y="1390" on="1"/>
        <pt x="81" y="1500" on="1"/>
        <pt x="643" y="1500" on="1"/>
        <pt x="643" y="1390" on="1"/>
        <pt x="548" y="1390" on="0"/>
        <pt x="490" y="1353" on="0"/>
        <pt x="474" y="1311" on="0"/>
        <pt x="474" y="1281" on="1"/>
        <pt x="475" y="219" on="1"/>
        <pt x="475" y="154" on="0"/>
        <pt x="498" y="138" on="1"/>
        <pt x="537" y="110" on="0"/>
        <pt x="643" y="110" on="1"/>
        <pt x="643" y="0" on="1"/>
        <pt x="81" y="0" on="1"/>
      </contour>
    </TTGlyph>
    <TTGlyph name="IJ" xMin="99" yMin="-20" xMax="1902" yMax="1500">
      <component glyphName=".ttfautohint" x="99" y="0" flags="0x0"/>
      <component glyphName="I" x="18" y="0" flags="0x1004"/>
      <component glyphName="J" x="710" y="0" flags="0x1004"/>
    </TTGlyph>
    <TTGlyph name="Iacute" xMin="99" yMin="0" xMax="681" yMax="2010">
      <component glyphName=".ttfautohint" x="99" y="0" flags="0x0"/>
      <component glyphName="I" x="18" y="0" flags="0x1004"/>
      <component glyphName="acute.cap" x="428" y="0" flags="0x1004"/>
    </TTGlyph>
    <TTGlyph name="Ibreve" xMin="43" yMin="0" xMax="715" yMax="1981">
      <component glyphName=".ttfautohint" x="43" y="0" flags="0x0"/>
      <component glyphName="I" x="18" y="0" flags="0x1004"/>
      <component glyphName="breve.cap" x="379" y="0" flags="0x1004"/>
    </TTGlyph>
    <TTGlyph name="Icircumflex" xMin="15" yMin="0" xMax="743" yMax="2000">
      <component glyphName=".ttfautohint" x="15" y="0" flags="0x0"/>
      <component glyphName="I" x="18" y="0" flags="0x1004"/>
      <component glyphName="circumflex.cap" x="379" y="0" flags="0x1004"/>
    </TTGlyph>
    <TTGlyph name="Idieresis" xMin="-14" yMin="0" xMax="772" yMax="1957">
      <component glyphName=".ttfautohint" x="0" y="0" flags="0x0"/>
      <component glyphName="I" x="18" y="0" flags="0x1004"/>
      <component glyphName="dieresis.cap" x="379" y="0" flags="0x1004"/>
    </TTGlyph>
    <TTGlyph name="Idotaccent" xMin="99" yMin="0" xMax="661" yMax="1985">
      <component glyphName=".ttfautohint" x="99" y="0" flags="0x0"/>
      <component glyphName="I" x="18" y="0" flags="0x1004"/>
      <component glyphName="dotaccent.cap" x="379" y="0" flags="0x1004"/>
    </TTGlyph>
    <TTGlyph name="Igrave" xMin="99" yMin="0" xMax="661" yMax="2010">
      <component glyphName=".ttfautohint" x="99" y="0" flags="0x0"/>
      <component glyphName="I" x="18" y="0" flags="0x1004"/>
      <component glyphName="grave.cap" x="379" y="0" flags="0x1004"/>
    </TTGlyph>
    <TTGlyph name="Imacron" xMin="19" yMin="0" xMax="739" yMax="1864">
      <component glyphName=".ttfautohint" x="19" y="0" flags="0x0"/>
      <component glyphName="I" x="18" y="0" flags="0x1004"/>
      <component glyphName="macron.cap" x="379" y="0" flags="0x1004"/>
    </TTGlyph>
    <TTGlyph name="Iogonek" xMin="96" yMin="-510" xMax="663" yMax="1500">
      <contour>
        <pt x="310" y="-265" on="1"/>
        <pt x="310" y="-356" on="0"/>
        <pt x="418" y="-356" on="1"/>
        <pt x="457" y="-356" on="0"/>
        <pt x="519" y="-284" on="0"/>
        <pt x="519" y="-219" on="1"/>
        <pt x="609" y="-219" on="1"/>
        <pt x="609" y="-226" on="0"/>
        <pt x="609" y="-299" on="0"/>
        <pt x="591" y="-351" on="1"/>
        <pt x="536" y="-510" on="0"/>
        <pt x="359" y="-510" on="1"/>
        <pt x="259" y="-510" on="0"/>
        <pt x="130" y="-397" on="0"/>
        <pt x="130" y="-297" on="1"/>
        <pt x="130" y="-148" on="0"/>
        <pt x="338" y="0" on="1"/>
        <pt x="96" y="0" on="1"/>
        <pt x="96" y="110" on="1"/>
        <pt x="191" y="110" on="0"/>
        <pt x="249" y="147" on="0"/>
        <pt x="265" y="189" on="0"/>
        <pt x="265" y="219" on="1"/>
        <pt x="264" y="1281" on="1"/>
        <pt x="264" y="1346" on="0"/>
        <pt x="242" y="1362" on="1"/>
        <pt x="202" y="1390" on="0"/>
        <pt x="96" y="1390" on="1"/>
        <pt x="96" y="1500" on="1"/>
        <pt x="663" y="1500" on="1"/>
        <pt x="663" y="1390" on="1"/>
        <pt x="568" y="1390" on="0"/>
        <pt x="510" y="1353" on="0"/>
        <pt x="494" y="1311" on="0"/>
        <pt x="494" y="1281" on="1"/>
        <pt x="495" y="219" on="1"/>
        <pt x="495" y="154" on="0"/>
        <pt x="518" y="138" on="1"/>
        <pt x="557" y="110" on="0"/>
        <pt x="663" y="110" on="1"/>
        <pt x="663" y="0" on="1"/>
        <pt x="576" y="0" on="1"/>
        <pt x="480" y="0" on="0"/>
        <pt x="310" y="-166" on="0"/>
      </contour>
    </TTGlyph>
    <TTGlyph name="Itilde" xMin="-26" yMin="0" xMax="784" yMax="2002">
      <component glyphName=".ttfautohint" x="0" y="0" flags="0x0"/>
      <component glyphName="I" x="18" y="0" flags="0x1004"/>
      <component glyphName="tilde.cap" x="379" y="0" flags="0x1004"/>
    </TTGlyph>
    <TTGlyph name="J" xMin="83" yMin="-20" xMax="1192" yMax="1500">
      <contour>
        <pt x="522" y="107" on="1"/>
        <pt x="799" y="107" on="0"/>
        <pt x="799" y="515" on="1"/>
        <pt x="799" y="1281" on="1"/>
        <pt x="799" y="1346" on="0"/>
        <pt x="772" y="1362" on="1"/>
        <pt x="723" y="1390" on="0"/>
        <pt x="592" y="1390" on="1"/>
        <pt x="592" y="1500" on="1"/>
        <pt x="1192" y="1500" on="1"/>
        <pt x="1192" y="1390" on="1"/>
        <pt x="1097" y="1390" on="0"/>
        <pt x="1039" y="1353" on="0"/>
        <pt x="1023" y="1311" on="0"/>
        <pt x="1023" y="1281" on="1"/>
        <pt x="1024" y="514" on="1"/>
        <pt x="1024" y="119" on="0"/>
        <pt x="747" y="14" on="1"/>
        <pt x="657" y="-20" on="0"/>
        <pt x="548" y="-20" on="1"/>
        <pt x="342" y="-20" on="0"/>
        <pt x="83" y="192" on="0"/>
        <pt x="83" y="347" on="1"/>
        <pt x="83" y="430" on="0"/>
        <pt x="177" y="535" on="0"/>
        <pt x="315" y="535" on="0"/>
        <pt x="401" y="445" on="0"/>
        <pt x="401" y="330" on="0"/>
        <pt x="345" y="250" on="0"/>
        <pt x="301" y="232" on="1"/>
        <pt x="325" y="174" on="0"/>
        <pt x="448" y="107" on="0"/>
      </contour>
    </TTGlyph>
    <TTGlyph name="Jcircumflex" xMin="83" yMin="-20" xMax="1264" yMax="2000">
      <component glyphName=".ttfautohint" x="83" y="0" flags="0x0"/>
      <component glyphName="J" x="0" y="0" flags="0x1204"/>
      <component glyphName="circumflex.cap" x="900" y="0" flags="0x1004"/>
    </TTGlyph>
    <TTGlyph name="K" xMin="72" yMin="0" xMax="1523" yMax="1500">
      <contour>
        <pt x="896" y="110" on="1"/>
        <pt x="1113" y="115" on="0"/>
        <pt x="1018" y="261" on="1"/>
        <pt x="711" y="752" on="1"/>
        <pt x="465" y="513" on="1"/>
        <pt x="466" y="219" on="1"/>
        <pt x="466" y="154" on="0"/>
        <pt x="488" y="138" on="1"/>
        <pt x="526" y="110" on="0"/>
        <pt x="632" y="110" on="1"/>
        <pt x="632" y="0" on="1"/>
        <pt x="72" y="0" on="1"/>
        <pt x="72" y="110" on="1"/>
        <pt x="167" y="110" on="0"/>
        <pt x="225" y="147" on="0"/>
        <pt x="241" y="189" on="0"/>
        <pt x="241" y="219" on="1"/>
        <pt x="240" y="1281" on="1"/>
        <pt x="240" y="1346" on="0"/>
        <pt x="218" y="1362" on="1"/>
        <pt x="178" y="1390" on="0"/>
        <pt x="72" y="1390" on="1"/>
        <pt x="72" y="1500" on="1"/>
        <pt x="632" y="1500" on="1"/>
        <pt x="632" y="1390" on="1"/>
        <pt x="537" y="1390" on="0"/>
        <pt x="481" y="1353" on="0"/>
        <pt x="465" y="1311" on="0"/>
        <pt x="465" y="1281" on="1"/>
        <pt x="465" y="683" on="1"/>
        <pt x="1060" y="1279" on="1"/>
        <pt x="1115" y="1332" on="0"/>
        <pt x="1033" y="1390" on="0"/>
        <pt x="938" y="1390" on="1"/>
        <pt x="938" y="1500" on="1"/>
        <pt x="1473" y="1500" on="1"/>
        <pt x="1473" y="1390" on="1"/>
        <pt x="1406" y="1386" on="0"/>
        <pt x="1319" y="1343" on="0"/>
        <pt x="1269" y="1293" on="1"/>
        <pt x="858" y="894" on="1"/>
        <pt x="1272" y="259" on="1"/>
        <pt x="1322" y="179" on="0"/>
        <pt x="1435" y="110" on="0"/>
        <pt x="1510" y="110" on="1"/>
        <pt x="1517" y="110" on="0"/>
        <pt x="1523" y="110" on="1"/>
        <pt x="1523" y="0" on="1"/>
        <pt x="896" y="0" on="1"/>
      </contour>
    </TTGlyph>
    <TTGlyph name="Kcommaaccent" xMin="81" yMin="-547" xMax="1532" yMax="1500">
      <component glyphName=".ttfautohint" x="81" y="0" flags="0x0"/>
      <component glyphName="K" x="9" y="0" flags="0x1004"/>
      <component glyphName="commaaccent" x="446" y="0" flags="0x1004"/>
    </TTGlyph>
    <TTGlyph name="L" xMin="72" yMin="0" xMax="1209" yMax="1500">
      <contour>
        <pt x="72" y="110" on="1"/>
        <pt x="167" y="110" on="0"/>
        <pt x="225" y="147" on="0"/>
        <pt x="241" y="189" on="0"/>
        <pt x="241" y="219" on="1"/>
        <pt x="240" y="1281" on="1"/>
        <pt x="240" y="1346" on="0"/>
        <pt x="218" y="1362" on="1"/>
        <pt x="178" y="1390" on="0"/>
        <pt x="72" y="1390" on="1"/>
        <pt x="72" y="1500" on="1"/>
        <pt x="635" y="1500" on="1"/>
        <pt x="635" y="1390" on="1"/>
        <pt x="540" y="1390" on="0"/>
        <pt x="482" y="1353" on="0"/>
        <pt x="466" y="1311" on="0"/>
        <pt x="466" y="1281" on="1"/>
        <pt x="466" y="116" on="1"/>
        <pt x="811" y="116" on="1"/>
        <pt x="971" y="116" on="0"/>
        <pt x="1031" y="291" on="1"/>
        <pt x="1071" y="404" on="1"/>
        <pt x="1209" y="403" on="1"/>
        <pt x="1140" y="0" on="1"/>
        <pt x="72" y="0" on="1"/>
      </contour>
    </TTGlyph>
    <TTGlyph name="Lacute" xMin="81" yMin="0" xMax="1218" yMax="2010">
      <component glyphName=".ttfautohint" x="81" y="0" flags="0x0"/>
      <component glyphName="L" x="9" y="0" flags="0x1004"/>
      <component glyphName="acute.cap" x="413" y="0" flags="0x1004"/>
    </TTGlyph>
    <TTGlyph name="Lcaron" xMin="81" yMin="0" xMax="1218" yMax="1500">
      <contour>
        <pt x="882" y="887" on="1"/>
        <pt x="966" y="1020" on="0"/>
        <pt x="966" y="1129" on="1"/>
        <pt x="966" y="1191" on="0"/>
        <pt x="934" y="1208" on="1"/>
        <pt x="847" y="1252" on="0"/>
        <pt x="847" y="1450" on="0"/>
        <pt x="929" y="1488" on="1"/>
        <pt x="954" y="1499" on="0"/>
        <pt x="986" y="1499" on="1"/>
        <pt x="1050" y="1499" on="0"/>
        <pt x="1132" y="1394" on="0"/>
        <pt x="1132" y="1320" on="1"/>
        <pt x="1132" y="1198" on="0"/>
        <pt x="1035" y="939" on="0"/>
        <pt x="999" y="885" on="1"/>
      </contour>
      <contour>
        <pt x="81" y="110" on="1"/>
        <pt x="176" y="110" on="0"/>
        <pt x="234" y="147" on="0"/>
        <pt x="250" y="189" on="0"/>
        <pt x="250" y="219" on="1"/>
        <pt x="249" y="1281" on="1"/>
        <pt x="249" y="1346" on="0"/>
        <pt x="226" y="1362" on="1"/>
        <pt x="187" y="1390" on="0"/>
        <pt x="81" y="1390" on="1"/>
        <pt x="81" y="1500" on="1"/>
        <pt x="644" y="1500" on="1"/>
        <pt x="644" y="1390" on="1"/>
        <pt x="549" y="1390" on="0"/>
        <pt x="491" y="1353" on="0"/>
        <pt x="475" y="1311" on="0"/>
        <pt x="475" y="1281" on="1"/>
        <pt x="475" y="116" on="1"/>
        <pt x="820" y="116" on="1"/>
        <pt x="980" y="116" on="0"/>
        <pt x="1040" y="291" on="1"/>
        <pt x="1080" y="404" on="1"/>
        <pt x="1218" y="403" on="1"/>
        <pt x="1149" y="0" on="1"/>
        <pt x="81" y="0" on="1"/>
      </contour>
    </TTGlyph>
    <TTGlyph name="Lcommaaccent" xMin="81" yMin="-547" xMax="1218" yMax="1500">
      <component glyphName=".ttfautohint" x="81" y="0" flags="0x0"/>
      <component glyphName="L" x="9" y="0" flags="0x1004"/>
      <component glyphName="commaaccent" x="284" y="0" flags="0x1004"/>
    </TTGlyph>
    <TTGlyph name="Ldot" xMin="81" yMin="0" xMax="1218" yMax="1500">
      <component glyphName=".ttfautohint" x="81" y="0" flags="0x0"/>
      <component glyphName="L" x="9" y="0" flags="0x1004"/>
      <component glyphName="period" x="649" y="684" flags="0x1004"/>
    </TTGlyph>
    <TTGlyph name="Lslash" xMin="49" yMin="0" xMax="1218" yMax="1500">
      <contour>
        <pt x="81" y="110" on="1"/>
        <pt x="176" y="110" on="0"/>
        <pt x="234" y="147" on="0"/>
        <pt x="250" y="189" on="0"/>
        <pt x="250" y="219" on="1"/>
        <pt x="249" y="413" on="1"/>
        <pt x="141" y="304" on="1"/>
        <pt x="49" y="375" on="1"/>
        <pt x="249" y="576" on="1"/>
        <pt x="249" y="1281" on="1"/>
        <pt x="249" y="1346" on="0"/>
        <pt x="226" y="1362" on="1"/>
        <pt x="187" y="1390" on="0"/>
        <pt x="81" y="1390" on="1"/>
        <pt x="81" y="1500" on="1"/>
        <pt x="644" y="1500" on="1"/>
        <pt x="644" y="1390" on="1"/>
        <pt x="549" y="1390" on="0"/>
        <pt x="491" y="1353" on="0"/>
        <pt x="475" y="1311" on="0"/>
        <pt x="475" y="1281" on="1"/>
        <pt x="475" y="802" on="1"/>
        <pt x="807" y="1135" on="1"/>
        <pt x="899" y="1064" on="1"/>
        <pt x="475" y="639" on="1"/>
        <pt x="475" y="116" on="1"/>
        <pt x="820" y="116" on="1"/>
        <pt x="980" y="116" on="0"/>
        <pt x="1040" y="291" on="1"/>
        <pt x="1080" y="404" on="1"/>
        <pt x="1218" y="403" on="1"/>
        <pt x="1149" y="0" on="1"/>
        <pt x="81" y="0" on="1"/>
      </contour>
    </TTGlyph>
    <TTGlyph name="M" xMin="82" yMin="0" xMax="1889" yMax="1500">
      <contour>
        <pt x="82" y="110" on="1"/>
        <pt x="176" y="110" on="0"/>
        <pt x="234" y="147" on="0"/>
        <pt x="250" y="189" on="0"/>
        <pt x="250" y="219" on="1"/>
        <pt x="250" y="1281" on="1"/>
        <pt x="250" y="1346" on="0"/>
        <pt x="228" y="1362" on="1"/>
        <pt x="188" y="1390" on="0"/>
        <pt x="82" y="1390" on="1"/>
        <pt x="82" y="1500" on="1"/>
        <pt x="554" y="1500" on="1"/>
        <pt x="997" y="343" on="1"/>
        <pt x="1422" y="1500" on="1"/>
        <pt x="1889" y="1500" on="1"/>
        <pt x="1889" y="1390" on="1"/>
        <pt x="1794" y="1390" on="0"/>
        <pt x="1736" y="1353" on="0"/>
        <pt x="1720" y="1311" on="0"/>
        <pt x="1720" y="1281" on="1"/>
        <pt x="1720" y="219" on="1"/>
        <pt x="1720" y="155" on="0"/>
        <pt x="1743" y="138" on="1"/>
        <pt x="1783" y="110" on="0"/>
        <pt x="1889" y="110" on="1"/>
        <pt x="1889" y="0" on="1"/>
        <pt x="1334" y="0" on="1"/>
        <pt x="1334" y="110" on="1"/>
        <pt x="1428" y="110" on="0"/>
        <pt x="1483" y="147" on="0"/>
        <pt x="1497" y="189" on="0"/>
        <pt x="1497" y="219" on="1"/>
        <pt x="1497" y="1286" on="1"/>
        <pt x="1033" y="0" on="1"/>
        <pt x="922" y="0" on="1"/>
        <pt x="410" y="1287" on="1"/>
        <pt x="410" y="219" on="1"/>
        <pt x="410" y="154" on="0"/>
        <pt x="432" y="138" on="1"/>
        <pt x="472" y="110" on="0"/>
        <pt x="578" y="110" on="1"/>
        <pt x="578" y="0" on="1"/>
        <pt x="82" y="0" on="1"/>
      </contour>
    </TTGlyph>
    <TTGlyph name="N" xMin="67" yMin="0" xMax="1603" yMax="1500">
      <contour>
        <pt x="67" y="112" on="1"/>
        <pt x="165" y="112" on="0"/>
        <pt x="223" y="150" on="0"/>
        <pt x="240" y="193" on="0"/>
        <pt x="240" y="223" on="1"/>
        <pt x="240" y="1277" on="1"/>
        <pt x="240" y="1342" on="0"/>
        <pt x="216" y="1359" on="1"/>
        <pt x="176" y="1388" on="0"/>
        <pt x="67" y="1388" on="1"/>
        <pt x="67" y="1500" on="1"/>
        <pt x="412" y="1500" on="1"/>
        <pt x="1270" y="411" on="1"/>
        <pt x="1270" y="1277" on="1"/>
        <pt x="1270" y="1343" on="0"/>
        <pt x="1247" y="1359" on="1"/>
        <pt x="1207" y="1388" on="0"/>
        <pt x="1099" y="1388" on="1"/>
        <pt x="1099" y="1500" on="1"/>
        <pt x="1603" y="1500" on="1"/>
        <pt x="1603" y="1388" on="1"/>
        <pt x="1505" y="1388" on="0"/>
        <pt x="1447" y="1350" on="0"/>
        <pt x="1430" y="1307" on="0"/>
        <pt x="1430" y="1277" on="1"/>
        <pt x="1430" y="0" on="1"/>
        <pt x="1307" y="0" on="1"/>
        <pt x="400" y="1151" on="1"/>
        <pt x="400" y="223" on="1"/>
        <pt x="400" y="158" on="0"/>
        <pt x="424" y="141" on="1"/>
        <pt x="464" y="112" on="0"/>
        <pt x="574" y="112" on="1"/>
        <pt x="574" y="0" on="1"/>
        <pt x="67" y="0" on="1"/>
      </contour>
    </TTGlyph>
    <TTGlyph name="Nacute" xMin="98" yMin="0" xMax="1634" yMax="2010">
      <component glyphName=".ttfautohint" x="98" y="0" flags="0x0"/>
      <component glyphName="N" x="31" y="0" flags="0x1004"/>
      <component glyphName="acute.cap" x="925" y="0" flags="0x1004"/>
    </TTGlyph>
    <TTGlyph name="Ncaron" xMin="98" yMin="0" xMax="1634" yMax="1972">
      <component glyphName=".ttfautohint" x="98" y="0" flags="0x0"/>
      <component glyphName="N" x="31" y="0" flags="0x1004"/>
      <component glyphName="caron.cap" x="876" y="0" flags="0x1004"/>
    </TTGlyph>
    <TTGlyph name="Ncommaaccent" xMin="98" yMin="-547" xMax="1634" yMax="1500">
      <component glyphName=".ttfautohint" x="98" y="0" flags="0x0"/>
      <component glyphName="N" x="31" y="0" flags="0x1004"/>
      <component glyphName="commaaccent" x="574" y="0" flags="0x1004"/>
    </TTGlyph>
    <TTGlyph name="Ntilde" xMin="98" yMin="0" xMax="1634" yMax="2002">
      <component glyphName=".ttfautohint" x="98" y="0" flags="0x0"/>
      <component glyphName="N" x="31" y="0" flags="0x1004"/>
      <component glyphName="tilde.cap" x="876" y="0" flags="0x1004"/>
    </TTGlyph>
    <TTGlyph name="O" xMin="78" yMin="-20" xMax="1492" yMax="1520">
      <contour>
        <pt x="78" y="750" on="1"/>
        <pt x="78" y="940" on="0"/>
        <pt x="194" y="1235" on="0"/>
        <pt x="292" y="1331" on="1"/>
        <pt x="485" y="1520" on="0"/>
        <pt x="1085" y="1520" on="0"/>
        <pt x="1278" y="1334" on="1"/>
        <pt x="1492" y="1129" on="0"/>
        <pt x="1492" y="381" on="0"/>
        <pt x="1099" y="-20" on="0"/>
        <pt x="785" y="-20" on="1"/>
        <pt x="472" y="-20" on="0"/>
        <pt x="78" y="386" on="0"/>
      </contour>
      <contour>
        <pt x="788" y="110" on="1"/>
        <pt x="963" y="110" on="0"/>
        <pt x="1082" y="240" on="1"/>
        <pt x="1232" y="404" on="0"/>
        <pt x="1232" y="1074" on="0"/>
        <pt x="976" y="1390" on="0"/>
        <pt x="782" y="1390" on="1"/>
        <pt x="589" y="1390" on="0"/>
        <pt x="338" y="1075" on="0"/>
        <pt x="338" y="760" on="1"/>
        <pt x="338" y="307" on="0"/>
        <pt x="586" y="163" on="1"/>
        <pt x="677" y="110" on="0"/>
      </contour>
    </TTGlyph>
    <TTGlyph name="OE" xMin="78" yMin="-20" xMax="2042" yMax="1520">
      <contour>
        <pt x="187" y="279" on="0"/>
        <pt x="78" y="565" on="0"/>
        <pt x="78" y="882" on="0"/>
        <pt x="132" y="1101" on="0"/>
        <pt x="180" y="1187" on="1"/>
        <pt x="273" y="1352" on="0"/>
        <pt x="600" y="1520" on="0"/>
        <pt x="793" y="1520" on="1"/>
        <pt x="885" y="1520" on="0"/>
        <pt x="977" y="1500" on="1"/>
        <pt x="1974" y="1500" on="1"/>
        <pt x="2013" y="1137" on="1"/>
        <pt x="1868" y="1136" on="1"/>
        <pt x="1841" y="1249" on="1"/>
        <pt x="1821" y="1330" on="0"/>
        <pt x="1800" y="1351" on="1"/>
        <pt x="1763" y="1388" on="0"/>
        <pt x="1675" y="1388" on="1"/>
        <pt x="1297" y="1388" on="1"/>
        <pt x="1297" y="806" on="1"/>
        <pt x="1487" y="806" on="1"/>
        <pt x="1541" y="806" on="0"/>
        <pt x="1605" y="810" on="0"/>
        <pt x="1646" y="843" on="0"/>
        <pt x="1646" y="945" on="1"/>
        <pt x="1796" y="945" on="1"/>
        <pt x="1796" y="558" on="1"/>
        <pt x="1646" y="558" on="1"/>
        <pt x="1646" y="655" on="0"/>
        <pt x="1605" y="690" on="0"/>
        <pt x="1541" y="696" on="0"/>
        <pt x="1487" y="696" on="1"/>
        <pt x="1297" y="696" on="1"/>
        <pt x="1297" y="110" on="1"/>
        <pt x="1714" y="110" on="1"/>
        <pt x="1837" y="110" on="0"/>
        <pt x="1864" y="182" on="1"/>
        <pt x="1873" y="206" on="0"/>
        <pt x="1880" y="238" on="1"/>
        <pt x="1907" y="361" on="1"/>
        <pt x="2042" y="361" on="1"/>
        <pt x="2003" y="0" on="1"/>
        <pt x="976" y="0" on="1"/>
        <pt x="887" y="-20" on="0"/>
        <pt x="640" y="-20" on="0"/>
        <pt x="379" y="82" on="0"/>
      </contour>
      <contour>
        <pt x="895" y="110" on="0"/>
        <pt x="1019" y="167" on="0"/>
        <pt x="1074" y="220" on="1"/>
        <pt x="1074" y="1289" on="1"/>
        <pt x="987" y="1390" on="0"/>
        <pt x="591" y="1390" on="0"/>
        <pt x="328" y="1073" on="0"/>
        <pt x="328" y="760" on="1"/>
        <pt x="328" y="307" on="0"/>
        <pt x="584" y="163" on="1"/>
        <pt x="678" y="110" on="0"/>
      </contour>
    </TTGlyph>
    <TTGlyph name="Oacute" xMin="82" yMin="-20" xMax="1496" yMax="2010">
      <component glyphName=".ttfautohint" x="82" y="0" flags="0x0"/>
      <component glyphName="O" x="4" y="0" flags="0x1004"/>
      <component glyphName="acute.cap" x="838" y="0" flags="0x1004"/>
    </TTGlyph>
    <TTGlyph name="Obreve" xMin="82" yMin="-20" xMax="1496" yMax="1981">
      <component glyphName=".ttfautohint" x="82" y="0" flags="0x0"/>
      <component glyphName="O" x="4" y="0" flags="0x1004"/>
      <component glyphName="breve.cap" x="789" y="0" flags="0x1004"/>
    </TTGlyph>
    <TTGlyph name="Ocircumflex" xMin="82" yMin="-20" xMax="1496" yMax="2000">
      <component glyphName=".ttfautohint" x="82" y="0" flags="0x0"/>
      <component glyphName="O" x="4" y="0" flags="0x1004"/>
      <component glyphName="circumflex.cap" x="789" y="0" flags="0x1004"/>
    </TTGlyph>
    <TTGlyph name="Odieresis" xMin="82" yMin="-20" xMax="1496" yMax="1957">
      <component glyphName=".ttfautohint" x="82" y="0" flags="0x0"/>
      <component glyphName="O" x="4" y="0" flags="0x1004"/>
      <component glyphName="dieresis.cap" x="789" y="0" flags="0x1004"/>
    </TTGlyph>
    <TTGlyph name="Ograve" xMin="82" yMin="-20" xMax="1496" yMax="2010">
      <component glyphName=".ttfautohint" x="82" y="0" flags="0x0"/>
      <component glyphName="O" x="4" y="0" flags="0x1004"/>
      <component glyphName="grave.cap" x="789" y="0" flags="0x1004"/>
    </TTGlyph>
    <TTGlyph name="Ohungarumlaut" xMin="82" yMin="-20" xMax="1496" yMax="2010">
      <component glyphName=".ttfautohint" x="82" y="0" flags="0x0"/>
      <component glyphName="O" x="4" y="0" flags="0x1004"/>
      <component glyphName="hungarumlaut.cap" x="789" y="0" flags="0x1004"/>
    </TTGlyph>
    <TTGlyph name="Omacron" xMin="82" yMin="-20" xMax="1496" yMax="1864">
      <component glyphName=".ttfautohint" x="82" y="0" flags="0x0"/>
      <component glyphName="O" x="4" y="0" flags="0x1004"/>
      <component glyphName="macron.cap" x="789" y="0" flags="0x1004"/>
    </TTGlyph>
    <TTGlyph name="Omega" xMin="132" yMin="0" xMax="1596" yMax="1525">
      <contour>
        <pt x="132" y="373" on="1"/>
        <pt x="217" y="374" on="1"/>
        <pt x="244" y="301" on="1"/>
        <pt x="257" y="266" on="0"/>
        <pt x="276" y="214" on="0"/>
        <pt x="292" y="196" on="1"/>
        <pt x="325" y="162" on="0"/>
        <pt x="410" y="162" on="1"/>
        <pt x="623" y="162" on="1"/>
        <pt x="351" y="342" on="0"/>
        <pt x="227" y="586" on="1"/>
        <pt x="152" y="734" on="0"/>
        <pt x="152" y="874" on="1"/>
        <pt x="152" y="1158" on="0"/>
        <pt x="530" y="1525" on="0"/>
        <pt x="864" y="1525" on="1"/>
        <pt x="1198" y="1525" on="0"/>
        <pt x="1576" y="1158" on="0"/>
        <pt x="1576" y="602" on="0"/>
        <pt x="1322" y="340" on="1"/>
        <pt x="1226" y="242" on="0"/>
        <pt x="1105" y="162" on="1"/>
        <pt x="1318" y="162" on="1"/>
        <pt x="1403" y="162" on="0"/>
        <pt x="1436" y="196" on="1"/>
        <pt x="1452" y="214" on="0"/>
        <pt x="1471" y="266" on="0"/>
        <pt x="1484" y="301" on="1"/>
        <pt x="1511" y="374" on="1"/>
        <pt x="1596" y="373" on="1"/>
        <pt x="1547" y="0" on="1"/>
        <pt x="919" y="2" on="1"/>
        <pt x="919" y="142" on="1"/>
        <pt x="1141" y="353" on="0"/>
        <pt x="1328" y="666" on="0"/>
        <pt x="1328" y="1095" on="0"/>
        <pt x="1072" y="1417" on="0"/>
        <pt x="864" y="1417" on="1"/>
        <pt x="656" y="1417" on="0"/>
        <pt x="400" y="1095" on="0"/>
        <pt x="400" y="666" on="0"/>
        <pt x="587" y="353" on="0"/>
        <pt x="809" y="142" on="1"/>
        <pt x="809" y="2" on="1"/>
        <pt x="181" y="0" on="1"/>
      </contour>
    </TTGlyph>
    <TTGlyph name="Oslash" xMin="82" yMin="-103" xMax="1496" yMax="1621">
      <contour>
        <pt x="1213" y="1392" on="1"/>
        <pt x="1496" y="1190" on="0"/>
        <pt x="1496" y="739" on="1"/>
        <pt x="1496" y="381" on="0"/>
        <pt x="1103" y="-20" on="0"/>
        <pt x="789" y="-20" on="1"/>
        <pt x="584" y="-20" on="0"/>
        <pt x="427" y="69" on="1"/>
        <pt x="325" y="-103" on="1"/>
        <pt x="221" y="-33" on="1"/>
        <pt x="324" y="141" on="1"/>
        <pt x="82" y="347" on="0"/>
        <pt x="82" y="1121" on="0"/>
        <pt x="296" y="1331" on="1"/>
        <pt x="489" y="1520" on="0"/>
        <pt x="789" y="1520" on="1"/>
        <pt x="962" y="1520" on="0"/>
        <pt x="1104" y="1455" on="1"/>
        <pt x="1203" y="1621" on="1"/>
        <pt x="1307" y="1551" on="1"/>
      </contour>
      <contour>
        <pt x="1022" y="1316" on="1"/>
        <pt x="919" y="1390" on="0"/>
        <pt x="786" y="1390" on="1"/>
        <pt x="593" y="1390" on="0"/>
        <pt x="342" y="1075" on="0"/>
        <pt x="342" y="490" on="0"/>
        <pt x="434" y="326" on="1"/>
      </contour>
      <contour>
        <pt x="516" y="218" on="1"/>
        <pt x="631" y="110" on="0"/>
        <pt x="967" y="110" on="0"/>
        <pt x="1086" y="240" on="1"/>
        <pt x="1236" y="404" on="0"/>
        <pt x="1236" y="760" on="1"/>
        <pt x="1236" y="1059" on="0"/>
        <pt x="1113" y="1225" on="1"/>
      </contour>
    </TTGlyph>
    <TTGlyph name="Otilde" xMin="82" yMin="-20" xMax="1496" yMax="2002">
      <component glyphName=".ttfautohint" x="82" y="0" flags="0x0"/>
      <component glyphName="O" x="4" y="0" flags="0x1004"/>
      <component glyphName="tilde.cap" x="789" y="0" flags="0x1004"/>
    </TTGlyph>
    <TTGlyph name="P" xMin="72" yMin="0" xMax="1201" yMax="1500">
      <contour>
        <pt x="73" y="110" on="1"/>
        <pt x="178" y="110" on="0"/>
        <pt x="230" y="147" on="0"/>
        <pt x="240" y="189" on="0"/>
        <pt x="240" y="219" on="1"/>
        <pt x="240" y="1281" on="1"/>
        <pt x="240" y="1346" on="0"/>
        <pt x="218" y="1362" on="1"/>
        <pt x="178" y="1390" on="0"/>
        <pt x="72" y="1390" on="1"/>
        <pt x="72" y="1500" on="1"/>
        <pt x="619" y="1500" on="1"/>
        <pt x="1029" y="1500" on="0"/>
        <pt x="1152" y="1272" on="1"/>
        <pt x="1201" y="1182" on="0"/>
        <pt x="1201" y="927" on="0"/>
        <pt x="1150" y="834" on="1"/>
        <pt x="1011" y="584" on="0"/>
        <pt x="596" y="584" on="1"/>
        <pt x="577" y="584" on="0"/>
        <pt x="558" y="585" on="1"/>
        <pt x="465" y="585" on="1"/>
        <pt x="465" y="269" on="1"/>
        <pt x="465" y="218" on="0"/>
        <pt x="476" y="156" on="0"/>
        <pt x="544" y="110" on="0"/>
        <pt x="720" y="110" on="1"/>
        <pt x="720" y="0" on="1"/>
        <pt x="73" y="0" on="1"/>
      </contour>
      <contour>
        <pt x="576" y="685" on="1"/>
        <pt x="762" y="685" on="0"/>
        <pt x="960" y="870" on="0"/>
        <pt x="960" y="1057" on="1"/>
        <pt x="960" y="1285" on="0"/>
        <pt x="770" y="1362" on="1"/>
        <pt x="702" y="1390" on="0"/>
        <pt x="605" y="1390" on="1"/>
        <pt x="465" y="1390" on="1"/>
        <pt x="465" y="685" on="1"/>
      </contour>
    </TTGlyph>
    <TTGlyph name="Q" xMin="78" yMin="-343" xMax="1531" yMax="1520">
      <contour>
        <pt x="935" y="-6" on="1"/>
        <pt x="863" y="-20" on="0"/>
        <pt x="785" y="-20" on="1"/>
        <pt x="471" y="-20" on="0"/>
        <pt x="78" y="385" on="0"/>
        <pt x="78" y="1125" on="0"/>
        <pt x="292" y="1334" on="1"/>
        <pt x="483" y="1520" on="0"/>
        <pt x="1083" y="1520" on="0"/>
        <pt x="1278" y="1336" on="1"/>
        <pt x="1492" y="1133" on="0"/>
        <pt x="1492" y="381" on="0"/>
        <pt x="1284" y="174" on="1"/>
        <pt x="1219" y="108" on="0"/>
        <pt x="1138" y="64" on="1"/>
        <pt x="1185" y="-126" on="0"/>
        <pt x="1244" y="-178" on="1"/>
        <pt x="1268" y="-199" on="0"/>
        <pt x="1300" y="-199" on="1"/>
        <pt x="1360" y="-199" on="0"/>
        <pt x="1424" y="-102" on="0"/>
        <pt x="1424" y="-39" on="1"/>
        <pt x="1522" y="-39" on="1"/>
        <pt x="1531" y="-67" on="0"/>
        <pt x="1531" y="-133" on="0"/>
        <pt x="1522" y="-165" on="1"/>
        <pt x="1502" y="-240" on="0"/>
        <pt x="1381" y="-343" on="0"/>
        <pt x="1290" y="-343" on="1"/>
        <pt x="1134" y="-343" on="0"/>
        <pt x="1048" y="-238" on="1"/>
        <pt x="987" y="-164" on="0"/>
      </contour>
      <contour>
        <pt x="1084" y="248" on="1"/>
        <pt x="1232" y="424" on="0"/>
        <pt x="1232" y="1084" on="0"/>
        <pt x="978" y="1390" on="0"/>
        <pt x="785" y="1390" on="1"/>
        <pt x="592" y="1390" on="0"/>
        <pt x="338" y="1074" on="0"/>
        <pt x="338" y="760" on="1"/>
        <pt x="338" y="390" on="0"/>
        <pt x="507" y="221" on="1"/>
        <pt x="523" y="327" on="0"/>
        <pt x="667" y="498" on="0"/>
        <pt x="783" y="498" on="1"/>
        <pt x="950" y="498" on="0"/>
        <pt x="1038" y="344" on="1"/>
        <pt x="1064" y="299" on="0"/>
      </contour>
      <contour>
        <pt x="612" y="148" on="1"/>
        <pt x="754" y="80" on="0"/>
        <pt x="909" y="129" on="1"/>
        <pt x="861" y="360" on="0"/>
        <pt x="748" y="360" on="1"/>
        <pt x="686" y="360" on="0"/>
        <pt x="616" y="247" on="0"/>
      </contour>
    </TTGlyph>
    <TTGlyph name="R" xMin="72" yMin="-20" xMax="1471" yMax="1500">
      <contour>
        <pt x="1286" y="124" on="1"/>
        <pt x="1364" y="124" on="0"/>
        <pt x="1364" y="304" on="1"/>
        <pt x="1460" y="304" on="1"/>
        <pt x="1471" y="268" on="0"/>
        <pt x="1471" y="214" on="0"/>
        <pt x="1469" y="151" on="0"/>
        <pt x="1446" y="100" on="1"/>
        <pt x="1391" y="-20" on="0"/>
        <pt x="1089" y="-20" on="0"/>
        <pt x="966" y="132" on="0"/>
        <pt x="914" y="289" on="0"/>
        <pt x="898" y="348" on="1"/>
        <pt x="852" y="509" on="0"/>
        <pt x="824" y="558" on="1"/>
        <pt x="773" y="652" on="0"/>
        <pt x="685" y="652" on="1"/>
        <pt x="465" y="652" on="1"/>
        <pt x="465" y="269" on="1"/>
        <pt x="465" y="218" on="0"/>
        <pt x="475" y="156" on="0"/>
        <pt x="536" y="110" on="0"/>
        <pt x="692" y="110" on="1"/>
        <pt x="692" y="0" on="1"/>
        <pt x="73" y="0" on="1"/>
        <pt x="73" y="110" on="1"/>
        <pt x="178" y="110" on="0"/>
        <pt x="230" y="147" on="0"/>
        <pt x="240" y="189" on="0"/>
        <pt x="240" y="219" on="1"/>
        <pt x="240" y="1281" on="1"/>
        <pt x="240" y="1346" on="0"/>
        <pt x="218" y="1362" on="1"/>
        <pt x="178" y="1390" on="0"/>
        <pt x="72" y="1390" on="1"/>
        <pt x="72" y="1500" on="1"/>
        <pt x="686" y="1500" on="1"/>
        <pt x="1178" y="1500" on="0"/>
        <pt x="1233" y="1196" on="1"/>
        <pt x="1242" y="1146" on="0"/>
        <pt x="1242" y="1079" on="1"/>
        <pt x="1242" y="935" on="0"/>
        <pt x="1061" y="732" on="0"/>
        <pt x="905" y="687" on="1"/>
        <pt x="1040" y="646" on="0"/>
        <pt x="1106" y="471" on="1"/>
        <pt x="1128" y="414" on="0"/>
        <pt x="1180" y="234" on="0"/>
        <pt x="1196" y="200" on="1"/>
        <pt x="1231" y="124" on="0"/>
      </contour>
      <contour>
        <pt x="688" y="752" on="1"/>
        <pt x="859" y="752" on="0"/>
        <pt x="1001" y="917" on="0"/>
        <pt x="1001" y="1228" on="0"/>
        <pt x="835" y="1390" on="0"/>
        <pt x="627" y="1390" on="1"/>
        <pt x="465" y="1390" on="1"/>
        <pt x="465" y="752" on="1"/>
      </contour>
    </TTGlyph>
    <TTGlyph name="Racute" xMin="82" yMin="-20" xMax="1481" yMax="2010">
      <component glyphName=".ttfautohint" x="82" y="0" flags="0x0"/>
      <component glyphName="R" x="10" y="0" flags="0x1004"/>
      <component glyphName="acute.cap" x="718" y="0" flags="0x1004"/>
    </TTGlyph>
    <TTGlyph name="Rcaron" xMin="82" yMin="-20" xMax="1481" yMax="1972">
      <component glyphName=".ttfautohint" x="82" y="0" flags="0x0"/>
      <component glyphName="R" x="10" y="0" flags="0x1004"/>
      <component glyphName="caron.cap" x="669" y="0" flags="0x1004"/>
    </TTGlyph>
    <TTGlyph name="Rcommaaccent" xMin="82" yMin="-547" xMax="1481" yMax="1500">
      <component glyphName=".ttfautohint" x="82" y="0" flags="0x0"/>
      <component glyphName="R" x="10" y="0" flags="0x1004"/>
      <component glyphName="commaaccent" x="475" y="0" flags="0x1004"/>
    </TTGlyph>
    <TTGlyph name="S" xMin="104" yMin="-20" xMax="1093" yMax="1520">
      <contour>
        <pt x="840" y="1330" on="1"/>
        <pt x="788" y="1400" on="0"/>
        <pt x="447" y="1400" on="0"/>
        <pt x="382" y="1286" on="1"/>
        <pt x="360" y="1247" on="0"/>
        <pt x="360" y="1190" on="1"/>
        <pt x="360" y="1085" on="0"/>
        <pt x="454" y="998" on="1"/>
        <pt x="516" y="940" on="0"/>
        <pt x="735" y="818" on="0"/>
        <pt x="810" y="770" on="1"/>
        <pt x="1093" y="590" on="0"/>
        <pt x="1093" y="376" on="1"/>
        <pt x="1093" y="186" on="0"/>
        <pt x="814" y="-20" on="0"/>
        <pt x="371" y="-20" on="0"/>
        <pt x="104" y="155" on="0"/>
        <pt x="104" y="382" on="0"/>
        <pt x="195" y="422" on="1"/>
        <pt x="223" y="435" on="0"/>
        <pt x="256" y="435" on="1"/>
        <pt x="319" y="435" on="0"/>
        <pt x="400" y="351" on="0"/>
        <pt x="400" y="223" on="0"/>
        <pt x="342" y="178" on="1"/>
        <pt x="420" y="100" on="0"/>
        <pt x="781" y="100" on="0"/>
        <pt x="848" y="222" on="1"/>
        <pt x="872" y="264" on="0"/>
        <pt x="872" y="320" on="1"/>
        <pt x="872" y="417" on="0"/>
        <pt x="772" y="500" on="1"/>
        <pt x="720" y="543" on="0"/>
        <pt x="473" y="680" on="0"/>
        <pt x="402" y="726" on="1"/>
        <pt x="141" y="894" on="0"/>
        <pt x="141" y="1122" on="1"/>
        <pt x="141" y="1300" on="0"/>
        <pt x="410" y="1520" on="0"/>
        <pt x="807" y="1520" on="0"/>
        <pt x="1062" y="1350" on="0"/>
        <pt x="1062" y="1228" on="1"/>
        <pt x="1062" y="1162" on="0"/>
        <pt x="981" y="1073" on="0"/>
        <pt x="919" y="1073" on="1"/>
        <pt x="824" y="1073" on="0"/>
        <pt x="787" y="1156" on="1"/>
        <pt x="776" y="1181" on="0"/>
        <pt x="776" y="1209" on="1"/>
        <pt x="776" y="1286" on="0"/>
      </contour>
    </TTGlyph>
    <TTGlyph name="Sacute" xMin="149" yMin="-20" xMax="1138" yMax="2010">
      <component glyphName=".ttfautohint" x="149" y="0" flags="0x0"/>
      <component glyphName="S" x="45" y="0" flags="0x1004"/>
      <component glyphName="acute.cap" x="718" y="0" flags="0x1004"/>
    </TTGlyph>
    <TTGlyph name="Scaron" xMin="149" yMin="-20" xMax="1138" yMax="1972">
      <component glyphName=".ttfautohint" x="149" y="0" flags="0x0"/>
      <component glyphName="S" x="45" y="0" flags="0x1004"/>
      <component glyphName="caron.cap" x="669" y="0" flags="0x1004"/>
    </TTGlyph>
    <TTGlyph name="Scedilla" xMin="149" yMin="-419" xMax="1138" yMax="1520">
      <contour>
        <pt x="654" y="-19" on="1"/>
        <pt x="636" y="-20" on="1"/>
        <pt x="416" y="-20" on="0"/>
        <pt x="149" y="155" on="0"/>
        <pt x="149" y="382" on="0"/>
        <pt x="240" y="422" on="1"/>
        <pt x="268" y="435" on="0"/>
        <pt x="300" y="435" on="1"/>
        <pt x="364" y="435" on="0"/>
        <pt x="445" y="351" on="0"/>
        <pt x="445" y="223" on="0"/>
        <pt x="387" y="178" on="1"/>
        <pt x="465" y="100" on="0"/>
        <pt x="826" y="100" on="0"/>
        <pt x="894" y="222" on="1"/>
        <pt x="917" y="264" on="0"/>
        <pt x="917" y="320" on="1"/>
        <pt x="917" y="417" on="0"/>
        <pt x="818" y="500" on="1"/>
        <pt x="765" y="543" on="0"/>
        <pt x="518" y="680" on="0"/>
        <pt x="446" y="726" on="1"/>
        <pt x="186" y="894" on="0"/>
        <pt x="186" y="1122" on="1"/>
        <pt x="186" y="1300" on="0"/>
        <pt x="455" y="1520" on="0"/>
        <pt x="852" y="1520" on="0"/>
        <pt x="1107" y="1350" on="0"/>
        <pt x="1107" y="1228" on="1"/>
        <pt x="1107" y="1162" on="0"/>
        <pt x="1026" y="1073" on="0"/>
        <pt x="964" y="1073" on="1"/>
        <pt x="869" y="1073" on="0"/>
        <pt x="832" y="1156" on="1"/>
        <pt x="821" y="1181" on="0"/>
        <pt x="821" y="1209" on="1"/>
        <pt x="821" y="1286" on="0"/>
        <pt x="885" y="1330" on="1"/>
        <pt x="832" y="1400" on="0"/>
        <pt x="492" y="1400" on="0"/>
        <pt x="428" y="1286" on="1"/>
        <pt x="405" y="1247" on="0"/>
        <pt x="405" y="1190" on="1"/>
        <pt x="405" y="1085" on="0"/>
        <pt x="500" y="998" on="1"/>
        <pt x="561" y="940" on="0"/>
        <pt x="780" y="818" on="0"/>
        <pt x="856" y="770" on="1"/>
        <pt x="1138" y="590" on="0"/>
        <pt x="1138" y="376" on="1"/>
        <pt x="1138" y="134" on="0"/>
        <pt x="916" y="34" on="1"/>
        <pt x="848" y="3" on="0"/>
        <pt x="765" y="-10" on="1"/>
        <pt x="780" y="-98" on="0"/>
        <pt x="780" y="-248" on="0"/>
        <pt x="754" y="-302" on="1"/>
        <pt x="698" y="-419" on="0"/>
        <pt x="521" y="-419" on="1"/>
        <pt x="463" y="-419" on="0"/>
        <pt x="367" y="-387" on="0"/>
        <pt x="356" y="-379" on="1"/>
        <pt x="363" y="-273" on="1"/>
        <pt x="413" y="-288" on="0"/>
        <pt x="439" y="-288" on="1"/>
        <pt x="519" y="-288" on="0"/>
        <pt x="561" y="-258" on="1"/>
        <pt x="650" y="-194" on="0"/>
      </contour>
    </TTGlyph>
    <TTGlyph name="Scircumflex" xMin="149" yMin="-20" xMax="1138" yMax="2000">
      <component glyphName=".ttfautohint" x="149" y="0" flags="0x0"/>
      <component glyphName="S" x="45" y="0" flags="0x1004"/>
      <component glyphName="circumflex.cap" x="669" y="0" flags="0x1004"/>
    </TTGlyph>
    <TTGlyph name="Scommaaccent" xMin="149" yMin="-547" xMax="1138" yMax="1520">
      <component glyphName=".ttfautohint" x="149" y="0" flags="0x0"/>
      <component glyphName="S" x="45" y="0" flags="0x1004"/>
      <component glyphName="commaaccent" x="278" y="0" flags="0x1004"/>
    </TTGlyph>
    <TTGlyph name="T" xMin="8" yMin="0" xMax="1369" yMax="1500">
      <contour>
        <pt x="367" y="110" on="1"/>
        <pt x="480" y="110" on="0"/>
        <pt x="554" y="147" on="0"/>
        <pt x="576" y="189" on="0"/>
        <pt x="576" y="219" on="1"/>
        <pt x="576" y="1384" on="1"/>
        <pt x="371" y="1384" on="1"/>
        <pt x="206" y="1384" on="0"/>
        <pt x="182" y="1209" on="1"/>
        <pt x="153" y="1006" on="1"/>
        <pt x="8" y="1007" on="1"/>
        <pt x="52" y="1500" on="1"/>
        <pt x="1325" y="1500" on="1"/>
        <pt x="1369" y="1007" on="1"/>
        <pt x="1224" y="1006" on="1"/>
        <pt x="1195" y="1209" on="1"/>
        <pt x="1184" y="1290" on="0"/>
        <pt x="1152" y="1324" on="1"/>
        <pt x="1094" y="1384" on="0"/>
        <pt x="1006" y="1384" on="1"/>
        <pt x="801" y="1384" on="1"/>
        <pt x="801" y="219" on="1"/>
        <pt x="801" y="156" on="0"/>
        <pt x="884" y="110" on="0"/>
        <pt x="1010" y="110" on="1"/>
        <pt x="1010" y="0" on="1"/>
        <pt x="367" y="0" on="1"/>
      </contour>
    </TTGlyph>
    <TTGlyph name="Tbar" xMin="9" yMin="0" xMax="1370" yMax="1500">
      <contour>
        <pt x="368" y="110" on="1"/>
        <pt x="481" y="110" on="0"/>
        <pt x="555" y="147" on="0"/>
        <pt x="577" y="189" on="0"/>
        <pt x="577" y="219" on="1"/>
        <pt x="577" y="683" on="1"/>
        <pt x="200" y="683" on="1"/>
        <pt x="200" y="813" on="1"/>
        <pt x="577" y="813" on="1"/>
        <pt x="577" y="1384" on="1"/>
        <pt x="372" y="1384" on="1"/>
        <pt x="207" y="1384" on="0"/>
        <pt x="183" y="1209" on="1"/>
        <pt x="154" y="1006" on="1"/>
        <pt x="9" y="1007" on="1"/>
        <pt x="53" y="1500" on="1"/>
        <pt x="1326" y="1500" on="1"/>
        <pt x="1370" y="1007" on="1"/>
        <pt x="1225" y="1006" on="1"/>
        <pt x="1196" y="1209" on="1"/>
        <pt x="1185" y="1290" on="0"/>
        <pt x="1153" y="1324" on="1"/>
        <pt x="1095" y="1384" on="0"/>
        <pt x="1007" y="1384" on="1"/>
        <pt x="802" y="1384" on="1"/>
        <pt x="802" y="813" on="1"/>
        <pt x="1183" y="813" on="1"/>
        <pt x="1183" y="683" on="1"/>
        <pt x="802" y="683" on="1"/>
        <pt x="802" y="219" on="1"/>
        <pt x="802" y="156" on="0"/>
        <pt x="885" y="110" on="0"/>
        <pt x="1011" y="110" on="1"/>
        <pt x="1011" y="0" on="1"/>
        <pt x="368" y="0" on="1"/>
      </contour>
    </TTGlyph>
    <TTGlyph name="Tcaron" xMin="9" yMin="0" xMax="1370" yMax="1972">
      <component glyphName=".ttfautohint" x="9" y="0" flags="0x0"/>
      <component glyphName="T" x="1" y="0" flags="0x1004"/>
      <component glyphName="caron.cap" x="697" y="0" flags="0x1004"/>
    </TTGlyph>
    <TTGlyph name="Tcommaaccent" xMin="9" yMin="-547" xMax="1370" yMax="1500">
      <component glyphName=".ttfautohint" x="9" y="0" flags="0x0"/>
      <component glyphName="T" x="1" y="0" flags="0x1004"/>
      <component glyphName="commaaccent" x="333" y="0" flags="0x1004"/>
    </TTGlyph>
    <TTGlyph name="Thorn" xMin="53" yMin="0" xMax="1181" yMax="1500">
      <contour>
        <pt x="1181" y="760" on="1"/>
        <pt x="1181" y="313" on="0"/>
        <pt x="540" y="313" on="1"/>
        <pt x="511" y="313" on="0"/>
        <pt x="481" y="314" on="1"/>
        <pt x="446" y="314" on="1"/>
        <pt x="446" y="259" on="1"/>
        <pt x="446" y="215" on="0"/>
        <pt x="453" y="157" on="0"/>
        <pt x="470" y="140" on="1"/>
        <pt x="500" y="110" on="0"/>
        <pt x="626" y="110" on="1"/>
        <pt x="626" y="0" on="1"/>
        <pt x="53" y="0" on="1"/>
        <pt x="53" y="110" on="1"/>
        <pt x="158" y="110" on="0"/>
        <pt x="210" y="147" on="0"/>
        <pt x="220" y="189" on="0"/>
        <pt x="220" y="219" on="1"/>
        <pt x="220" y="1281" on="1"/>
        <pt x="220" y="1346" on="0"/>
        <pt x="198" y="1362" on="1"/>
        <pt x="158" y="1390" on="0"/>
        <pt x="53" y="1390" on="1"/>
        <pt x="53" y="1500" on="1"/>
        <pt x="626" y="1500" on="1"/>
        <pt x="626" y="1390" on="1"/>
        <pt x="498" y="1390" on="0"/>
        <pt x="453" y="1350" on="0"/>
        <pt x="446" y="1295" on="0"/>
        <pt x="446" y="1251" on="1"/>
        <pt x="446" y="1214" on="1"/>
        <pt x="589" y="1214" on="1"/>
        <pt x="1033" y="1214" on="0"/>
        <pt x="1142" y="971" on="1"/>
        <pt x="1181" y="885" on="0"/>
      </contour>
      <contour>
        <pt x="525" y="416" on="1"/>
        <pt x="940" y="416" on="0"/>
        <pt x="940" y="740" on="1"/>
        <pt x="940" y="1103" on="0"/>
        <pt x="571" y="1103" on="1"/>
        <pt x="446" y="1103" on="1"/>
        <pt x="446" y="416" on="1"/>
      </contour>
    </TTGlyph>
    <TTGlyph name="U" xMin="52" yMin="-20" xMax="1552" yMax="1500">
      <contour>
        <pt x="815" y="126" on="1"/>
        <pt x="1212" y="126" on="0"/>
        <pt x="1212" y="619" on="1"/>
        <pt x="1212" y="1281" on="1"/>
        <pt x="1212" y="1346" on="0"/>
        <pt x="1190" y="1362" on="1"/>
        <pt x="1150" y="1390" on="0"/>
        <pt x="1044" y="1390" on="1"/>
        <pt x="1044" y="1500" on="1"/>
        <pt x="1552" y="1500" on="1"/>
        <pt x="1552" y="1390" on="1"/>
        <pt x="1457" y="1390" on="0"/>
        <pt x="1399" y="1353" on="0"/>
        <pt x="1383" y="1311" on="0"/>
        <pt x="1383" y="1281" on="1"/>
        <pt x="1384" y="630" on="1"/>
        <pt x="1384" y="139" on="0"/>
        <pt x="1036" y="18" on="1"/>
        <pt x="925" y="-20" on="0"/>
        <pt x="719" y="-20" on="0"/>
        <pt x="580" y="9" on="0"/>
        <pt x="516" y="41" on="1"/>
        <pt x="376" y="111" on="0"/>
        <pt x="210" y="395" on="0"/>
        <pt x="210" y="620" on="1"/>
        <pt x="210" y="1281" on="1"/>
        <pt x="210" y="1345" on="0"/>
        <pt x="188" y="1362" on="1"/>
        <pt x="151" y="1390" on="0"/>
        <pt x="52" y="1390" on="1"/>
        <pt x="52" y="1500" on="1"/>
        <pt x="612" y="1500" on="1"/>
        <pt x="612" y="1390" on="1"/>
        <pt x="511" y="1390" on="0"/>
        <pt x="450" y="1353" on="0"/>
        <pt x="433" y="1311" on="0"/>
        <pt x="433" y="1281" on="1"/>
        <pt x="433" y="599" on="1"/>
        <pt x="433" y="358" on="0"/>
        <pt x="651" y="126" on="0"/>
      </contour>
    </TTGlyph>
    <TTGlyph name="Uacute" xMin="63" yMin="-20" xMax="1563" yMax="2010">
      <component glyphName=".ttfautohint" x="63" y="0" flags="0x0"/>
      <component glyphName="U" x="11" y="0" flags="0x1004"/>
      <component glyphName="acute.cap" x="906" y="0" flags="0x1004"/>
    </TTGlyph>
    <TTGlyph name="Ubreve" xMin="63" yMin="-20" xMax="1563" yMax="1981">
      <component glyphName=".ttfautohint" x="63" y="0" flags="0x0"/>
      <component glyphName="U" x="11" y="0" flags="0x1004"/>
      <component glyphName="breve.cap" x="857" y="0" flags="0x1004"/>
    </TTGlyph>
    <TTGlyph name="Ucircumflex" xMin="63" yMin="-20" xMax="1563" yMax="2000">
      <component glyphName=".ttfautohint" x="63" y="0" flags="0x0"/>
      <component glyphName="U" x="11" y="0" flags="0x1004"/>
      <component glyphName="circumflex.cap" x="857" y="0" flags="0x1004"/>
    </TTGlyph>
    <TTGlyph name="Udieresis" xMin="63" yMin="-20" xMax="1563" yMax="1957">
      <component glyphName=".ttfautohint" x="63" y="0" flags="0x0"/>
      <component glyphName="U" x="11" y="0" flags="0x1004"/>
      <component glyphName="dieresis.cap" x="857" y="0" flags="0x1004"/>
    </TTGlyph>
    <TTGlyph name="Ugrave" xMin="63" yMin="-20" xMax="1563" yMax="2010">
      <component glyphName=".ttfautohint" x="63" y="0" flags="0x0"/>
      <component glyphName="U" x="11" y="0" flags="0x1004"/>
      <component glyphName="grave.cap" x="857" y="0" flags="0x1004"/>
    </TTGlyph>
    <TTGlyph name="Uhungarumlaut" xMin="63" yMin="-20" xMax="1563" yMax="2010">
      <component glyphName=".ttfautohint" x="63" y="0" flags="0x0"/>
      <component glyphName="U" x="11" y="0" flags="0x1004"/>
      <component glyphName="hungarumlaut.cap" x="857" y="0" flags="0x1004"/>
    </TTGlyph>
    <TTGlyph name="Umacron" xMin="63" yMin="-20" xMax="1563" yMax="1864">
      <component glyphName=".ttfautohint" x="63" y="0" flags="0x0"/>
      <component glyphName="U" x="11" y="0" flags="0x1004"/>
      <component glyphName="macron.cap" x="857" y="0" flags="0x1004"/>
    </TTGlyph>
    <TTGlyph name="Uogonek" xMin="53" yMin="-510" xMax="1589" yMax="1500">
      <contour>
        <pt x="968" y="-33" on="1"/>
        <pt x="810" y="-134" on="0"/>
        <pt x="810" y="-265" on="1"/>
        <pt x="810" y="-356" on="0"/>
        <pt x="918" y="-356" on="1"/>
        <pt x="957" y="-356" on="0"/>
        <pt x="1019" y="-284" on="0"/>
        <pt x="1019" y="-219" on="1"/>
        <pt x="1109" y="-219" on="1"/>
        <pt x="1109" y="-226" on="0"/>
        <pt x="1109" y="-299" on="0"/>
        <pt x="1091" y="-351" on="1"/>
        <pt x="1036" y="-510" on="0"/>
        <pt x="859" y="-510" on="1"/>
        <pt x="759" y="-510" on="0"/>
        <pt x="630" y="-397" on="0"/>
        <pt x="630" y="-297" on="1"/>
        <pt x="630" y="-145" on="0"/>
        <pt x="809" y="-20" on="1"/>
        <pt x="553" y="-17" on="0"/>
        <pt x="398" y="125" on="1"/>
        <pt x="221" y="288" on="0"/>
        <pt x="221" y="620" on="1"/>
        <pt x="221" y="1281" on="1"/>
        <pt x="221" y="1346" on="0"/>
        <pt x="198" y="1362" on="1"/>
        <pt x="159" y="1390" on="0"/>
        <pt x="53" y="1390" on="1"/>
        <pt x="53" y="1500" on="1"/>
        <pt x="631" y="1500" on="1"/>
        <pt x="631" y="1390" on="1"/>
        <pt x="536" y="1390" on="0"/>
        <pt x="478" y="1353" on="0"/>
        <pt x="462" y="1311" on="0"/>
        <pt x="462" y="1281" on="1"/>
        <pt x="463" y="599" on="1"/>
        <pt x="463" y="357" on="0"/>
        <pt x="686" y="126" on="0"/>
        <pt x="858" y="126" on="1"/>
        <pt x="1152" y="126" on="0"/>
        <pt x="1226" y="402" on="1"/>
        <pt x="1249" y="489" on="0"/>
        <pt x="1249" y="599" on="1"/>
        <pt x="1249" y="1281" on="1"/>
        <pt x="1249" y="1346" on="0"/>
        <pt x="1226" y="1362" on="1"/>
        <pt x="1187" y="1390" on="0"/>
        <pt x="1081" y="1390" on="1"/>
        <pt x="1081" y="1500" on="1"/>
        <pt x="1589" y="1500" on="1"/>
        <pt x="1589" y="1390" on="1"/>
        <pt x="1494" y="1390" on="0"/>
        <pt x="1436" y="1353" on="0"/>
        <pt x="1420" y="1311" on="0"/>
        <pt x="1420" y="1281" on="1"/>
        <pt x="1421" y="620" on="1"/>
        <pt x="1421" y="267" on="0"/>
        <pt x="1191" y="99" on="1"/>
        <pt x="1124" y="50" on="0"/>
        <pt x="1011" y="-6" on="0"/>
      </contour>
    </TTGlyph>
    <TTGlyph name="Uring" xMin="63" yMin="-20" xMax="1563" yMax="2006">
      <component glyphName=".ttfautohint" x="63" y="0" flags="0x0"/>
      <component glyphName="U" x="11" y="0" flags="0x1004"/>
      <component glyphName="ring.cap" x="843" y="56" flags="0x1004"/>
    </TTGlyph>
    <TTGlyph name="Utilde" xMin="63" yMin="-20" xMax="1563" yMax="2002">
      <component glyphName=".ttfautohint" x="63" y="0" flags="0x0"/>
      <component glyphName="U" x="11" y="0" flags="0x1004"/>
      <component glyphName="tilde.cap" x="857" y="0" flags="0x1004"/>
    </TTGlyph>
    <TTGlyph name="V" xMin="-45" yMin="0" xMax="1530" yMax="1500">
      <contour>
        <pt x="144" y="1281" on="1"/>
        <pt x="117" y="1345" on="0"/>
        <pt x="51" y="1390" on="0"/>
        <pt x="-45" y="1390" on="1"/>
        <pt x="-45" y="1500" on="1"/>
        <pt x="583" y="1500" on="1"/>
        <pt x="583" y="1390" on="1"/>
        <pt x="450" y="1390" on="0"/>
        <pt x="402" y="1353" on="0"/>
        <pt x="405" y="1312" on="0"/>
        <pt x="417" y="1281" on="1"/>
        <pt x="792" y="294" on="1"/>
        <pt x="1170" y="1281" on="1"/>
        <pt x="1193" y="1341" on="0"/>
        <pt x="1119" y="1390" on="0"/>
        <pt x="983" y="1390" on="1"/>
        <pt x="983" y="1500" on="1"/>
        <pt x="1530" y="1500" on="1"/>
        <pt x="1530" y="1390" on="1"/>
        <pt x="1447" y="1390" on="0"/>
        <pt x="1363" y="1340" on="0"/>
        <pt x="1339" y="1281" on="1"/>
        <pt x="819" y="0" on="1"/>
        <pt x="688" y="0" on="1"/>
      </contour>
    </TTGlyph>
    <TTGlyph name="W" xMin="-45" yMin="0" xMax="2126" yMax="1500">
      <contour>
        <pt x="122" y="1281" on="1"/>
        <pt x="99" y="1344" on="0"/>
        <pt x="36" y="1390" on="0"/>
        <pt x="-45" y="1390" on="1"/>
        <pt x="-45" y="1500" on="1"/>
        <pt x="540" y="1500" on="1"/>
        <pt x="540" y="1390" on="1"/>
        <pt x="408" y="1390" on="0"/>
        <pt x="362" y="1354" on="0"/>
        <pt x="364" y="1312" on="0"/>
        <pt x="374" y="1281" on="1"/>
        <pt x="656" y="356" on="1"/>
        <pt x="1018" y="1500" on="1"/>
        <pt x="1149" y="1500" on="1"/>
        <pt x="1518" y="360" on="1"/>
        <pt x="1793" y="1281" on="1"/>
        <pt x="1798" y="1299" on="0"/>
        <pt x="1798" y="1348" on="0"/>
        <pt x="1725" y="1390" on="0"/>
        <pt x="1609" y="1390" on="1"/>
        <pt x="1609" y="1500" on="1"/>
        <pt x="2126" y="1500" on="1"/>
        <pt x="2126" y="1390" on="1"/>
        <pt x="2051" y="1390" on="0"/>
        <pt x="1971" y="1341" on="0"/>
        <pt x="1952" y="1281" on="1"/>
        <pt x="1542" y="0" on="1"/>
        <pt x="1412" y="0" on="1"/>
        <pt x="1042" y="1095" on="1"/>
        <pt x="686" y="0" on="1"/>
        <pt x="569" y="0" on="1"/>
      </contour>
    </TTGlyph>
    <TTGlyph name="Wacute" xMin="65" yMin="0" xMax="2236" yMax="2010">
      <component glyphName=".ttfautohint" x="65" y="0" flags="0x0"/>
      <component glyphName="W" x="110" y="0" flags="0x1004"/>
      <component glyphName="acute.cap" x="1239" y="0" flags="0x1004"/>
    </TTGlyph>
    <TTGlyph name="Wcircumflex" xMin="65" yMin="0" xMax="2236" yMax="2000">
      <component glyphName=".ttfautohint" x="65" y="0" flags="0x0"/>
      <component glyphName="W" x="110" y="0" flags="0x1004"/>
      <component glyphName="circumflex.cap" x="1190" y="0" flags="0x1004"/>
    </TTGlyph>
    <TTGlyph name="Wdieresis" xMin="65" yMin="0" xMax="2236" yMax="1957">
      <component glyphName=".ttfautohint" x="65" y="0" flags="0x0"/>
      <component glyphName="W" x="110" y="0" flags="0x1004"/>
      <component glyphName="dieresis.cap" x="1190" y="0" flags="0x1004"/>
    </TTGlyph>
    <TTGlyph name="Wgrave" xMin="65" yMin="0" xMax="2236" yMax="2010">
      <component glyphName=".ttfautohint" x="65" y="0" flags="0x0"/>
      <component glyphName="W" x="110" y="0" flags="0x1004"/>
      <component glyphName="grave.cap" x="1190" y="0" flags="0x1004"/>
    </TTGlyph>
    <TTGlyph name="X" xMin="70" yMin="0" xMax="1515" yMax="1500">
      <contour>
        <pt x="70" y="110" on="1"/>
        <pt x="213" y="110" on="0"/>
        <pt x="291" y="219" on="1"/>
        <pt x="674" y="742" on="1"/>
        <pt x="329" y="1281" on="1"/>
        <pt x="293" y="1337" on="0"/>
        <pt x="187" y="1390" on="0"/>
        <pt x="90" y="1390" on="1"/>
        <pt x="90" y="1500" on="1"/>
        <pt x="695" y="1500" on="1"/>
        <pt x="695" y="1390" on="1"/>
        <pt x="593" y="1390" on="0"/>
        <pt x="560" y="1340" on="0"/>
        <pt x="597" y="1281" on="1"/>
        <pt x="843" y="895" on="1"/>
        <pt x="1095" y="1281" on="1"/>
        <pt x="1132" y="1337" on="0"/>
        <pt x="1076" y="1390" on="0"/>
        <pt x="958" y="1390" on="1"/>
        <pt x="958" y="1500" on="1"/>
        <pt x="1485" y="1500" on="1"/>
        <pt x="1485" y="1390" on="1"/>
        <pt x="1335" y="1390" on="0"/>
        <pt x="1264" y="1281" on="1"/>
        <pt x="925" y="767" on="1"/>
        <pt x="1276" y="219" on="1"/>
        <pt x="1309" y="165" on="0"/>
        <pt x="1417" y="110" on="0"/>
        <pt x="1515" y="110" on="1"/>
        <pt x="1515" y="0" on="1"/>
        <pt x="910" y="0" on="1"/>
        <pt x="910" y="110" on="1"/>
        <pt x="1012" y="110" on="0"/>
        <pt x="1046" y="159" on="0"/>
        <pt x="1008" y="219" on="1"/>
        <pt x="755" y="614" on="1"/>
        <pt x="460" y="219" on="1"/>
        <pt x="399" y="138" on="0"/>
        <pt x="499" y="118" on="1"/>
        <pt x="535" y="110" on="0"/>
        <pt x="597" y="110" on="1"/>
        <pt x="597" y="0" on="1"/>
        <pt x="70" y="0" on="1"/>
      </contour>
    </TTGlyph>
    <TTGlyph name="Y" xMin="-45" yMin="0" xMax="1410" yMax="1500">
      <contour>
        <pt x="386" y="110" on="1"/>
        <pt x="499" y="110" on="0"/>
        <pt x="572" y="147" on="0"/>
        <pt x="593" y="189" on="0"/>
        <pt x="593" y="219" on="1"/>
        <pt x="592" y="503" on="1"/>
        <pt x="174" y="1281" on="1"/>
        <pt x="140" y="1342" on="0"/>
        <pt x="105" y="1360" on="1"/>
        <pt x="46" y="1390" on="0"/>
        <pt x="-45" y="1390" on="1"/>
        <pt x="-45" y="1500" on="1"/>
        <pt x="534" y="1500" on="1"/>
        <pt x="534" y="1390" on="1"/>
        <pt x="438" y="1390" on="0"/>
        <pt x="405" y="1342" on="0"/>
        <pt x="436" y="1281" on="1"/>
        <pt x="733" y="671" on="1"/>
        <pt x="1045" y="1281" on="1"/>
        <pt x="1077" y="1342" on="0"/>
        <pt x="1058" y="1359" on="1"/>
        <pt x="1024" y="1390" on="0"/>
        <pt x="893" y="1390" on="1"/>
        <pt x="893" y="1500" on="1"/>
        <pt x="1410" y="1500" on="1"/>
        <pt x="1410" y="1390" on="1"/>
        <pt x="1336" y="1390" on="0"/>
        <pt x="1241" y="1340" on="0"/>
        <pt x="1209" y="1281" on="1"/>
        <pt x="807" y="542" on="1"/>
        <pt x="807" y="219" on="1"/>
        <pt x="807" y="156" on="0"/>
        <pt x="887" y="110" on="0"/>
        <pt x="1013" y="110" on="1"/>
        <pt x="1013" y="0" on="1"/>
        <pt x="386" y="0" on="1"/>
      </contour>
    </TTGlyph>
    <TTGlyph name="Yacute" xMin="-36" yMin="0" xMax="1419" yMax="2010">
      <component glyphName=".ttfautohint" x="0" y="0" flags="0x0"/>
      <component glyphName="Y" x="9" y="0" flags="0x1004"/>
      <component glyphName="acute.cap" x="800" y="0" flags="0x1004"/>
    </TTGlyph>
    <TTGlyph name="Ycircumflex" xMin="-36" yMin="0" xMax="1419" yMax="2000">
      <component glyphName=".ttfautohint" x="0" y="0" flags="0x0"/>
      <component glyphName="Y" x="9" y="0" flags="0x1004"/>
      <component glyphName="circumflex.cap" x="751" y="0" flags="0x1004"/>
    </TTGlyph>
    <TTGlyph name="Ydieresis" xMin="-36" yMin="0" xMax="1419" yMax="1957">
      <component glyphName=".ttfautohint" x="0" y="0" flags="0x0"/>
      <component glyphName="Y" x="9" y="0" flags="0x1004"/>
      <component glyphName="dieresis.cap" x="751" y="0" flags="0x1004"/>
    </TTGlyph>
    <TTGlyph name="Ygrave" xMin="-36" yMin="0" xMax="1419" yMax="2010">
      <component glyphName=".ttfautohint" x="0" y="0" flags="0x0"/>
      <component glyphName="Y" x="9" y="0" flags="0x1004"/>
      <component glyphName="grave.cap" x="751" y="0" flags="0x1004"/>
    </TTGlyph>
    <TTGlyph name="Z" xMin="98" yMin="0" xMax="1243" yMax="1500">
      <contour>
        <pt x="98" y="120" on="1"/>
        <pt x="947" y="1378" on="1"/>
        <pt x="474" y="1378" on="1"/>
        <pt x="369" y="1378" on="0"/>
        <pt x="277" y="1246" on="0"/>
        <pt x="277" y="1089" on="1"/>
        <pt x="127" y="1090" on="1"/>
        <pt x="147" y="1500" on="1"/>
        <pt x="1211" y="1500" on="1"/>
        <pt x="1211" y="1380" on="1"/>
        <pt x="362" y="122" on="1"/>
        <pt x="863" y="122" on="1"/>
        <pt x="1090" y="122" on="0"/>
        <pt x="1090" y="444" on="1"/>
        <pt x="1243" y="444" on="1"/>
        <pt x="1193" y="0" on="1"/>
        <pt x="98" y="0" on="1"/>
      </contour>
    </TTGlyph>
    <TTGlyph name="Zacute" xMin="89" yMin="0" xMax="1234" yMax="2010">
      <component glyphName=".ttfautohint" x="89" y="0" flags="0x0"/>
      <component glyphName="Z" x="-9" y="0" flags="0x1004"/>
      <component glyphName="acute.cap" x="734" y="0" flags="0x1004"/>
    </TTGlyph>
    <TTGlyph name="Zcaron" xMin="89" yMin="0" xMax="1234" yMax="1972">
      <component glyphName=".ttfautohint" x="89" y="0" flags="0x0"/>
      <component glyphName="Z" x="-9" y="0" flags="0x1004"/>
      <component glyphName="caron.cap" x="685" y="0" flags="0x1004"/>
    </TTGlyph>
    <TTGlyph name="Zdotaccent" xMin="89" yMin="0" xMax="1234" yMax="1985">
      <component glyphName=".ttfautohint" x="89" y="0" flags="0x0"/>
      <component glyphName="Z" x="-9" y="0" flags="0x1004"/>
      <component glyphName="dotaccent.cap" x="685" y="0" flags="0x1004"/>
    </TTGlyph>
    <TTGlyph name="a" xMin="96" yMin="-20" xMax="1195" yMax="1034">
      <contour>
        <pt x="955" y="239" on="1"/>
        <pt x="955" y="120" on="0"/>
        <pt x="1002" y="120" on="1"/>
        <pt x="1047" y="120" on="0"/>
        <pt x="1089" y="181" on="0"/>
        <pt x="1089" y="261" on="1"/>
        <pt x="1194" y="261" on="1"/>
        <pt x="1195" y="248" on="0"/>
        <pt x="1195" y="220" on="1"/>
        <pt x="1195" y="130" on="0"/>
        <pt x="1150" y="64" on="1"/>
        <pt x="1095" y="-20" on="0"/>
        <pt x="975" y="-20" on="1"/>
        <pt x="897" y="-20" on="0"/>
        <pt x="787" y="68" on="0"/>
        <pt x="766" y="140" on="1"/>
        <pt x="621" y="-20" on="0"/>
        <pt x="399" y="-20" on="1"/>
        <pt x="277" y="-20" on="0"/>
        <pt x="96" y="123" on="0"/>
        <pt x="96" y="251" on="1"/>
        <pt x="96" y="473" on="0"/>
        <pt x="424" y="579" on="1"/>
        <pt x="632" y="645" on="0"/>
        <pt x="714" y="696" on="0"/>
        <pt x="739" y="749" on="0"/>
        <pt x="739" y="782" on="1"/>
        <pt x="739" y="841" on="0"/>
        <pt x="623" y="920" on="0"/>
        <pt x="437" y="920" on="0"/>
        <pt x="366" y="870" on="1"/>
        <pt x="416" y="833" on="0"/>
        <pt x="416" y="717" on="0"/>
        <pt x="339" y="647" on="0"/>
        <pt x="230" y="647" on="0"/>
        <pt x="159" y="713" on="0"/>
        <pt x="159" y="772" on="1"/>
        <pt x="159" y="889" on="0"/>
        <pt x="395" y="1034" on="0"/>
        <pt x="564" y="1034" on="1"/>
        <pt x="866" y="1034" on="0"/>
        <pt x="933" y="838" on="1"/>
        <pt x="955" y="773" on="0"/>
        <pt x="955" y="688" on="1"/>
      </contour>
      <contour>
        <pt x="426" y="450" on="0"/>
        <pt x="338" y="331" on="0"/>
        <pt x="338" y="191" on="0"/>
        <pt x="414" y="119" on="0"/>
        <pt x="471" y="119" on="1"/>
        <pt x="587" y="119" on="0"/>
        <pt x="739" y="282" on="0"/>
        <pt x="739" y="428" on="1"/>
        <pt x="739" y="582" on="1"/>
        <pt x="675" y="549" on="0"/>
        <pt x="532" y="495" on="0"/>
        <pt x="514" y="488" on="1"/>
      </contour>
    </TTGlyph>
    <TTGlyph name="aacute" xMin="96" yMin="-20" xMax="1195" yMax="1690">
      <component glyphName=".ttfautohint" x="96" y="0" flags="0x0"/>
      <component glyphName="a" x="0" y="0" flags="0x1204"/>
      <component glyphName="acute" x="605" y="0" flags="0x1004"/>
    </TTGlyph>
    <TTGlyph name="abreve" xMin="96" yMin="-20" xMax="1195" yMax="1541">
      <component glyphName=".ttfautohint" x="96" y="0" flags="0x0"/>
      <component glyphName="a" x="0" y="0" flags="0x1204"/>
      <component glyphName="breve" x="582" y="0" flags="0x1004"/>
    </TTGlyph>
    <TTGlyph name="acircumflex" xMin="96" yMin="-20" xMax="1195" yMax="1600">
      <component glyphName=".ttfautohint" x="96" y="0" flags="0x0"/>
      <component glyphName="a" x="0" y="0" flags="0x1204"/>
      <component glyphName="circumflex" x="582" y="0" flags="0x1004"/>
    </TTGlyph>
    <TTGlyph name="acute" xMin="-105" yMin="1194" xMax="206" yMax="1690">
      <contour>
        <pt x="35" y="1255" on="1"/>
        <pt x="-2" y="1194" on="0"/>
        <pt x="-54" y="1194" on="1"/>
        <pt x="-78" y="1194" on="0"/>
        <pt x="-105" y="1225" on="0"/>
        <pt x="-105" y="1254" on="0"/>
        <pt x="-102" y="1265" on="1"/>
        <pt x="-52" y="1501" on="1"/>
        <pt x="-30" y="1604" on="0"/>
        <pt x="-10" y="1635" on="1"/>
        <pt x="27" y="1690" on="0"/>
        <pt x="86" y="1690" on="1"/>
        <pt x="206" y="1690" on="0"/>
        <pt x="206" y="1593" on="1"/>
        <pt x="206" y="1540" on="0"/>
        <pt x="165" y="1471" on="1"/>
      </contour>
    </TTGlyph>
    <TTGlyph name="acute.cap" xMin="-153" yMin="1614" xMax="253" yMax="2010">
      <contour>
        <pt x="-5" y="1655" on="1"/>
        <pt x="-61" y="1614" on="0"/>
        <pt x="-93" y="1614" on="1"/>
        <pt x="-153" y="1614" on="0"/>
        <pt x="-153" y="1666" on="1"/>
        <pt x="-153" y="1689" on="0"/>
        <pt x="-135" y="1712" on="1"/>
        <pt x="-12" y="1881" on="1"/>
        <pt x="41" y="1955" on="0"/>
        <pt x="99" y="2010" on="0"/>
        <pt x="226" y="2010" on="0"/>
        <pt x="247" y="1950" on="1"/>
        <pt x="253" y="1932" on="0"/>
        <pt x="253" y="1909" on="1"/>
        <pt x="253" y="1847" on="0"/>
        <pt x="195" y="1804" on="1"/>
      </contour>
    </TTGlyph>
    <TTGlyph name="adieresis" xMin="96" yMin="-20" xMax="1195" yMax="1526">
      <component glyphName=".ttfautohint" x="96" y="0" flags="0x0"/>
      <component glyphName="a" x="0" y="0" flags="0x1204"/>
      <component glyphName="dieresis" x="582" y="0" flags="0x1004"/>
    </TTGlyph>
    <TTGlyph name="ae" xMin="96" yMin="-20" xMax="1672" yMax="1034">
      <contour>
        <pt x="817" y="184" on="1"/>
        <pt x="703" y="-20" on="0"/>
        <pt x="418" y="-20" on="1"/>
        <pt x="287" y="-20" on="0"/>
        <pt x="96" y="123" on="0"/>
        <pt x="96" y="372" on="0"/>
        <pt x="291" y="533" on="0"/>
        <pt x="541" y="610" on="0"/>
        <pt x="664" y="653" on="0"/>
        <pt x="733" y="696" on="0"/>
        <pt x="758" y="749" on="0"/>
        <pt x="758" y="784" on="1"/>
        <pt x="758" y="848" on="0"/>
        <pt x="655" y="924" on="0"/>
        <pt x="575" y="924" on="1"/>
        <pt x="447" y="924" on="0"/>
        <pt x="356" y="857" on="1"/>
        <pt x="403" y="821" on="0"/>
        <pt x="403" y="759" on="1"/>
        <pt x="403" y="674" on="0"/>
        <pt x="322" y="640" on="1"/>
        <pt x="298" y="630" on="0"/>
        <pt x="217" y="630" on="0"/>
        <pt x="146" y="701" on="0"/>
        <pt x="146" y="760" on="1"/>
        <pt x="146" y="879" on="0"/>
        <pt x="408" y="1034" on="0"/>
        <pt x="812" y="1034" on="0"/>
        <pt x="902" y="920" on="1"/>
        <pt x="1029" y="1034" on="0"/>
        <pt x="1227" y="1034" on="1"/>
        <pt x="1542" y="1034" on="0"/>
        <pt x="1635" y="783" on="1"/>
        <pt x="1672" y="683" on="0"/>
        <pt x="1672" y="545" on="1"/>
        <pt x="1672" y="501" on="0"/>
        <pt x="1670" y="461" on="1"/>
        <pt x="976" y="461" on="1"/>
        <pt x="976" y="290" on="0"/>
        <pt x="1140" y="101" on="0"/>
        <pt x="1344" y="101" on="0"/>
        <pt x="1456" y="170" on="0"/>
        <pt x="1489" y="233" on="1"/>
        <pt x="1639" y="234" on="1"/>
        <pt x="1614" y="128" on="0"/>
        <pt x="1399" y="-20" on="0"/>
        <pt x="1036" y="-20" on="0"/>
        <pt x="900" y="91" on="1"/>
        <pt x="853" y="130" on="0"/>
      </contour>
      <contour>
        <pt x="1439" y="611" on="1"/>
        <pt x="1439" y="917" on="0"/>
        <pt x="1231" y="917" on="1"/>
        <pt x="1115" y="917" on="0"/>
        <pt x="982" y="735" on="0"/>
        <pt x="976" y="574" on="1"/>
        <pt x="1438" y="574" on="1"/>
        <pt x="1439" y="593" on="0"/>
      </contour>
      <contour>
        <pt x="758" y="582" on="1"/>
        <pt x="707" y="556" on="0"/>
        <pt x="533" y="488" on="1"/>
        <pt x="336" y="416" on="0"/>
        <pt x="336" y="268" on="1"/>
        <pt x="336" y="197" on="0"/>
        <pt x="419" y="119" on="0"/>
        <pt x="479" y="119" on="1"/>
        <pt x="599" y="119" on="0"/>
        <pt x="758" y="281" on="0"/>
        <pt x="758" y="428" on="1"/>
      </contour>
    </TTGlyph>
    <TTGlyph name="aeacute" xMin="93" yMin="-20" xMax="1669" yMax="1690">
      <component glyphName=".ttfautohint" x="93" y="0" flags="0x0"/>
      <component glyphName="ae" x="-3" y="0" flags="0x1004"/>
      <component glyphName="acute" x="934" y="0" flags="0x1004"/>
    </TTGlyph>
    <TTGlyph name="agrave" xMin="96" yMin="-20" xMax="1195" yMax="1690">
      <component glyphName=".ttfautohint" x="96" y="0" flags="0x0"/>
      <component glyphName="a" x="0" y="0" flags="0x1204"/>
      <component glyphName="grave" x="582" y="0" flags="0x1004"/>
    </TTGlyph>
    <TTGlyph name="amacron" xMin="96" yMin="-20" xMax="1195" yMax="1403">
      <component glyphName=".ttfautohint" x="96" y="0" flags="0x0"/>
      <component glyphName="a" x="0" y="0" flags="0x1204"/>
      <component glyphName="macron" x="582" y="0" flags="0x1004"/>
    </TTGlyph>
    <TTGlyph name="ampersand" xMin="110" yMin="-20" xMax="1643" yMax="1520">
      <contour>
        <pt x="963" y="123" on="1"/>
        <pt x="805" y="-20" on="0"/>
        <pt x="373" y="-20" on="0"/>
        <pt x="110" y="219" on="0"/>
        <pt x="110" y="411" on="1"/>
        <pt x="110" y="540" on="0"/>
        <pt x="300" y="768" on="0"/>
        <pt x="458" y="829" on="1"/>
        <pt x="360" y="991" on="0"/>
        <pt x="319" y="1136" on="0"/>
        <pt x="319" y="1193" on="1"/>
        <pt x="319" y="1324" on="0"/>
        <pt x="512" y="1520" on="0"/>
        <pt x="671" y="1520" on="1"/>
        <pt x="892" y="1520" on="0"/>
        <pt x="988" y="1382" on="1"/>
        <pt x="1027" y="1327" on="0"/>
        <pt x="1027" y="1253" on="1"/>
        <pt x="1027" y="1028" on="0"/>
        <pt x="708" y="814" on="1"/>
        <pt x="855" y="580" on="0"/>
        <pt x="1020" y="365" on="1"/>
        <pt x="1117" y="506" on="0"/>
        <pt x="1164" y="678" on="1"/>
        <pt x="1170" y="699" on="0"/>
        <pt x="1170" y="754" on="0"/>
        <pt x="1107" y="811" on="0"/>
        <pt x="1023" y="815" on="1"/>
        <pt x="1016" y="913" on="1"/>
        <pt x="1533" y="913" on="1"/>
        <pt x="1540" y="815" on="1"/>
        <pt x="1404" y="804" on="0"/>
        <pt x="1344" y="718" on="1"/>
        <pt x="1324" y="691" on="0"/>
        <pt x="1167" y="381" on="0"/>
        <pt x="1094" y="275" on="1"/>
        <pt x="1209" y="142" on="0"/>
        <pt x="1282" y="107" on="1"/>
        <pt x="1314" y="92" on="0"/>
        <pt x="1352" y="92" on="1"/>
        <pt x="1432" y="92" on="0"/>
        <pt x="1472" y="146" on="1"/>
        <pt x="1427" y="154" on="0"/>
        <pt x="1374" y="221" on="0"/>
        <pt x="1374" y="322" on="0"/>
        <pt x="1459" y="402" on="0"/>
        <pt x="1544" y="402" on="0"/>
        <pt x="1569" y="390" on="1"/>
        <pt x="1643" y="355" on="0"/>
        <pt x="1643" y="276" on="1"/>
        <pt x="1643" y="135" on="0"/>
        <pt x="1456" y="-20" on="0"/>
        <pt x="1333" y="-20" on="1"/>
        <pt x="1111" y="-20" on="0"/>
      </contour>
      <contour>
        <pt x="647" y="915" on="1"/>
        <pt x="748" y="996" on="0"/>
        <pt x="834" y="1137" on="0"/>
        <pt x="834" y="1225" on="1"/>
        <pt x="834" y="1311" on="0"/>
        <pt x="730" y="1415" on="0"/>
        <pt x="661" y="1415" on="1"/>
        <pt x="591" y="1415" on="0"/>
        <pt x="525" y="1306" on="0"/>
        <pt x="525" y="1148" on="0"/>
        <pt x="618" y="963" on="0"/>
      </contour>
      <contour>
        <pt x="516" y="734" on="1"/>
        <pt x="340" y="625" on="0"/>
        <pt x="340" y="427" on="1"/>
        <pt x="340" y="289" on="0"/>
        <pt x="506" y="119" on="0"/>
        <pt x="766" y="119" on="0"/>
        <pt x="883" y="213" on="1"/>
        <pt x="696" y="446" on="0"/>
      </contour>
    </TTGlyph>
    <TTGlyph name="aogonek" xMin="97" yMin="-510" xMax="1189" yMax="1034">
      <contour>
        <pt x="1006" y="-54" on="1"/>
        <pt x="840" y="-150" on="0"/>
        <pt x="840" y="-267" on="1"/>
        <pt x="840" y="-356" on="0"/>
        <pt x="948" y="-356" on="1"/>
        <pt x="987" y="-356" on="0"/>
        <pt x="1049" y="-284" on="0"/>
        <pt x="1049" y="-219" on="1"/>
        <pt x="1139" y="-219" on="1"/>
        <pt x="1139" y="-226" on="0"/>
        <pt x="1139" y="-299" on="0"/>
        <pt x="1121" y="-351" on="1"/>
        <pt x="1066" y="-510" on="0"/>
        <pt x="889" y="-510" on="1"/>
        <pt x="789" y="-510" on="0"/>
        <pt x="660" y="-397" on="0"/>
        <pt x="660" y="-297" on="1"/>
        <pt x="660" y="-152" on="0"/>
        <pt x="884" y="-3" on="1"/>
        <pt x="795" y="35" on="0"/>
        <pt x="766" y="140" on="1"/>
        <pt x="621" y="-20" on="0"/>
        <pt x="399" y="-20" on="1"/>
        <pt x="276" y="-20" on="0"/>
        <pt x="97" y="123" on="0"/>
        <pt x="97" y="251" on="1"/>
        <pt x="97" y="474" on="0"/>
        <pt x="424" y="579" on="1"/>
        <pt x="632" y="645" on="0"/>
        <pt x="714" y="696" on="0"/>
        <pt x="739" y="749" on="0"/>
        <pt x="739" y="782" on="1"/>
        <pt x="739" y="841" on="0"/>
        <pt x="623" y="920" on="0"/>
        <pt x="436" y="920" on="0"/>
        <pt x="365" y="870" on="1"/>
        <pt x="416" y="830" on="0"/>
        <pt x="416" y="769" on="1"/>
        <pt x="416" y="684" on="0"/>
        <pt x="335" y="650" on="1"/>
        <pt x="311" y="640" on="0"/>
        <pt x="230" y="640" on="0"/>
        <pt x="159" y="711" on="0"/>
        <pt x="159" y="770" on="1"/>
        <pt x="159" y="888" on="0"/>
        <pt x="397" y="1034" on="0"/>
        <pt x="564" y="1034" on="1"/>
        <pt x="864" y="1034" on="0"/>
        <pt x="928" y="838" on="1"/>
        <pt x="949" y="773" on="0"/>
        <pt x="949" y="688" on="1"/>
        <pt x="949" y="239" on="1"/>
        <pt x="949" y="120" on="0"/>
        <pt x="996" y="120" on="1"/>
        <pt x="1041" y="120" on="0"/>
        <pt x="1083" y="181" on="0"/>
        <pt x="1083" y="261" on="1"/>
        <pt x="1188" y="261" on="1"/>
        <pt x="1189" y="247" on="0"/>
        <pt x="1189" y="157" on="0"/>
        <pt x="1136" y="30" on="0"/>
        <pt x="1079" y="-8" on="1"/>
        <pt x="1047" y="-30" on="0"/>
      </contour>
      <contour>
        <pt x="426" y="450" on="0"/>
        <pt x="337" y="331" on="0"/>
        <pt x="337" y="191" on="0"/>
        <pt x="414" y="119" on="0"/>
        <pt x="471" y="119" on="1"/>
        <pt x="587" y="119" on="0"/>
        <pt x="739" y="282" on="0"/>
        <pt x="739" y="428" on="1"/>
        <pt x="739" y="582" on="1"/>
        <pt x="675" y="549" on="0"/>
        <pt x="532" y="495" on="0"/>
        <pt x="514" y="488" on="1"/>
      </contour>
    </TTGlyph>
    <TTGlyph name="approxequal" xMin="169" yMin="124" xMax="1365" yMax="1080">
      <component glyphName=".ttfautohint" x="169" y="124" flags="0x0"/>
      <component glyphName="asciitilde" x="0" y="100" flags="0x1204"/>
      <component glyphName="asciitilde" x="0" y="-410" flags="0x1004"/>
    </TTGlyph>
    <TTGlyph name="aring" xMin="96" yMin="-20" xMax="1195" yMax="1729">
      <component glyphName=".ttfautohint" x="96" y="0" flags="0x0"/>
      <component glyphName="a" x="0" y="0" flags="0x1204"/>
      <component glyphName="ring" x="582" y="0" flags="0x1004"/>
    </TTGlyph>
    <TTGlyph name="asciicircum" xMin="242" yMin="542" xMax="1286" yMax="1608">
      <contour>
        <pt x="704" y="1608" on="1"/>
        <pt x="824" y="1608" on="1"/>
        <pt x="1286" y="605" on="1"/>
        <pt x="1132" y="542" on="1"/>
        <pt x="764" y="1358" on="1"/>
        <pt x="396" y="542" on="1"/>
        <pt x="242" y="605" on="1"/>
      </contour>
    </TTGlyph>
    <TTGlyph name="asciitilde" xMin="169" yMin="534" xMax="1365" yMax="980">
      <contour>
        <pt x="169" y="536" on="1"/>
        <pt x="182" y="851" on="0"/>
        <pt x="370" y="948" on="1"/>
        <pt x="433" y="980" on="0"/>
        <pt x="582" y="980" on="0"/>
        <pt x="693" y="945" on="0"/>
        <pt x="788" y="892" on="0"/>
        <pt x="871" y="830" on="0"/>
        <pt x="911" y="804" on="1"/>
        <pt x="1004" y="742" on="0"/>
        <pt x="1079" y="742" on="1"/>
        <pt x="1211" y="742" on="0"/>
        <pt x="1244" y="887" on="1"/>
        <pt x="1259" y="978" on="1"/>
        <pt x="1365" y="978" on="1"/>
        <pt x="1336" y="657" on="0"/>
        <pt x="1162" y="566" on="1"/>
        <pt x="1100" y="534" on="0"/>
        <pt x="957" y="534" on="0"/>
        <pt x="855" y="569" on="0"/>
        <pt x="765" y="622" on="0"/>
        <pt x="724" y="653" on="1"/>
        <pt x="564" y="772" on="0"/>
        <pt x="455" y="772" on="1"/>
        <pt x="386" y="772" on="0"/>
        <pt x="299" y="687" on="0"/>
        <pt x="287" y="627" on="1"/>
        <pt x="274" y="536" on="1"/>
      </contour>
    </TTGlyph>
    <TTGlyph name="asterisk" xMin="42" yMin="610" xMax="988" yMax="1523">
      <contour>
        <pt x="859" y="1029" on="1"/>
        <pt x="706" y="1040" on="1"/>
        <pt x="675" y="1040" on="0"/>
        <pt x="644" y="1030" on="1"/>
        <pt x="589" y="1012" on="0"/>
        <pt x="646" y="920" on="0"/>
        <pt x="757" y="860" on="0"/>
        <pt x="786" y="842" on="1"/>
        <pt x="857" y="800" on="0"/>
        <pt x="857" y="677" on="0"/>
        <pt x="766" y="610" on="0"/>
        <pt x="743" y="610" on="1"/>
        <pt x="642" y="610" on="0"/>
        <pt x="614" y="716" on="1"/>
        <pt x="605" y="748" on="0"/>
        <pt x="579" y="874" on="0"/>
        <pt x="552" y="909" on="1"/>
        <pt x="510" y="955" on="0"/>
        <pt x="449" y="869" on="0"/>
        <pt x="415" y="694" on="0"/>
        <pt x="355" y="610" on="0"/>
        <pt x="265" y="610" on="0"/>
        <pt x="235" y="632" on="1"/>
        <pt x="182" y="670" on="0"/>
        <pt x="167" y="759" on="0"/>
        <pt x="215" y="825" on="0"/>
        <pt x="271" y="861" on="0"/>
        <pt x="380" y="921" on="0"/>
        <pt x="408" y="960" on="1"/>
        <pt x="439" y="1013" on="0"/>
        <pt x="386" y="1031" on="1"/>
        <pt x="357" y="1040" on="0"/>
        <pt x="327" y="1040" on="1"/>
        <pt x="173" y="1028" on="1"/>
        <pt x="85" y="1028" on="0"/>
        <pt x="52" y="1091" on="1"/>
        <pt x="42" y="1112" on="0"/>
        <pt x="42" y="1160" on="0"/>
        <pt x="50" y="1186" on="1"/>
        <pt x="68" y="1240" on="0"/>
        <pt x="108" y="1260" on="1"/>
        <pt x="176" y="1293" on="0"/>
        <pt x="249" y="1234" on="1"/>
        <pt x="275" y="1213" on="0"/>
        <pt x="370" y="1126" on="0"/>
        <pt x="412" y="1113" on="1"/>
        <pt x="439" y="1108" on="0"/>
        <pt x="472" y="1122" on="0"/>
        <pt x="472" y="1156" on="1"/>
        <pt x="472" y="1203" on="0"/>
        <pt x="395" y="1370" on="0"/>
        <pt x="395" y="1459" on="0"/>
        <pt x="457" y="1523" on="0"/>
        <pt x="515" y="1523" on="1"/>
        <pt x="573" y="1523" on="0"/>
        <pt x="635" y="1459" on="0"/>
        <pt x="635" y="1420" on="1"/>
        <pt x="635" y="1370" on="0"/>
        <pt x="558" y="1203" on="0"/>
        <pt x="558" y="1156" on="1"/>
        <pt x="565" y="1094" on="0"/>
        <pt x="661" y="1126" on="0"/>
        <pt x="755" y="1213" on="0"/>
        <pt x="806" y="1255" on="0"/>
        <pt x="833" y="1264" on="1"/>
        <pt x="883" y="1281" on="0"/>
        <pt x="962" y="1239" on="0"/>
        <pt x="988" y="1160" on="0"/>
        <pt x="988" y="1112" on="0"/>
        <pt x="973" y="1082" on="1"/>
        <pt x="946" y="1029" on="0"/>
      </contour>
    </TTGlyph>
    <TTGlyph name="at" xMin="158" yMin="-280" xMax="1849" yMax="1518">
      <contour>
        <pt x="1631" y="-86" on="1"/>
        <pt x="1412" y="-280" on="0"/>
        <pt x="1084" y="-280" on="1"/>
        <pt x="671" y="-280" on="0"/>
        <pt x="158" y="188" on="0"/>
        <pt x="158" y="567" on="1"/>
        <pt x="158" y="851" on="0"/>
        <pt x="405" y="1284" on="0"/>
        <pt x="838" y="1518" on="0"/>
        <pt x="1101" y="1518" on="1"/>
        <pt x="1469" y="1518" on="0"/>
        <pt x="1669" y="1307" on="1"/>
        <pt x="1849" y="1117" on="0"/>
        <pt x="1849" y="816" on="1"/>
        <pt x="1848" y="575" on="0"/>
        <pt x="1602" y="205" on="0"/>
        <pt x="1388" y="205" on="1"/>
        <pt x="1258" y="205" on="0"/>
        <pt x="1202" y="301" on="1"/>
        <pt x="1184" y="332" on="0"/>
        <pt x="1180" y="373" on="1"/>
        <pt x="1127" y="295" on="0"/>
        <pt x="977" y="205" on="0"/>
        <pt x="900" y="205" on="1"/>
        <pt x="766" y="205" on="0"/>
        <pt x="641" y="385" on="0"/>
        <pt x="641" y="574" on="0"/>
        <pt x="674" y="716" on="0"/>
        <pt x="703" y="778" on="1"/>
        <pt x="762" y="905" on="0"/>
        <pt x="968" y="1063" on="0"/>
        <pt x="1191" y="1063" on="0"/>
        <pt x="1257" y="994" on="1"/>
        <pt x="1271" y="1054" on="1"/>
        <pt x="1463" y="1054" on="1"/>
        <pt x="1341" y="535" on="1"/>
        <pt x="1329" y="476" on="0"/>
        <pt x="1329" y="432" on="1"/>
        <pt x="1329" y="315" on="0"/>
        <pt x="1424" y="315" on="1"/>
        <pt x="1545" y="315" on="0"/>
        <pt x="1712" y="612" on="0"/>
        <pt x="1712" y="786" on="1"/>
        <pt x="1712" y="1103" on="0"/>
        <pt x="1395" y="1395" on="0"/>
        <pt x="1115" y="1395" on="1"/>
        <pt x="789" y="1395" on="0"/>
        <pt x="384" y="927" on="0"/>
        <pt x="384" y="561" on="1"/>
        <pt x="384" y="256" on="0"/>
        <pt x="773" y="-154" on="0"/>
        <pt x="1102" y="-154" on="1"/>
        <pt x="1334" y="-154" on="0"/>
        <pt x="1506" y="-50" on="1"/>
        <pt x="1555" y="-21" on="0"/>
        <pt x="1586" y="11" on="1"/>
      </contour>
      <contour>
        <pt x="1236" y="910" on="1"/>
        <pt x="1195" y="957" on="0"/>
        <pt x="1131" y="957" on="1"/>
        <pt x="1015" y="957" on="0"/>
        <pt x="854" y="653" on="0"/>
        <pt x="854" y="335" on="0"/>
        <pt x="956" y="335" on="1"/>
        <pt x="1131" y="335" on="0"/>
      </contour>
    </TTGlyph>
    <TTGlyph name="atilde" xMin="96" yMin="-20" xMax="1195" yMax="1593">
      <component glyphName=".ttfautohint" x="96" y="0" flags="0x0"/>
      <component glyphName="a" x="0" y="0" flags="0x1204"/>
      <component glyphName="tilde" x="582" y="0" flags="0x1004"/>
    </TTGlyph>
    <TTGlyph name="b" xMin="38" yMin="-20" xMax="1147" yMax="1559">
      <contour>
        <pt x="381" y="117" on="1"/>
        <pt x="338" y="76" on="0"/>
        <pt x="338" y="0" on="1"/>
        <pt x="190" y="0" on="1"/>
        <pt x="190" y="1291" on="1"/>
        <pt x="190" y="1363" on="0"/>
        <pt x="165" y="1407" on="0"/>
        <pt x="109" y="1407" on="1"/>
        <pt x="38" y="1407" on="1"/>
        <pt x="38" y="1517" on="1"/>
        <pt x="135" y="1517" on="0"/>
        <pt x="246" y="1546" on="0"/>
        <pt x="293" y="1559" on="0"/>
        <pt x="320" y="1559" on="1"/>
        <pt x="373" y="1559" on="0"/>
        <pt x="406" y="1498" on="0"/>
        <pt x="406" y="1431" on="1"/>
        <pt x="406" y="895" on="1"/>
        <pt x="513" y="1034" on="0"/>
        <pt x="912" y="1034" on="0"/>
        <pt x="1147" y="779" on="0"/>
        <pt x="1147" y="283" on="0"/>
        <pt x="902" y="-20" on="0"/>
        <pt x="682" y="-20" on="1"/>
        <pt x="501" y="-20" on="0"/>
      </contour>
      <contour>
        <pt x="401" y="312" on="0"/>
        <pt x="540" y="100" on="0"/>
        <pt x="659" y="100" on="1"/>
        <pt x="777" y="100" on="0"/>
        <pt x="914" y="318" on="0"/>
        <pt x="914" y="498" on="1"/>
        <pt x="914" y="785" on="0"/>
        <pt x="778" y="880" on="1"/>
        <pt x="729" y="913" on="0"/>
        <pt x="596" y="913" on="0"/>
        <pt x="500" y="849" on="0"/>
        <pt x="468" y="793" on="1"/>
        <pt x="401" y="678" on="0"/>
      </contour>
    </TTGlyph>
    <TTGlyph name="backslash" xMin="109" yMin="-148" xMax="889" yMax="1608">
      <component glyphName=".ttfautohint" x="109" y="0" flags="0x0"/>
      <component glyphName="slash" x="1021" y="0" scalex="-0.999938964844" scaley="1.0" flags="0x1004"/>
    </TTGlyph>
    <TTGlyph name="bar" xMin="256" yMin="-148" xMax="419" yMax="1653">
      <contour>
        <pt x="256" y="1653" on="1"/>
        <pt x="419" y="1653" on="1"/>
        <pt x="419" y="-148" on="1"/>
        <pt x="256" y="-148" on="1"/>
      </contour>
    </TTGlyph>
    <TTGlyph name="braceleft" xMin="159" yMin="-430" xMax="848" yMax="1788">
      <contour>
        <pt x="522" y="1443" on="1"/>
        <pt x="541" y="950" on="1"/>
        <pt x="541" y="732" on="0"/>
        <pt x="343" y="677" on="1"/>
        <pt x="541" y="622" on="0"/>
        <pt x="541" y="403" on="1"/>
        <pt x="541" y="306" on="0"/>
        <pt x="522" y="5" on="0"/>
        <pt x="522" y="-69" on="1"/>
        <pt x="522" y="-205" on="0"/>
        <pt x="622" y="-328" on="0"/>
        <pt x="742" y="-328" on="1"/>
        <pt x="848" y="-328" on="1"/>
        <pt x="848" y="-430" on="1"/>
        <pt x="752" y="-430" on="1"/>
        <pt x="435" y="-430" on="0"/>
        <pt x="352" y="-222" on="1"/>
        <pt x="323" y="-147" on="0"/>
        <pt x="323" y="-60" on="1"/>
        <pt x="323" y="53" on="0"/>
        <pt x="342" y="348" on="0"/>
        <pt x="342" y="410" on="1"/>
        <pt x="342" y="532" on="0"/>
        <pt x="255" y="621" on="0"/>
        <pt x="159" y="621" on="1"/>
        <pt x="159" y="733" on="1"/>
        <pt x="255" y="733" on="0"/>
        <pt x="342" y="820" on="0"/>
        <pt x="342" y="950" on="1"/>
        <pt x="342" y="987" on="0"/>
        <pt x="339" y="1038" on="1"/>
        <pt x="323" y="1307" on="0"/>
        <pt x="323" y="1397" on="1"/>
        <pt x="323" y="1788" on="0"/>
        <pt x="752" y="1788" on="1"/>
        <pt x="848" y="1788" on="1"/>
        <pt x="848" y="1687" on="1"/>
        <pt x="743" y="1687" on="1"/>
        <pt x="568" y="1687" on="0"/>
        <pt x="533" y="1544" on="1"/>
        <pt x="522" y="1500" on="0"/>
      </contour>
    </TTGlyph>
    <TTGlyph name="braceright" xMin="78" yMin="-430" xMax="768" yMax="1788">
      <component glyphName=".ttfautohint" x="78" y="0" flags="0x0"/>
      <component glyphName="braceleft" x="927" y="0" scalex="-0.999938964844" scaley="1.0" flags="0x1004"/>
    </TTGlyph>
    <TTGlyph name="bracketleft" xMin="240" yMin="-400" xMax="735" yMax="1760">
      <contour>
        <pt x="240" y="1760" on="1"/>
        <pt x="735" y="1760" on="1"/>
        <pt x="735" y="1650" on="1"/>
        <pt x="437" y="1650" on="1"/>
        <pt x="437" y="-290" on="1"/>
        <pt x="735" y="-290" on="1"/>
        <pt x="735" y="-400" on="1"/>
        <pt x="240" y="-400" on="1"/>
      </contour>
    </TTGlyph>
    <TTGlyph name="bracketright" xMin="78" yMin="-400" xMax="574" yMax="1760">
      <component glyphName=".ttfautohint" x="78" y="0" flags="0x0"/>
      <component glyphName="bracketleft" x="814" y="0" scalex="-0.999938964844" scaley="1.0" flags="0x1004"/>
    </TTGlyph>
    <TTGlyph name="breve" xMin="-336" yMin="1182" xMax="336" yMax="1541">
      <contour>
        <pt x="0" y="1371" on="1"/>
        <pt x="167" y="1371" on="0"/>
        <pt x="222" y="1541" on="1"/>
        <pt x="336" y="1541" on="1"/>
        <pt x="330" y="1380" on="0"/>
        <pt x="148" y="1182" on="0"/>
        <pt x="-148" y="1182" on="0"/>
        <pt x="-330" y="1380" on="0"/>
        <pt x="-336" y="1541" on="1"/>
        <pt x="-222" y="1541" on="1"/>
        <pt x="-167" y="1371" on="0"/>
      </contour>
    </TTGlyph>
    <TTGlyph name="breve.cap" xMin="-336" yMin="1652" xMax="336" yMax="1981">
      <contour>
        <pt x="0" y="1841" on="1"/>
        <pt x="167" y="1841" on="0"/>
        <pt x="222" y="1981" on="1"/>
        <pt x="336" y="1981" on="1"/>
        <pt x="330" y="1832" on="0"/>
        <pt x="238" y="1742" on="1"/>
        <pt x="147" y="1652" on="0"/>
        <pt x="-147" y="1652" on="0"/>
        <pt x="-238" y="1742" on="1"/>
        <pt x="-330" y="1832" on="0"/>
        <pt x="-336" y="1981" on="1"/>
        <pt x="-222" y="1981" on="1"/>
        <pt x="-167" y="1841" on="0"/>
      </contour>
    </TTGlyph>
    <TTGlyph name="brokenbar" xMin="256" yMin="-148" xMax="419" yMax="1653">
      <contour>
        <pt x="256" y="1653" on="1"/>
        <pt x="419" y="1653" on="1"/>
        <pt x="419" y="852" on="1"/>
        <pt x="256" y="852" on="1"/>
      </contour>
      <contour>
        <pt x="256" y="653" on="1"/>
        <pt x="419" y="653" on="1"/>
        <pt x="419" y="-148" on="1"/>
        <pt x="256" y="-148" on="1"/>
      </contour>
    </TTGlyph>
    <TTGlyph name="bullet" xMin="187" yMin="444" xMax="664" yMax="917">
      <contour>
        <pt x="326" y="444" on="0"/>
        <pt x="187" y="580" on="0"/>
        <pt x="187" y="776" on="0"/>
        <pt x="325" y="917" on="0"/>
        <pt x="523" y="917" on="0"/>
        <pt x="664" y="776" on="0"/>
        <pt x="664" y="581" on="0"/>
        <pt x="523" y="444" on="0"/>
      </contour>
    </TTGlyph>
    <TTGlyph name="c" xMin="90" yMin="-20" xMax="977" yMax="1034">
      <contour>
        <pt x="766" y="849" on="1"/>
        <pt x="708" y="919" on="0"/>
        <pt x="604" y="919" on="1"/>
        <pt x="409" y="919" on="0"/>
        <pt x="350" y="697" on="1"/>
        <pt x="330" y="619" on="0"/>
        <pt x="330" y="510" on="1"/>
        <pt x="330" y="307" on="0"/>
        <pt x="486" y="101" on="0"/>
        <pt x="603" y="101" on="1"/>
        <pt x="689" y="101" on="0"/>
        <pt x="809" y="201" on="0"/>
        <pt x="832" y="294" on="1"/>
        <pt x="969" y="294" on="1"/>
        <pt x="969" y="170" on="0"/>
        <pt x="750" y="-20" on="0"/>
        <pt x="375" y="-20" on="0"/>
        <pt x="244" y="97" on="1"/>
        <pt x="90" y="234" on="0"/>
        <pt x="90" y="500" on="1"/>
        <pt x="90" y="717" on="0"/>
        <pt x="347" y="1034" on="0"/>
        <pt x="596" y="1034" on="1"/>
        <pt x="759" y="1034" on="0"/>
        <pt x="977" y="876" on="0"/>
        <pt x="977" y="751" on="1"/>
        <pt x="977" y="690" on="0"/>
        <pt x="898" y="607" on="0"/>
        <pt x="837" y="607" on="1"/>
        <pt x="750" y="607" on="0"/>
        <pt x="717" y="688" on="1"/>
        <pt x="707" y="712" on="0"/>
        <pt x="707" y="741" on="1"/>
        <pt x="707" y="810" on="0"/>
      </contour>
    </TTGlyph>
    <TTGlyph name="cacute" xMin="90" yMin="-20" xMax="977" yMax="1690">
      <component glyphName=".ttfautohint" x="90" y="0" flags="0x0"/>
      <component glyphName="c" x="0" y="0" flags="0x1204"/>
      <component glyphName="acute" x="590" y="0" flags="0x1004"/>
    </TTGlyph>
    <TTGlyph name="caron" xMin="-338" yMin="1166" xMax="338" yMax="1599">
      <contour>
        <pt x="-56" y="1166" on="1"/>
        <pt x="-329" y="1537" on="1"/>
        <pt x="-338" y="1551" on="0"/>
        <pt x="-338" y="1559" on="1"/>
        <pt x="-338" y="1599" on="0"/>
        <pt x="-297" y="1599" on="1"/>
        <pt x="-263" y="1599" on="0"/>
        <pt x="-227" y="1566" on="1"/>
        <pt x="0" y="1390" on="1"/>
        <pt x="227" y="1566" on="1"/>
        <pt x="263" y="1599" on="0"/>
        <pt x="286" y="1599" on="1"/>
        <pt x="338" y="1599" on="0"/>
        <pt x="338" y="1563" on="1"/>
        <pt x="338" y="1551" on="0"/>
        <pt x="329" y="1537" on="1"/>
        <pt x="56" y="1166" on="1"/>
      </contour>
    </TTGlyph>
    <TTGlyph name="caron.cap" xMin="-364" yMin="1624" xMax="364" yMax="1972">
      <contour>
        <pt x="316" y="1972" on="1"/>
        <pt x="364" y="1972" on="0"/>
        <pt x="364" y="1937" on="1"/>
        <pt x="364" y="1921" on="0"/>
        <pt x="349" y="1905" on="1"/>
        <pt x="56" y="1624" on="1"/>
        <pt x="-56" y="1624" on="1"/>
        <pt x="-349" y="1905" on="1"/>
        <pt x="-364" y="1921" on="0"/>
        <pt x="-364" y="1937" on="1"/>
        <pt x="-364" y="1972" on="0"/>
        <pt x="-316" y="1972" on="1"/>
        <pt x="-290" y="1971" on="0"/>
        <pt x="-257" y="1954" on="1"/>
        <pt x="0" y="1823" on="1"/>
        <pt x="257" y="1954" on="1"/>
        <pt x="290" y="1971" on="0"/>
      </contour>
    </TTGlyph>
    <TTGlyph name="caronvertical" xMin="109" yMin="1069" xMax="412" yMax="1559">
      <contour>
        <pt x="109" y="1135" on="1"/>
        <pt x="199" y="1159" on="0"/>
        <pt x="235" y="1210" on="1"/>
        <pt x="268" y="1257" on="0"/>
        <pt x="231" y="1281" on="1"/>
        <pt x="134" y="1342" on="0"/>
        <pt x="134" y="1431" on="1"/>
        <pt x="134" y="1483" on="0"/>
        <pt x="161" y="1511" on="1"/>
        <pt x="207" y="1559" on="0"/>
        <pt x="298" y="1559" on="0"/>
        <pt x="352" y="1531" on="0"/>
        <pt x="372" y="1506" on="1"/>
        <pt x="412" y="1454" on="0"/>
        <pt x="412" y="1318" on="0"/>
        <pt x="373" y="1216" on="0"/>
        <pt x="338" y="1174" on="1"/>
        <pt x="260" y="1083" on="0"/>
        <pt x="150" y="1069" on="1"/>
      </contour>
    </TTGlyph>
    <TTGlyph name="ccaron" xMin="90" yMin="-20" xMax="977" yMax="1599">
      <component glyphName=".ttfautohint" x="90" y="0" flags="0x0"/>
      <component glyphName="c" x="0" y="0" flags="0x1204"/>
      <component glyphName="caron" x="567" y="0" flags="0x1004"/>
    </TTGlyph>
    <TTGlyph name="ccedilla" xMin="90" yMin="-419" xMax="977" yMax="1034">
      <contour>
        <pt x="674" y="-170" on="1"/>
        <pt x="674" y="-419" on="0"/>
        <pt x="414" y="-419" on="1"/>
        <pt x="356" y="-419" on="0"/>
        <pt x="260" y="-387" on="0"/>
        <pt x="249" y="-379" on="1"/>
        <pt x="256" y="-273" on="1"/>
        <pt x="306" y="-288" on="0"/>
        <pt x="332" y="-288" on="1"/>
        <pt x="412" y="-288" on="0"/>
        <pt x="454" y="-258" on="1"/>
        <pt x="543" y="-194" on="0"/>
        <pt x="547" y="-19" on="1"/>
        <pt x="358" y="-12" on="0"/>
        <pt x="235" y="105" on="1"/>
        <pt x="90" y="243" on="0"/>
        <pt x="90" y="717" on="0"/>
        <pt x="347" y="1034" on="0"/>
        <pt x="596" y="1034" on="1"/>
        <pt x="759" y="1034" on="0"/>
        <pt x="977" y="876" on="0"/>
        <pt x="977" y="751" on="1"/>
        <pt x="977" y="690" on="0"/>
        <pt x="898" y="607" on="0"/>
        <pt x="837" y="607" on="1"/>
        <pt x="750" y="607" on="0"/>
        <pt x="717" y="688" on="1"/>
        <pt x="707" y="712" on="0"/>
        <pt x="707" y="741" on="1"/>
        <pt x="707" y="810" on="0"/>
        <pt x="766" y="849" on="1"/>
        <pt x="708" y="919" on="0"/>
        <pt x="604" y="919" on="1"/>
        <pt x="409" y="919" on="0"/>
        <pt x="350" y="697" on="1"/>
        <pt x="330" y="619" on="0"/>
        <pt x="330" y="510" on="1"/>
        <pt x="330" y="307" on="0"/>
        <pt x="486" y="101" on="0"/>
        <pt x="603" y="101" on="1"/>
        <pt x="689" y="101" on="0"/>
        <pt x="809" y="201" on="0"/>
        <pt x="832" y="294" on="1"/>
        <pt x="969" y="294" on="1"/>
        <pt x="969" y="188" on="0"/>
        <pt x="802" y="11" on="0"/>
        <pt x="659" y="-13" on="1"/>
        <pt x="674" y="-97" on="0"/>
      </contour>
    </TTGlyph>
    <TTGlyph name="ccircumflex" xMin="90" yMin="-20" xMax="977" yMax="1600">
      <component glyphName=".ttfautohint" x="90" y="0" flags="0x0"/>
      <component glyphName="c" x="0" y="0" flags="0x1204"/>
      <component glyphName="circumflex" x="567" y="0" flags="0x1004"/>
    </TTGlyph>
    <TTGlyph name="cdotaccent" xMin="90" yMin="-20" xMax="977" yMax="1525">
      <component glyphName=".ttfautohint" x="90" y="0" flags="0x0"/>
      <component glyphName="c" x="0" y="0" flags="0x1204"/>
      <component glyphName="dotaccent" x="567" y="0" flags="0x1004"/>
    </TTGlyph>
    <TTGlyph name="cedilla" xMin="47" yMin="-419" xMax="472" yMax="45">
      <contour>
        <pt x="472" y="-165" on="1"/>
        <pt x="472" y="-419" on="0"/>
        <pt x="212" y="-419" on="1"/>
        <pt x="154" y="-419" on="0"/>
        <pt x="58" y="-387" on="0"/>
        <pt x="47" y="-379" on="1"/>
        <pt x="54" y="-273" on="1"/>
        <pt x="103" y="-288" on="0"/>
        <pt x="131" y="-288" on="1"/>
        <pt x="216" y="-288" on="0"/>
        <pt x="259" y="-254" on="1"/>
        <pt x="346" y="-185" on="0"/>
        <pt x="346" y="-2" on="1"/>
        <pt x="346" y="6" on="0"/>
        <pt x="346" y="14" on="1"/>
        <pt x="446" y="45" on="1"/>
        <pt x="472" y="-77" on="0"/>
      </contour>
    </TTGlyph>
    <TTGlyph name="cent" xMin="96" yMin="-56" xMax="983" yMax="1492">
      <contour>
        <pt x="560" y="306" on="1"/>
        <pt x="590" y="301" on="0"/>
        <pt x="609" y="301" on="1"/>
        <pt x="695" y="301" on="0"/>
        <pt x="815" y="401" on="0"/>
        <pt x="838" y="494" on="1"/>
        <pt x="975" y="494" on="1"/>
        <pt x="975" y="370" on="0"/>
        <pt x="756" y="180" on="0"/>
        <pt x="575" y="180" on="1"/>
        <pt x="560" y="180" on="1"/>
        <pt x="553" y="180" on="0"/>
        <pt x="545" y="181" on="1"/>
        <pt x="516" y="-56" on="1"/>
        <pt x="417" y="-56" on="1"/>
        <pt x="448" y="195" on="1"/>
        <pt x="207" y="251" on="0"/>
        <pt x="125" y="496" on="1"/>
        <pt x="96" y="583" on="0"/>
        <pt x="96" y="690" on="1"/>
        <pt x="96" y="913" on="0"/>
        <pt x="342" y="1224" on="0"/>
        <pt x="575" y="1233" on="1"/>
        <pt x="607" y="1492" on="1"/>
        <pt x="706" y="1492" on="1"/>
        <pt x="673" y="1229" on="1"/>
        <pt x="810" y="1213" on="0"/>
        <pt x="983" y="1061" on="0"/>
        <pt x="983" y="951" on="1"/>
        <pt x="983" y="890" on="0"/>
        <pt x="904" y="807" on="0"/>
        <pt x="843" y="807" on="1"/>
        <pt x="756" y="807" on="0"/>
        <pt x="723" y="888" on="1"/>
        <pt x="713" y="912" on="0"/>
        <pt x="713" y="941" on="1"/>
        <pt x="713" y="1010" on="0"/>
        <pt x="772" y="1049" on="1"/>
        <pt x="728" y="1099" on="0"/>
        <pt x="659" y="1114" on="1"/>
      </contour>
      <contour>
        <pt x="561" y="1115" on="1"/>
        <pt x="336" y="1074" on="0"/>
        <pt x="336" y="708" on="1"/>
        <pt x="336" y="451" on="0"/>
        <pt x="467" y="349" on="1"/>
      </contour>
    </TTGlyph>
    <TTGlyph name="circumflex" xMin="-338" yMin="1167" xMax="338" yMax="1600">
      <contour>
        <pt x="-227" y="1200" on="1"/>
        <pt x="-263" y="1167" on="0"/>
        <pt x="-286" y="1167" on="1"/>
        <pt x="-338" y="1167" on="0"/>
        <pt x="-338" y="1203" on="1"/>
        <pt x="-338" y="1215" on="0"/>
        <pt x="-329" y="1229" on="1"/>
        <pt x="-56" y="1600" on="1"/>
        <pt x="56" y="1600" on="1"/>
        <pt x="329" y="1229" on="1"/>
        <pt x="338" y="1215" on="0"/>
        <pt x="338" y="1207" on="1"/>
        <pt x="338" y="1167" on="0"/>
        <pt x="297" y="1167" on="1"/>
        <pt x="263" y="1167" on="0"/>
        <pt x="227" y="1200" on="1"/>
        <pt x="0" y="1375" on="1"/>
      </contour>
    </TTGlyph>
    <TTGlyph name="circumflex.cap" xMin="-364" yMin="1652" xMax="364" yMax="2000">
      <contour>
        <pt x="364" y="1687" on="1"/>
        <pt x="364" y="1652" on="0"/>
        <pt x="316" y="1652" on="1"/>
        <pt x="290" y="1653" on="0"/>
        <pt x="257" y="1670" on="1"/>
        <pt x="0" y="1801" on="1"/>
        <pt x="-257" y="1670" on="1"/>
        <pt x="-290" y="1653" on="0"/>
        <pt x="-316" y="1652" on="1"/>
        <pt x="-364" y="1652" on="0"/>
        <pt x="-364" y="1687" on="1"/>
        <pt x="-364" y="1703" on="0"/>
        <pt x="-349" y="1719" on="1"/>
        <pt x="-56" y="2000" on="1"/>
        <pt x="56" y="2000" on="1"/>
        <pt x="349" y="1719" on="1"/>
        <pt x="364" y="1703" on="0"/>
      </contour>
    </TTGlyph>
    <TTGlyph name="colon" xMin="192" yMin="-20" xMax="504" yMax="962">
      <component glyphName=".ttfautohint" x="192" y="0" flags="0x0"/>
      <component glyphName="period" x="0" y="0" flags="0x1204"/>
      <component glyphName="period" x="0" y="679" flags="0x1004"/>
    </TTGlyph>
    <TTGlyph name="comma" xMin="71" yMin="-387" xMax="526" yMax="326">
      <contour>
        <pt x="175" y="232" on="0"/>
        <pt x="280" y="326" on="0"/>
        <pt x="332" y="326" on="1"/>
        <pt x="425" y="326" on="0"/>
        <pt x="526" y="213" on="0"/>
        <pt x="526" y="122" on="1"/>
        <pt x="526" y="-64" on="0"/>
        <pt x="296" y="-358" on="0"/>
        <pt x="119" y="-387" on="1"/>
        <pt x="71" y="-318" on="1"/>
        <pt x="158" y="-289" on="0"/>
        <pt x="216" y="-243" on="1"/>
        <pt x="322" y="-158" on="0"/>
        <pt x="322" y="-69" on="1"/>
        <pt x="322" y="-14" on="0"/>
        <pt x="277" y="17" on="1"/>
        <pt x="255" y="33" on="0"/>
        <pt x="217" y="60" on="0"/>
        <pt x="204" y="76" on="1"/>
        <pt x="175" y="108" on="0"/>
      </contour>
    </TTGlyph>
    <TTGlyph name="commaaccent" xMin="243" yMin="-547" xMax="504" yMax="-130">
      <contour>
        <pt x="287" y="-350" on="0"/>
        <pt x="244" y="-285" on="0"/>
        <pt x="244" y="-253" on="1"/>
        <pt x="244" y="-196" on="0"/>
        <pt x="314" y="-130" on="0"/>
        <pt x="428" y="-130" on="0"/>
        <pt x="504" y="-213" on="0"/>
        <pt x="504" y="-272" on="1"/>
        <pt x="504" y="-379" on="0"/>
        <pt x="378" y="-535" on="0"/>
        <pt x="281" y="-547" on="1"/>
        <pt x="243" y="-487" on="1"/>
        <pt x="310" y="-465" on="0"/>
        <pt x="354" y="-379" on="0"/>
      </contour>
    </TTGlyph>
    <TTGlyph name="copyright" xMin="102" yMin="-114" xMax="1791" yMax="1575">
      <contour>
        <pt x="102" y="730" on="1"/>
        <pt x="102" y="1091" on="0"/>
        <pt x="350" y="1334" on="1"/>
        <pt x="507" y="1488" on="0"/>
        <pt x="722" y="1546" on="1"/>
        <pt x="830" y="1575" on="0"/>
        <pt x="946" y="1575" on="1"/>
        <pt x="1176" y="1575" on="0"/>
        <pt x="1372" y="1464" on="1"/>
        <pt x="1668" y="1295" on="0"/>
        <pt x="1760" y="961" on="1"/>
        <pt x="1791" y="851" on="0"/>
        <pt x="1791" y="730" on="1"/>
        <pt x="1791" y="493" on="0"/>
        <pt x="1675" y="296" on="1"/>
        <pt x="1504" y="5" on="0"/>
        <pt x="1170" y="-85" on="1"/>
        <pt x="1062" y="-114" on="0"/>
        <pt x="946" y="-114" on="1"/>
        <pt x="716" y="-114" on="0"/>
        <pt x="331" y="104" on="0"/>
        <pt x="102" y="490" on="0"/>
      </contour>
      <contour>
        <pt x="233" y="702" on="1"/>
        <pt x="233" y="567" on="0"/>
        <pt x="345" y="296" on="0"/>
        <pt x="539" y="101" on="0"/>
        <pt x="799" y="-8" on="0"/>
        <pt x="1044" y="-8" on="0"/>
        <pt x="1226" y="42" on="0"/>
        <pt x="1306" y="89" on="1"/>
        <pt x="1469" y="186" on="0"/>
        <pt x="1660" y="522" on="0"/>
        <pt x="1660" y="730" on="1"/>
        <pt x="1660" y="1058" on="0"/>
        <pt x="1246" y="1469" on="0"/>
        <pt x="946" y="1469" on="1"/>
        <pt x="753" y="1469" on="0"/>
        <pt x="425" y="1277" on="0"/>
        <pt x="233" y="938" on="0"/>
      </contour>
      <contour>
        <pt x="991" y="361" on="1"/>
        <pt x="1173" y="361" on="0"/>
        <pt x="1218" y="513" on="1"/>
        <pt x="1343" y="513" on="1"/>
        <pt x="1343" y="406" on="0"/>
        <pt x="1134" y="244" on="0"/>
        <pt x="779" y="244" on="0"/>
        <pt x="655" y="354" on="1"/>
        <pt x="509" y="483" on="0"/>
        <pt x="509" y="731" on="1"/>
        <pt x="509" y="935" on="0"/>
        <pt x="616" y="1071" on="1"/>
        <pt x="740" y="1230" on="0"/>
        <pt x="967" y="1230" on="1"/>
        <pt x="1126" y="1230" on="0"/>
        <pt x="1349" y="1057" on="0"/>
        <pt x="1349" y="944" on="1"/>
        <pt x="1349" y="883" on="0"/>
        <pt x="1276" y="802" on="0"/>
        <pt x="1221" y="802" on="1"/>
        <pt x="1166" y="802" on="0"/>
        <pt x="1092" y="872" on="0"/>
        <pt x="1092" y="998" on="0"/>
        <pt x="1161" y="1034" on="1"/>
        <pt x="1138" y="1071" on="0"/>
        <pt x="1048" y="1115" on="0"/>
        <pt x="995" y="1115" on="1"/>
        <pt x="813" y="1115" on="0"/>
        <pt x="752" y="914" on="1"/>
        <pt x="731" y="842" on="0"/>
        <pt x="731" y="740" on="1"/>
        <pt x="731" y="548" on="0"/>
        <pt x="879" y="361" on="0"/>
      </contour>
    </TTGlyph>
    <TTGlyph name="currency" xMin="172" yMin="191" xMax="1215" yMax="1244">
      <contour>
        <pt x="911" y="369" on="1"/>
        <pt x="812" y="305" on="0"/>
        <pt x="574" y="305" on="0"/>
        <pt x="479" y="361" on="1"/>
        <pt x="316" y="191" on="1"/>
        <pt x="172" y="334" on="1"/>
        <pt x="340" y="495" on="1"/>
        <pt x="277" y="596" on="0"/>
        <pt x="277" y="717" on="1"/>
        <pt x="277" y="840" on="0"/>
        <pt x="341" y="939" on="1"/>
        <pt x="172" y="1101" on="1"/>
        <pt x="316" y="1244" on="1"/>
        <pt x="479" y="1072" on="1"/>
        <pt x="574" y="1128" on="0"/>
        <pt x="811" y="1128" on="0"/>
        <pt x="910" y="1064" on="1"/>
        <pt x="1072" y="1234" on="1"/>
        <pt x="1215" y="1090" on="1"/>
        <pt x="1044" y="926" on="1"/>
        <pt x="1100" y="831" on="0"/>
        <pt x="1100" y="603" on="0"/>
        <pt x="1044" y="508" on="1"/>
        <pt x="1215" y="345" on="1"/>
        <pt x="1072" y="201" on="1"/>
      </contour>
      <contour>
        <pt x="688" y="440" on="1"/>
        <pt x="801" y="440" on="0"/>
        <pt x="946" y="600" on="0"/>
        <pt x="946" y="833" on="0"/>
        <pt x="801" y="993" on="0"/>
        <pt x="688" y="993" on="1"/>
        <pt x="575" y="993" on="0"/>
        <pt x="432" y="832" on="0"/>
        <pt x="432" y="601" on="0"/>
        <pt x="575" y="440" on="0"/>
      </contour>
    </TTGlyph>
    <TTGlyph name="d" xMin="87" yMin="-20" xMax="1191" yMax="1559">
      <contour>
        <pt x="857" y="158" on="1"/>
        <pt x="738" y="-20" on="0"/>
        <pt x="328" y="-20" on="0"/>
        <pt x="87" y="250" on="0"/>
        <pt x="87" y="478" on="1"/>
        <pt x="87" y="758" on="0"/>
        <pt x="334" y="1034" on="0"/>
        <pt x="549" y="1034" on="1"/>
        <pt x="712" y="1034" on="0"/>
        <pt x="828" y="922" on="1"/>
        <pt x="828" y="1291" on="1"/>
        <pt x="828" y="1362" on="0"/>
        <pt x="799" y="1407" on="0"/>
        <pt x="743" y="1407" on="1"/>
        <pt x="672" y="1407" on="1"/>
        <pt x="672" y="1517" on="1"/>
        <pt x="771" y="1517" on="0"/>
        <pt x="883" y="1546" on="0"/>
        <pt x="931" y="1559" on="0"/>
        <pt x="958" y="1559" on="1"/>
        <pt x="1011" y="1559" on="0"/>
        <pt x="1044" y="1498" on="0"/>
        <pt x="1044" y="1431" on="1"/>
        <pt x="1044" y="266" on="1"/>
        <pt x="1044" y="169" on="0"/>
        <pt x="1052" y="146" on="1"/>
        <pt x="1069" y="102" on="0"/>
        <pt x="1134" y="102" on="1"/>
        <pt x="1167" y="102" on="0"/>
        <pt x="1191" y="113" on="1"/>
        <pt x="1191" y="16" on="1"/>
        <pt x="1143" y="-20" on="0"/>
        <pt x="1061" y="-20" on="1"/>
        <pt x="897" y="-20" on="0"/>
      </contour>
      <contour>
        <pt x="454" y="134" on="1"/>
        <pt x="502" y="100" on="0"/>
        <pt x="570" y="100" on="1"/>
        <pt x="702" y="100" on="0"/>
        <pt x="833" y="321" on="0"/>
        <pt x="833" y="516" on="1"/>
        <pt x="833" y="806" on="0"/>
        <pt x="680" y="888" on="1"/>
        <pt x="631" y="914" on="0"/>
        <pt x="572" y="914" on="1"/>
        <pt x="454" y="914" on="0"/>
        <pt x="320" y="697" on="0"/>
        <pt x="320" y="516" on="1"/>
        <pt x="320" y="227" on="0"/>
      </contour>
    </TTGlyph>
    <TTGlyph name="dagger" xMin="66" yMin="0" xMax="927" yMax="1566">
      <contour>
        <pt x="572" y="1050" on="1"/>
        <pt x="572" y="922" on="0"/>
        <pt x="622" y="843" on="0"/>
        <pt x="641" y="843" on="1"/>
        <pt x="573" y="843" on="0"/>
        <pt x="550" y="346" on="1"/>
        <pt x="544" y="204" on="0"/>
        <pt x="544" y="0" on="1"/>
        <pt x="449" y="0" on="1"/>
        <pt x="449" y="632" on="0"/>
        <pt x="382" y="800" on="1"/>
        <pt x="367" y="838" on="0"/>
        <pt x="351" y="843" on="1"/>
        <pt x="390" y="843" on="0"/>
        <pt x="412" y="934" on="1"/>
        <pt x="422" y="975" on="0"/>
        <pt x="422" y="1050" on="1"/>
        <pt x="422" y="1092" on="0"/>
        <pt x="382" y="1092" on="1"/>
        <pt x="347" y="1092" on="0"/>
        <pt x="313" y="1063" on="1"/>
        <pt x="287" y="1037" on="0"/>
        <pt x="234" y="998" on="0"/>
        <pt x="202" y="998" on="1"/>
        <pt x="143" y="998" on="0"/>
        <pt x="66" y="1075" on="0"/>
        <pt x="66" y="1114" on="1"/>
        <pt x="66" y="1180" on="0"/>
        <pt x="141" y="1258" on="0"/>
        <pt x="231" y="1258" on="0"/>
        <pt x="282" y="1226" on="0"/>
        <pt x="338" y="1176" on="0"/>
        <pt x="376" y="1176" on="1"/>
        <pt x="463" y="1176" on="0"/>
        <pt x="463" y="1246" on="1"/>
        <pt x="463" y="1286" on="0"/>
        <pt x="441" y="1308" on="1"/>
        <pt x="400" y="1349" on="0"/>
        <pt x="367" y="1400" on="0"/>
        <pt x="367" y="1431" on="1"/>
        <pt x="367" y="1487" on="0"/>
        <pt x="443" y="1566" on="0"/>
        <pt x="497" y="1566" on="1"/>
        <pt x="581" y="1566" on="0"/>
        <pt x="616" y="1486" on="1"/>
        <pt x="627" y="1462" on="0"/>
        <pt x="627" y="1438" on="1"/>
        <pt x="627" y="1381" on="0"/>
        <pt x="531" y="1287" on="0"/>
        <pt x="531" y="1209" on="0"/>
        <pt x="579" y="1176" on="0"/>
        <pt x="657" y="1176" on="0"/>
        <pt x="684" y="1201" on="1"/>
        <pt x="746" y="1258" on="0"/>
        <pt x="785" y="1258" on="1"/>
        <pt x="851" y="1258" on="0"/>
        <pt x="927" y="1182" on="0"/>
        <pt x="927" y="1142" on="1"/>
        <pt x="927" y="1073" on="0"/>
        <pt x="849" y="998" on="0"/>
        <pt x="759" y="998" on="0"/>
        <pt x="706" y="1037" on="0"/>
        <pt x="650" y="1092" on="0"/>
        <pt x="572" y="1092" on="0"/>
      </contour>
    </TTGlyph>
    <TTGlyph name="daggerdbl" xMin="66" yMin="-21" xMax="927" yMax="1566">
      <contour>
        <pt x="572" y="495" on="1"/>
        <pt x="572" y="453" on="0"/>
        <pt x="648" y="453" on="0"/>
        <pt x="706" y="508" on="0"/>
        <pt x="759" y="547" on="0"/>
        <pt x="792" y="547" on="1"/>
        <pt x="849" y="547" on="0"/>
        <pt x="927" y="472" on="0"/>
        <pt x="927" y="431" on="1"/>
        <pt x="927" y="363" on="0"/>
        <pt x="851" y="287" on="0"/>
        <pt x="762" y="287" on="0"/>
        <pt x="711" y="319" on="0"/>
        <pt x="657" y="369" on="0"/>
        <pt x="618" y="369" on="1"/>
        <pt x="531" y="369" on="0"/>
        <pt x="531" y="299" on="1"/>
        <pt x="531" y="257" on="0"/>
        <pt x="553" y="236" on="1"/>
        <pt x="593" y="198" on="0"/>
        <pt x="627" y="145" on="0"/>
        <pt x="627" y="114" on="1"/>
        <pt x="627" y="58" on="0"/>
        <pt x="551" y="-21" on="0"/>
        <pt x="497" y="-21" on="1"/>
        <pt x="413" y="-21" on="0"/>
        <pt x="378" y="60" on="1"/>
        <pt x="367" y="83" on="0"/>
        <pt x="367" y="116" on="1"/>
        <pt x="367" y="163" on="0"/>
        <pt x="463" y="259" on="0"/>
        <pt x="463" y="298" on="1"/>
        <pt x="463" y="369" on="0"/>
        <pt x="383" y="369" on="1"/>
        <pt x="338" y="369" on="0"/>
        <pt x="282" y="319" on="0"/>
        <pt x="231" y="287" on="0"/>
        <pt x="200" y="287" on="1"/>
        <pt x="141" y="287" on="0"/>
        <pt x="66" y="365" on="0"/>
        <pt x="66" y="404" on="1"/>
        <pt x="66" y="470" on="0"/>
        <pt x="143" y="547" on="0"/>
        <pt x="234" y="547" on="0"/>
        <pt x="287" y="508" on="0"/>
        <pt x="345" y="453" on="0"/>
        <pt x="382" y="453" on="1"/>
        <pt x="422" y="453" on="0"/>
        <pt x="422" y="495" on="1"/>
        <pt x="422" y="1050" on="1"/>
        <pt x="422" y="1092" on="0"/>
        <pt x="382" y="1092" on="1"/>
        <pt x="347" y="1092" on="0"/>
        <pt x="313" y="1063" on="1"/>
        <pt x="287" y="1037" on="0"/>
        <pt x="234" y="998" on="0"/>
        <pt x="202" y="998" on="1"/>
        <pt x="143" y="998" on="0"/>
        <pt x="66" y="1075" on="0"/>
        <pt x="66" y="1114" on="1"/>
        <pt x="66" y="1180" on="0"/>
        <pt x="141" y="1258" on="0"/>
        <pt x="231" y="1258" on="0"/>
        <pt x="282" y="1226" on="0"/>
        <pt x="338" y="1176" on="0"/>
        <pt x="376" y="1176" on="1"/>
        <pt x="463" y="1176" on="0"/>
        <pt x="463" y="1246" on="1"/>
        <pt x="463" y="1286" on="0"/>
        <pt x="441" y="1308" on="1"/>
        <pt x="400" y="1349" on="0"/>
        <pt x="367" y="1400" on="0"/>
        <pt x="367" y="1431" on="1"/>
        <pt x="367" y="1487" on="0"/>
        <pt x="443" y="1566" on="0"/>
        <pt x="497" y="1566" on="1"/>
        <pt x="581" y="1566" on="0"/>
        <pt x="616" y="1486" on="1"/>
        <pt x="627" y="1462" on="0"/>
        <pt x="627" y="1438" on="1"/>
        <pt x="627" y="1381" on="0"/>
        <pt x="531" y="1287" on="0"/>
        <pt x="531" y="1209" on="0"/>
        <pt x="579" y="1176" on="0"/>
        <pt x="657" y="1176" on="0"/>
        <pt x="684" y="1201" on="1"/>
        <pt x="746" y="1258" on="0"/>
        <pt x="785" y="1258" on="1"/>
        <pt x="851" y="1258" on="0"/>
        <pt x="927" y="1182" on="0"/>
        <pt x="927" y="1142" on="1"/>
        <pt x="927" y="1073" on="0"/>
        <pt x="849" y="998" on="0"/>
        <pt x="759" y="998" on="0"/>
        <pt x="706" y="1037" on="0"/>
        <pt x="650" y="1092" on="0"/>
        <pt x="572" y="1092" on="0"/>
        <pt x="572" y="1050" on="1"/>
      </contour>
    </TTGlyph>
    <TTGlyph name="dcaron" xMin="96" yMin="-20" xMax="1492" yMax="1589">
      <contour>
        <pt x="1242" y="977" on="1"/>
        <pt x="1326" y="1110" on="0"/>
        <pt x="1326" y="1219" on="1"/>
        <pt x="1326" y="1281" on="0"/>
        <pt x="1294" y="1298" on="1"/>
        <pt x="1207" y="1342" on="0"/>
        <pt x="1207" y="1540" on="0"/>
        <pt x="1289" y="1578" on="1"/>
        <pt x="1314" y="1589" on="0"/>
        <pt x="1346" y="1589" on="1"/>
        <pt x="1410" y="1589" on="0"/>
        <pt x="1492" y="1484" on="0"/>
        <pt x="1492" y="1410" on="1"/>
        <pt x="1492" y="1288" on="0"/>
        <pt x="1395" y="1029" on="0"/>
        <pt x="1359" y="975" on="1"/>
      </contour>
      <contour>
        <pt x="866" y="158" on="1"/>
        <pt x="747" y="-20" on="0"/>
        <pt x="337" y="-20" on="0"/>
        <pt x="96" y="250" on="0"/>
        <pt x="96" y="478" on="1"/>
        <pt x="96" y="758" on="0"/>
        <pt x="343" y="1034" on="0"/>
        <pt x="558" y="1034" on="1"/>
        <pt x="721" y="1034" on="0"/>
        <pt x="837" y="922" on="1"/>
        <pt x="837" y="1291" on="1"/>
        <pt x="837" y="1362" on="0"/>
        <pt x="808" y="1407" on="0"/>
        <pt x="752" y="1407" on="1"/>
        <pt x="681" y="1407" on="1"/>
        <pt x="681" y="1517" on="1"/>
        <pt x="780" y="1517" on="0"/>
        <pt x="892" y="1546" on="0"/>
        <pt x="940" y="1559" on="0"/>
        <pt x="967" y="1559" on="1"/>
        <pt x="1020" y="1559" on="0"/>
        <pt x="1053" y="1498" on="0"/>
        <pt x="1053" y="1431" on="1"/>
        <pt x="1053" y="266" on="1"/>
        <pt x="1053" y="169" on="0"/>
        <pt x="1062" y="146" on="1"/>
        <pt x="1078" y="102" on="0"/>
        <pt x="1143" y="102" on="1"/>
        <pt x="1176" y="102" on="0"/>
        <pt x="1200" y="113" on="1"/>
        <pt x="1200" y="16" on="1"/>
        <pt x="1152" y="-20" on="0"/>
        <pt x="1070" y="-20" on="1"/>
        <pt x="906" y="-20" on="0"/>
      </contour>
      <contour>
        <pt x="463" y="134" on="1"/>
        <pt x="511" y="100" on="0"/>
        <pt x="579" y="100" on="1"/>
        <pt x="711" y="100" on="0"/>
        <pt x="842" y="321" on="0"/>
        <pt x="842" y="516" on="1"/>
        <pt x="842" y="806" on="0"/>
        <pt x="688" y="888" on="1"/>
        <pt x="640" y="914" on="0"/>
        <pt x="581" y="914" on="1"/>
        <pt x="463" y="914" on="0"/>
        <pt x="329" y="697" on="0"/>
        <pt x="329" y="516" on="1"/>
        <pt x="329" y="227" on="0"/>
      </contour>
    </TTGlyph>
    <TTGlyph name="dcroat" xMin="96" yMin="-20" xMax="1200" yMax="1559">
      <contour>
        <pt x="866" y="158" on="1"/>
        <pt x="747" y="-20" on="0"/>
        <pt x="337" y="-20" on="0"/>
        <pt x="96" y="250" on="0"/>
        <pt x="96" y="478" on="1"/>
        <pt x="96" y="758" on="0"/>
        <pt x="343" y="1034" on="0"/>
        <pt x="558" y="1034" on="1"/>
        <pt x="721" y="1034" on="0"/>
        <pt x="837" y="922" on="1"/>
        <pt x="837" y="1143" on="1"/>
        <pt x="554" y="1143" on="1"/>
        <pt x="554" y="1263" on="1"/>
        <pt x="837" y="1263" on="1"/>
        <pt x="837" y="1291" on="1"/>
        <pt x="837" y="1362" on="0"/>
        <pt x="808" y="1407" on="0"/>
        <pt x="752" y="1407" on="1"/>
        <pt x="681" y="1407" on="1"/>
        <pt x="681" y="1517" on="1"/>
        <pt x="780" y="1517" on="0"/>
        <pt x="892" y="1546" on="0"/>
        <pt x="940" y="1559" on="0"/>
        <pt x="967" y="1559" on="1"/>
        <pt x="1020" y="1559" on="0"/>
        <pt x="1053" y="1498" on="0"/>
        <pt x="1053" y="1431" on="1"/>
        <pt x="1053" y="1263" on="1"/>
        <pt x="1200" y="1263" on="1"/>
        <pt x="1200" y="1143" on="1"/>
        <pt x="1053" y="1143" on="1"/>
        <pt x="1053" y="266" on="1"/>
        <pt x="1053" y="169" on="0"/>
        <pt x="1062" y="146" on="1"/>
        <pt x="1078" y="102" on="0"/>
        <pt x="1143" y="102" on="1"/>
        <pt x="1176" y="102" on="0"/>
        <pt x="1200" y="113" on="1"/>
        <pt x="1200" y="16" on="1"/>
        <pt x="1152" y="-20" on="0"/>
        <pt x="1070" y="-20" on="1"/>
        <pt x="906" y="-20" on="0"/>
      </contour>
      <contour>
        <pt x="463" y="134" on="1"/>
        <pt x="511" y="100" on="0"/>
        <pt x="579" y="100" on="1"/>
        <pt x="711" y="100" on="0"/>
        <pt x="842" y="321" on="0"/>
        <pt x="842" y="516" on="1"/>
        <pt x="842" y="806" on="0"/>
        <pt x="688" y="888" on="1"/>
        <pt x="640" y="914" on="0"/>
        <pt x="581" y="914" on="1"/>
        <pt x="463" y="914" on="0"/>
        <pt x="329" y="697" on="0"/>
        <pt x="329" y="516" on="1"/>
        <pt x="329" y="227" on="0"/>
      </contour>
    </TTGlyph>
    <TTGlyph name="degree" xMin="236" yMin="903" xMax="853" yMax="1520">
      <contour>
        <pt x="544" y="903" on="1"/>
        <pt x="416" y="903" on="0"/>
        <pt x="236" y="1083" on="0"/>
        <pt x="236" y="1211" on="1"/>
        <pt x="236" y="1340" on="0"/>
        <pt x="416" y="1520" on="0"/>
        <pt x="544" y="1520" on="1"/>
        <pt x="673" y="1520" on="0"/>
        <pt x="853" y="1340" on="0"/>
        <pt x="853" y="1211" on="1"/>
        <pt x="853" y="1083" on="0"/>
        <pt x="673" y="903" on="0"/>
      </contour>
      <contour>
        <pt x="544" y="1041" on="1"/>
        <pt x="612" y="1041" on="0"/>
        <pt x="704" y="1140" on="0"/>
        <pt x="704" y="1211" on="1"/>
        <pt x="704" y="1281" on="0"/>
        <pt x="612" y="1380" on="0"/>
        <pt x="544" y="1380" on="1"/>
        <pt x="476" y="1380" on="0"/>
        <pt x="384" y="1281" on="0"/>
        <pt x="384" y="1211" on="1"/>
        <pt x="384" y="1140" on="0"/>
        <pt x="476" y="1041" on="0"/>
      </contour>
    </TTGlyph>
    <TTGlyph name="dieresis" xMin="-393" yMin="1225" xMax="393" yMax="1526">
      <contour>
        <pt x="240" y="1225" on="1"/>
        <pt x="176" y="1225" on="0"/>
        <pt x="87" y="1311" on="0"/>
        <pt x="87" y="1374" on="1"/>
        <pt x="87" y="1437" on="0"/>
        <pt x="176" y="1526" on="0"/>
        <pt x="240" y="1526" on="1"/>
        <pt x="304" y="1526" on="0"/>
        <pt x="393" y="1437" on="0"/>
        <pt x="393" y="1374" on="1"/>
        <pt x="393" y="1311" on="0"/>
        <pt x="304" y="1225" on="0"/>
      </contour>
      <contour>
        <pt x="-240" y="1225" on="1"/>
        <pt x="-304" y="1225" on="0"/>
        <pt x="-393" y="1311" on="0"/>
        <pt x="-393" y="1374" on="1"/>
        <pt x="-393" y="1437" on="0"/>
        <pt x="-304" y="1526" on="0"/>
        <pt x="-240" y="1526" on="1"/>
        <pt x="-176" y="1526" on="0"/>
        <pt x="-87" y="1437" on="0"/>
        <pt x="-87" y="1374" on="1"/>
        <pt x="-87" y="1311" on="0"/>
        <pt x="-176" y="1225" on="0"/>
      </contour>
    </TTGlyph>
    <TTGlyph name="dieresis.cap" xMin="-393" yMin="1656" xMax="393" yMax="1957">
      <contour>
        <pt x="240" y="1656" on="1"/>
        <pt x="176" y="1656" on="0"/>
        <pt x="87" y="1742" on="0"/>
        <pt x="87" y="1805" on="1"/>
        <pt x="87" y="1868" on="0"/>
        <pt x="176" y="1957" on="0"/>
        <pt x="240" y="1957" on="1"/>
        <pt x="304" y="1957" on="0"/>
        <pt x="393" y="1868" on="0"/>
        <pt x="393" y="1805" on="1"/>
        <pt x="393" y="1742" on="0"/>
        <pt x="304" y="1656" on="0"/>
      </contour>
      <contour>
        <pt x="-240" y="1656" on="1"/>
        <pt x="-304" y="1656" on="0"/>
        <pt x="-393" y="1742" on="0"/>
        <pt x="-393" y="1805" on="1"/>
        <pt x="-393" y="1868" on="0"/>
        <pt x="-304" y="1957" on="0"/>
        <pt x="-240" y="1957" on="1"/>
        <pt x="-176" y="1957" on="0"/>
        <pt x="-87" y="1868" on="0"/>
        <pt x="-87" y="1805" on="1"/>
        <pt x="-87" y="1742" on="0"/>
        <pt x="-176" y="1656" on="0"/>
      </contour>
    </TTGlyph>
    <TTGlyph name="divide" xMin="127" yMin="60" xMax="1228" yMax="1306">
      <contour>
        <pt x="678" y="960" on="1"/>
        <pt x="606" y="960" on="0"/>
        <pt x="505" y="1061" on="0"/>
        <pt x="505" y="1133" on="1"/>
        <pt x="505" y="1205" on="0"/>
        <pt x="606" y="1306" on="0"/>
        <pt x="678" y="1306" on="1"/>
        <pt x="750" y="1306" on="0"/>
        <pt x="851" y="1205" on="0"/>
        <pt x="851" y="1133" on="1"/>
        <pt x="851" y="1061" on="0"/>
        <pt x="750" y="960" on="0"/>
      </contour>
      <contour>
        <pt x="127" y="761" on="1"/>
        <pt x="1228" y="761" on="1"/>
        <pt x="1228" y="598" on="1"/>
        <pt x="127" y="598" on="1"/>
      </contour>
      <contour>
        <pt x="505" y="233" on="1"/>
        <pt x="505" y="305" on="0"/>
        <pt x="606" y="406" on="0"/>
        <pt x="678" y="406" on="1"/>
        <pt x="750" y="406" on="0"/>
        <pt x="851" y="305" on="0"/>
        <pt x="851" y="233" on="1"/>
        <pt x="851" y="161" on="0"/>
        <pt x="750" y="60" on="0"/>
        <pt x="678" y="60" on="1"/>
        <pt x="606" y="60" on="0"/>
        <pt x="505" y="161" on="0"/>
      </contour>
    </TTGlyph>
    <TTGlyph name="dollar" xMin="129" yMin="-356" xMax="1128" yMax="1772">
      <contour>
        <pt x="636" y="-20" on="1"/>
        <pt x="595" y="-19" on="1"/>
        <pt x="559" y="-356" on="1"/>
        <pt x="460" y="-356" on="1"/>
        <pt x="497" y="-9" on="1"/>
        <pt x="330" y="16" on="0"/>
        <pt x="129" y="181" on="0"/>
        <pt x="129" y="392" on="0"/>
        <pt x="220" y="432" on="1"/>
        <pt x="248" y="445" on="0"/>
        <pt x="280" y="445" on="1"/>
        <pt x="344" y="445" on="0"/>
        <pt x="425" y="361" on="0"/>
        <pt x="425" y="231" on="0"/>
        <pt x="366" y="187" on="1"/>
        <pt x="414" y="138" on="0"/>
        <pt x="510" y="114" on="1"/>
        <pt x="563" y="609" on="1"/>
        <pt x="384" y="709" on="0"/>
        <pt x="253" y="840" on="0"/>
        <pt x="186" y="972" on="0"/>
        <pt x="186" y="1058" on="1"/>
        <pt x="186" y="1225" on="0"/>
        <pt x="457" y="1440" on="0"/>
        <pt x="649" y="1440" on="1"/>
        <pt x="652" y="1440" on="1"/>
        <pt x="687" y="1772" on="1"/>
        <pt x="786" y="1772" on="1"/>
        <pt x="750" y="1433" on="1"/>
        <pt x="913" y="1409" on="0"/>
        <pt x="1107" y="1234" on="0"/>
        <pt x="1107" y="1118" on="1"/>
        <pt x="1107" y="1052" on="0"/>
        <pt x="1026" y="963" on="0"/>
        <pt x="964" y="963" on="1"/>
        <pt x="904" y="963" on="0"/>
        <pt x="821" y="1043" on="0"/>
        <pt x="821" y="1180" on="0"/>
        <pt x="889" y="1222" on="1"/>
        <pt x="853" y="1295" on="0"/>
        <pt x="737" y="1314" on="1"/>
        <pt x="686" y="834" on="1"/>
        <pt x="710" y="822" on="1"/>
        <pt x="899" y="716" on="0"/>
        <pt x="1049" y="581" on="0"/>
        <pt x="1128" y="446" on="0"/>
        <pt x="1128" y="359" on="1"/>
        <pt x="1128" y="184" on="0"/>
        <pt x="853" y="-20" on="0"/>
      </contour>
      <contour>
        <pt x="639" y="1319" on="1"/>
        <pt x="485" y="1312" on="0"/>
        <pt x="428" y="1214" on="1"/>
        <pt x="408" y="1179" on="0"/>
        <pt x="408" y="1137" on="1"/>
        <pt x="408" y="1064" on="0"/>
        <pt x="506" y="944" on="0"/>
        <pt x="593" y="888" on="1"/>
      </contour>
      <contour>
        <pt x="608" y="101" on="1"/>
        <pt x="617" y="100" on="0"/>
        <pt x="626" y="100" on="1"/>
        <pt x="646" y="100" on="1"/>
        <pt x="820" y="100" on="0"/>
        <pt x="882" y="204" on="1"/>
        <pt x="905" y="241" on="0"/>
        <pt x="905" y="289" on="1"/>
        <pt x="905" y="372" on="0"/>
        <pt x="779" y="492" on="0"/>
        <pt x="657" y="559" on="1"/>
      </contour>
    </TTGlyph>
    <TTGlyph name="dotaccent" xMin="-164" yMin="1214" xMax="164" yMax="1525">
      <contour>
        <pt x="0" y="1214" on="1"/>
        <pt x="-109" y="1214" on="0"/>
        <pt x="-151" y="1308" on="1"/>
        <pt x="-164" y="1337" on="0"/>
        <pt x="-164" y="1374" on="1"/>
        <pt x="-164" y="1444" on="0"/>
        <pt x="-69" y="1525" on="0"/>
        <pt x="0" y="1525" on="1"/>
        <pt x="69" y="1525" on="0"/>
        <pt x="103" y="1496" on="1"/>
        <pt x="164" y="1444" on="0"/>
        <pt x="164" y="1303" on="0"/>
        <pt x="68" y="1214" on="0"/>
      </contour>
    </TTGlyph>
    <TTGlyph name="dotaccent.cap" xMin="-164" yMin="1674" xMax="164" yMax="1985">
      <contour>
        <pt x="0" y="1674" on="1"/>
        <pt x="-109" y="1674" on="0"/>
        <pt x="-151" y="1768" on="1"/>
        <pt x="-164" y="1797" on="0"/>
        <pt x="-164" y="1870" on="0"/>
        <pt x="-137" y="1927" on="0"/>
        <pt x="-114" y="1946" on="1"/>
        <pt x="-69" y="1985" on="0"/>
        <pt x="0" y="1985" on="1"/>
        <pt x="69" y="1985" on="0"/>
        <pt x="103" y="1956" on="1"/>
        <pt x="164" y="1904" on="0"/>
        <pt x="164" y="1832" on="1"/>
        <pt x="164" y="1763" on="0"/>
        <pt x="116" y="1718" on="1"/>
        <pt x="68" y="1674" on="0"/>
      </contour>
    </TTGlyph>
    <TTGlyph name="dotlessi" xMin="80" yMin="0" xMax="597" yMax="1034">
      <contour>
        <pt x="82" y="110" on="1"/>
        <pt x="175" y="110" on="0"/>
        <pt x="222" y="145" on="0"/>
        <pt x="232" y="185" on="0"/>
        <pt x="232" y="215" on="1"/>
        <pt x="232" y="766" on="1"/>
        <pt x="232" y="838" on="0"/>
        <pt x="207" y="882" on="0"/>
        <pt x="152" y="882" on="1"/>
        <pt x="80" y="882" on="1"/>
        <pt x="80" y="992" on="1"/>
        <pt x="178" y="992" on="0"/>
        <pt x="290" y="1021" on="0"/>
        <pt x="336" y="1034" on="0"/>
        <pt x="363" y="1034" on="1"/>
        <pt x="415" y="1034" on="0"/>
        <pt x="448" y="973" on="0"/>
        <pt x="448" y="906" on="1"/>
        <pt x="448" y="215" on="1"/>
        <pt x="448" y="152" on="0"/>
        <pt x="468" y="136" on="1"/>
        <pt x="502" y="110" on="0"/>
        <pt x="597" y="110" on="1"/>
        <pt x="597" y="0" on="1"/>
        <pt x="82" y="0" on="1"/>
      </contour>
    </TTGlyph>
    <TTGlyph name="dotlessj" xMin="-101" yMin="-510" xMax="469" yMax="1033">
      <contour>
        <pt x="138" y="-235" on="0"/>
        <pt x="157" y="-279" on="0"/>
        <pt x="157" y="-353" on="0"/>
        <pt x="121" y="-387" on="1"/>
        <pt x="147" y="-396" on="0"/>
        <pt x="162" y="-395" on="1"/>
        <pt x="289" y="-386" on="0"/>
        <pt x="289" y="-199" on="1"/>
        <pt x="289" y="-141" on="0"/>
        <pt x="252" y="87" on="0"/>
        <pt x="252" y="166" on="1"/>
        <pt x="252" y="765" on="1"/>
        <pt x="252" y="837" on="0"/>
        <pt x="227" y="881" on="0"/>
        <pt x="172" y="881" on="1"/>
        <pt x="80" y="881" on="1"/>
        <pt x="80" y="991" on="1"/>
        <pt x="178" y="991" on="0"/>
        <pt x="303" y="1020" on="0"/>
        <pt x="356" y="1033" on="0"/>
        <pt x="383" y="1033" on="1"/>
        <pt x="435" y="1033" on="0"/>
        <pt x="468" y="972" on="0"/>
        <pt x="468" y="905" on="1"/>
        <pt x="469" y="10" on="1"/>
        <pt x="469" y="-387" on="0"/>
        <pt x="288" y="-480" on="1"/>
        <pt x="228" y="-510" on="0"/>
        <pt x="162" y="-510" on="1"/>
        <pt x="45" y="-510" on="0"/>
        <pt x="-101" y="-401" on="0"/>
        <pt x="-101" y="-264" on="0"/>
        <pt x="-73" y="-235" on="1"/>
        <pt x="-25" y="-184" on="0"/>
        <pt x="85" y="-184" on="0"/>
      </contour>
    </TTGlyph>
    <TTGlyph name="e" xMin="90" yMin="-20" xMax="1025" yMax="1034">
      <contour>
        <pt x="1023" y="461" on="1"/>
        <pt x="329" y="461" on="1"/>
        <pt x="329" y="289" on="0"/>
        <pt x="492" y="101" on="0"/>
        <pt x="612" y="101" on="1"/>
        <pt x="773" y="101" on="0"/>
        <pt x="843" y="234" on="1"/>
        <pt x="992" y="235" on="1"/>
        <pt x="969" y="128" on="0"/>
        <pt x="752" y="-20" on="0"/>
        <pt x="384" y="-20" on="0"/>
        <pt x="250" y="94" on="1"/>
        <pt x="90" y="231" on="0"/>
        <pt x="90" y="729" on="0"/>
        <pt x="345" y="1034" on="0"/>
        <pt x="583" y="1034" on="1"/>
        <pt x="896" y="1034" on="0"/>
        <pt x="988" y="782" on="1"/>
        <pt x="1025" y="681" on="0"/>
        <pt x="1025" y="501" on="0"/>
      </contour>
      <contour>
        <pt x="792" y="611" on="1"/>
        <pt x="792" y="917" on="0"/>
        <pt x="584" y="917" on="1"/>
        <pt x="467" y="917" on="0"/>
        <pt x="336" y="735" on="0"/>
        <pt x="330" y="574" on="1"/>
        <pt x="791" y="574" on="1"/>
        <pt x="792" y="593" on="0"/>
      </contour>
    </TTGlyph>
    <TTGlyph name="eacute" xMin="106" yMin="-20" xMax="1041" yMax="1690">
      <component glyphName=".ttfautohint" x="106" y="0" flags="0x0"/>
      <component glyphName="e" x="16" y="0" flags="0x1004"/>
      <component glyphName="acute" x="626" y="0" flags="0x1004"/>
    </TTGlyph>
    <TTGlyph name="ebreve" xMin="106" yMin="-20" xMax="1041" yMax="1541">
      <component glyphName=".ttfautohint" x="106" y="0" flags="0x0"/>
      <component glyphName="e" x="16" y="0" flags="0x1004"/>
      <component glyphName="breve" x="603" y="0" flags="0x1004"/>
    </TTGlyph>
    <TTGlyph name="ecaron" xMin="106" yMin="-20" xMax="1041" yMax="1599">
      <component glyphName=".ttfautohint" x="106" y="0" flags="0x0"/>
      <component glyphName="e" x="16" y="0" flags="0x1004"/>
      <component glyphName="caron" x="603" y="0" flags="0x1004"/>
    </TTGlyph>
    <TTGlyph name="ecircumflex" xMin="106" yMin="-20" xMax="1041" yMax="1600">
      <component glyphName=".ttfautohint" x="106" y="0" flags="0x0"/>
      <component glyphName="e" x="16" y="0" flags="0x1004"/>
      <component glyphName="circumflex" x="603" y="0" flags="0x1004"/>
    </TTGlyph>
    <TTGlyph name="edieresis" xMin="106" yMin="-20" xMax="1041" yMax="1526">
      <component glyphName=".ttfautohint" x="106" y="0" flags="0x0"/>
      <component glyphName="e" x="16" y="0" flags="0x1004"/>
      <component glyphName="dieresis" x="603" y="0" flags="0x1004"/>
    </TTGlyph>
    <TTGlyph name="edotaccent" xMin="106" yMin="-20" xMax="1041" yMax="1525">
      <component glyphName=".ttfautohint" x="106" y="0" flags="0x0"/>
      <component glyphName="e" x="16" y="0" flags="0x1004"/>
      <component glyphName="dotaccent" x="603" y="0" flags="0x1004"/>
    </TTGlyph>
    <TTGlyph name="egrave" xMin="106" yMin="-20" xMax="1041" yMax="1690">
      <component glyphName=".ttfautohint" x="106" y="0" flags="0x0"/>
      <component glyphName="e" x="16" y="0" flags="0x1004"/>
      <component glyphName="grave" x="603" y="0" flags="0x1004"/>
    </TTGlyph>
    <TTGlyph name="eight" xMin="122" yMin="-20" xMax="1135" yMax="1520">
      <contour>
        <pt x="409" y="794" on="1"/>
        <pt x="196" y="945" on="0"/>
        <pt x="196" y="1314" on="0"/>
        <pt x="459" y="1520" on="0"/>
        <pt x="818" y="1520" on="0"/>
        <pt x="1063" y="1321" on="0"/>
        <pt x="1063" y="1148" on="1"/>
        <pt x="1063" y="1044" on="0"/>
        <pt x="942" y="845" on="0"/>
        <pt x="842" y="796" on="1"/>
        <pt x="980" y="715" on="0"/>
        <pt x="1087" y="587" on="0"/>
        <pt x="1135" y="468" on="0"/>
        <pt x="1135" y="390" on="1"/>
        <pt x="1135" y="223" on="0"/>
        <pt x="858" y="-20" on="0"/>
        <pt x="393" y="-20" on="0"/>
        <pt x="122" y="196" on="0"/>
        <pt x="122" y="606" on="0"/>
        <pt x="299" y="732" on="1"/>
        <pt x="351" y="769" on="0"/>
      </contour>
      <contour>
        <pt x="733" y="857" on="1"/>
        <pt x="877" y="934" on="0"/>
        <pt x="877" y="1147" on="1"/>
        <pt x="877" y="1327" on="0"/>
        <pt x="743" y="1386" on="1"/>
        <pt x="700" y="1405" on="0"/>
        <pt x="650" y="1405" on="1"/>
        <pt x="550" y="1405" on="0"/>
        <pt x="423" y="1289" on="0"/>
        <pt x="423" y="1135" on="0"/>
        <pt x="475" y="1039" on="0"/>
        <pt x="580" y="941" on="0"/>
      </contour>
      <contour>
        <pt x="517" y="724" on="1"/>
        <pt x="330" y="650" on="0"/>
        <pt x="330" y="383" on="1"/>
        <pt x="330" y="271" on="0"/>
        <pt x="485" y="105" on="0"/>
        <pt x="736" y="105" on="0"/>
        <pt x="891" y="231" on="0"/>
        <pt x="891" y="343" on="1"/>
        <pt x="891" y="497" on="0"/>
        <pt x="652" y="642" on="1"/>
        <pt x="585" y="682" on="0"/>
      </contour>
    </TTGlyph>
    <TTGlyph name="ellipsis" xMin="192" yMin="-20" xMax="1872" yMax="283">
      <contour>
        <pt x="1560" y="130" on="1"/>
        <pt x="1560" y="194" on="0"/>
        <pt x="1652" y="283" on="0"/>
        <pt x="1716" y="283" on="1"/>
        <pt x="1780" y="283" on="0"/>
        <pt x="1872" y="194" on="0"/>
        <pt x="1872" y="130" on="1"/>
        <pt x="1872" y="67" on="0"/>
        <pt x="1781" y="-20" on="0"/>
        <pt x="1716" y="-20" on="1"/>
        <pt x="1651" y="-20" on="0"/>
        <pt x="1560" y="67" on="0"/>
      </contour>
      <contour>
        <pt x="876" y="130" on="1"/>
        <pt x="876" y="194" on="0"/>
        <pt x="968" y="283" on="0"/>
        <pt x="1032" y="283" on="1"/>
        <pt x="1096" y="283" on="0"/>
        <pt x="1188" y="194" on="0"/>
        <pt x="1188" y="130" on="1"/>
        <pt x="1188" y="67" on="0"/>
        <pt x="1097" y="-20" on="0"/>
        <pt x="1032" y="-20" on="1"/>
        <pt x="967" y="-20" on="0"/>
        <pt x="876" y="67" on="0"/>
      </contour>
      <contour>
        <pt x="192" y="130" on="1"/>
        <pt x="192" y="194" on="0"/>
        <pt x="284" y="283" on="0"/>
        <pt x="348" y="283" on="1"/>
        <pt x="412" y="283" on="0"/>
        <pt x="504" y="194" on="0"/>
        <pt x="504" y="130" on="1"/>
        <pt x="504" y="67" on="0"/>
        <pt x="413" y="-20" on="0"/>
        <pt x="348" y="-20" on="1"/>
        <pt x="283" y="-20" on="0"/>
        <pt x="192" y="67" on="0"/>
      </contour>
    </TTGlyph>
    <TTGlyph name="emacron" xMin="106" yMin="-20" xMax="1041" yMax="1403">
      <component glyphName=".ttfautohint" x="106" y="0" flags="0x0"/>
      <component glyphName="e" x="16" y="0" flags="0x1004"/>
      <component glyphName="macron" x="603" y="0" flags="0x1004"/>
    </TTGlyph>
    <TTGlyph name="emdash" xMin="120" yMin="448" xMax="2132" yMax="611">
      <contour>
        <pt x="120" y="611" on="1"/>
        <pt x="2132" y="611" on="1"/>
        <pt x="2132" y="448" on="1"/>
        <pt x="120" y="448" on="1"/>
      </contour>
    </TTGlyph>
    <TTGlyph name="endash" xMin="120" yMin="448" xMax="1392" yMax="611">
      <contour>
        <pt x="120" y="611" on="1"/>
        <pt x="1392" y="611" on="1"/>
        <pt x="1392" y="448" on="1"/>
        <pt x="120" y="448" on="1"/>
      </contour>
    </TTGlyph>
    <TTGlyph name="eng" xMin="78" yMin="-510" xMax="1101" yMax="1033">
      <contour>
        <pt x="799" y="-299" on="1"/>
        <pt x="799" y="-349" on="0"/>
        <pt x="762" y="-386" on="1"/>
        <pt x="788" y="-391" on="0"/>
        <pt x="800" y="-390" on="1"/>
        <pt x="930" y="-381" on="0"/>
        <pt x="930" y="-218" on="1"/>
        <pt x="930" y="-127" on="0"/>
        <pt x="884" y="251" on="0"/>
        <pt x="884" y="344" on="1"/>
        <pt x="884" y="591" on="1"/>
        <pt x="884" y="732" on="0"/>
        <pt x="833" y="834" on="0"/>
        <pt x="752" y="884" on="0"/>
        <pt x="704" y="884" on="1"/>
        <pt x="625" y="884" on="0"/>
        <pt x="483" y="829" on="0"/>
        <pt x="436" y="782" on="1"/>
        <pt x="436" y="215" on="1"/>
        <pt x="436" y="151" on="0"/>
        <pt x="455" y="136" on="1"/>
        <pt x="488" y="110" on="0"/>
        <pt x="584" y="110" on="1"/>
        <pt x="584" y="0" on="1"/>
        <pt x="80" y="0" on="1"/>
        <pt x="80" y="110" on="1"/>
        <pt x="166" y="110" on="0"/>
        <pt x="210" y="145" on="0"/>
        <pt x="220" y="185" on="0"/>
        <pt x="220" y="215" on="1"/>
        <pt x="220" y="760" on="1"/>
        <pt x="220" y="832" on="0"/>
        <pt x="195" y="876" on="0"/>
        <pt x="139" y="876" on="1"/>
        <pt x="78" y="876" on="1"/>
        <pt x="78" y="986" on="1"/>
        <pt x="172" y="986" on="0"/>
        <pt x="279" y="1015" on="0"/>
        <pt x="324" y="1028" on="0"/>
        <pt x="350" y="1028" on="1"/>
        <pt x="403" y="1028" on="0"/>
        <pt x="436" y="967" on="0"/>
        <pt x="436" y="900" on="1"/>
        <pt x="543" y="990" on="0"/>
        <pt x="685" y="1022" on="1"/>
        <pt x="733" y="1033" on="0"/>
        <pt x="778" y="1033" on="1"/>
        <pt x="1100" y="1033" on="0"/>
        <pt x="1100" y="604" on="1"/>
        <pt x="1101" y="10" on="1"/>
        <pt x="1101" y="-510" on="0"/>
        <pt x="776" y="-510" on="1"/>
        <pt x="608" y="-510" on="0"/>
        <pt x="549" y="-400" on="1"/>
        <pt x="530" y="-364" on="0"/>
        <pt x="530" y="-326" on="1"/>
        <pt x="530" y="-258" on="0"/>
        <pt x="607" y="-174" on="0"/>
        <pt x="670" y="-174" on="1"/>
        <pt x="756" y="-174" on="0"/>
        <pt x="789" y="-250" on="1"/>
        <pt x="799" y="-273" on="0"/>
      </contour>
    </TTGlyph>
    <TTGlyph name="eogonek" xMin="100" yMin="-510" xMax="1037" yMax="1034">
      <contour>
        <pt x="678" y="-88" on="1"/>
        <pt x="593" y="-177" on="0"/>
        <pt x="593" y="-356" on="0"/>
        <pt x="702" y="-356" on="1"/>
        <pt x="740" y="-356" on="0"/>
        <pt x="802" y="-284" on="0"/>
        <pt x="802" y="-219" on="1"/>
        <pt x="892" y="-219" on="1"/>
        <pt x="892" y="-226" on="0"/>
        <pt x="892" y="-299" on="0"/>
        <pt x="874" y="-351" on="1"/>
        <pt x="819" y="-510" on="0"/>
        <pt x="642" y="-510" on="1"/>
        <pt x="542" y="-510" on="0"/>
        <pt x="413" y="-397" on="0"/>
        <pt x="413" y="-297" on="1"/>
        <pt x="413" y="-149" on="0"/>
        <pt x="607" y="-20" on="1"/>
        <pt x="599" y="-20" on="1"/>
        <pt x="398" y="-20" on="0"/>
        <pt x="260" y="95" on="1"/>
        <pt x="100" y="228" on="0"/>
        <pt x="100" y="729" on="0"/>
        <pt x="355" y="1034" on="0"/>
        <pt x="594" y="1034" on="1"/>
        <pt x="904" y="1034" on="0"/>
        <pt x="1000" y="770" on="1"/>
        <pt x="1037" y="668" on="0"/>
        <pt x="1037" y="486" on="0"/>
        <pt x="1035" y="446" on="1"/>
        <pt x="339" y="446" on="1"/>
        <pt x="339" y="275" on="0"/>
        <pt x="500" y="101" on="0"/>
        <pt x="623" y="101" on="1"/>
        <pt x="784" y="101" on="0"/>
        <pt x="854" y="234" on="1"/>
        <pt x="1003" y="235" on="1"/>
        <pt x="976" y="114" on="0"/>
        <pt x="827" y="21" on="1"/>
        <pt x="720" y="-44" on="0"/>
      </contour>
      <contour>
        <pt x="805" y="559" on="1"/>
        <pt x="806" y="577" on="0"/>
        <pt x="806" y="610" on="1"/>
        <pt x="806" y="725" on="0"/>
        <pt x="768" y="804" on="1"/>
        <pt x="715" y="917" on="0"/>
        <pt x="478" y="917" on="0"/>
        <pt x="349" y="721" on="0"/>
        <pt x="343" y="559" on="1"/>
      </contour>
    </TTGlyph>
    <TTGlyph name="equal" xMin="127" yMin="374" xMax="1228" yMax="984">
      <contour>
        <pt x="127" y="984" on="1"/>
        <pt x="1228" y="984" on="1"/>
        <pt x="1228" y="821" on="1"/>
        <pt x="127" y="821" on="1"/>
      </contour>
      <contour>
        <pt x="127" y="537" on="1"/>
        <pt x="1228" y="537" on="1"/>
        <pt x="1228" y="374" on="1"/>
        <pt x="127" y="374" on="1"/>
      </contour>
    </TTGlyph>
    <TTGlyph name="eth" xMin="87" yMin="-20" xMax="1051" yMax="1664">
      <contour>
        <pt x="314" y="1625" on="1"/>
        <pt x="438" y="1604" on="0"/>
        <pt x="578" y="1522" on="1"/>
        <pt x="710" y="1664" on="1"/>
        <pt x="797" y="1582" on="1"/>
        <pt x="679" y="1455" on="1"/>
        <pt x="936" y="1250" on="0"/>
        <pt x="1020" y="908" on="1"/>
        <pt x="1051" y="781" on="0"/>
        <pt x="1051" y="543" on="0"/>
        <pt x="1031" y="381" on="0"/>
        <pt x="1008" y="309" on="1"/>
        <pt x="959" y="155" on="0"/>
        <pt x="740" y="-20" on="0"/>
        <pt x="561" y="-20" on="1"/>
        <pt x="342" y="-16" on="0"/>
        <pt x="87" y="259" on="0"/>
        <pt x="87" y="745" on="0"/>
        <pt x="339" y="1034" on="0"/>
        <pt x="578" y="1034" on="1"/>
        <pt x="718" y="1034" on="0"/>
        <pt x="828" y="941" on="1"/>
        <pt x="807" y="1171" on="0"/>
        <pt x="587" y="1357" on="1"/>
        <pt x="437" y="1196" on="1"/>
        <pt x="350" y="1278" on="1"/>
        <pt x="488" y="1426" on="1"/>
        <pt x="370" y="1497" on="0"/>
        <pt x="273" y="1524" on="1"/>
      </contour>
      <contour>
        <pt x="573" y="103" on="1"/>
        <pt x="829" y="103" on="0"/>
        <pt x="829" y="516" on="1"/>
        <pt x="829" y="711" on="0"/>
        <pt x="692" y="919" on="0"/>
        <pt x="450" y="919" on="0"/>
        <pt x="317" y="699" on="0"/>
        <pt x="317" y="516" on="1"/>
        <pt x="317" y="228" on="0"/>
        <pt x="454" y="136" on="1"/>
        <pt x="503" y="103" on="0"/>
      </contour>
    </TTGlyph>
    <TTGlyph name="exclam" xMin="138" yMin="-20" xMax="446" yMax="1520">
      <contour>
        <pt x="249" y="448" on="1"/>
        <pt x="236" y="573" on="0"/>
        <pt x="220" y="699" on="1"/>
        <pt x="162" y="1175" on="0"/>
        <pt x="153" y="1448" on="1"/>
        <pt x="150" y="1520" on="0"/>
        <pt x="294" y="1520" on="1"/>
        <pt x="399" y="1520" on="0"/>
        <pt x="428" y="1488" on="1"/>
        <pt x="441" y="1473" on="0"/>
        <pt x="440" y="1448" on="1"/>
        <pt x="431" y="1168" on="0"/>
        <pt x="360" y="573" on="0"/>
        <pt x="347" y="448" on="1"/>
      </contour>
      <contour>
        <pt x="138" y="134" on="1"/>
        <pt x="138" y="198" on="0"/>
        <pt x="228" y="288" on="0"/>
        <pt x="292" y="288" on="1"/>
        <pt x="356" y="288" on="0"/>
        <pt x="446" y="198" on="0"/>
        <pt x="446" y="134" on="1"/>
        <pt x="446" y="70" on="0"/>
        <pt x="356" y="-20" on="0"/>
        <pt x="292" y="-20" on="1"/>
        <pt x="228" y="-20" on="0"/>
        <pt x="138" y="70" on="0"/>
      </contour>
    </TTGlyph>
    <TTGlyph name="exclamdown" xMin="138" yMin="-120" xMax="446" yMax="1420">
      <component glyphName=".ttfautohint" x="138" y="0" flags="0x0"/>
      <component glyphName="exclam" x="0" y="1400" scalex="1.0" scaley="-0.999938964844" flags="0x1004"/>
    </TTGlyph>
    <TTGlyph name="f" xMin="83" yMin="0" xMax="933" yMax="1620">
      <contour>
        <pt x="106" y="110" on="1"/>
        <pt x="193" y="110" on="0"/>
        <pt x="237" y="145" on="0"/>
        <pt x="246" y="185" on="0"/>
        <pt x="246" y="215" on="1"/>
        <pt x="246" y="830" on="1"/>
        <pt x="246" y="869" on="0"/>
        <pt x="227" y="894" on="0"/>
        <pt x="196" y="894" on="1"/>
        <pt x="83" y="894" on="1"/>
        <pt x="83" y="1014" on="1"/>
        <pt x="246" y="1014" on="1"/>
        <pt x="246" y="1114" on="1"/>
        <pt x="246" y="1347" on="0"/>
        <pt x="469" y="1620" on="0"/>
        <pt x="655" y="1620" on="1"/>
        <pt x="782" y="1620" on="0"/>
        <pt x="933" y="1465" on="0"/>
        <pt x="933" y="1263" on="0"/>
        <pt x="858" y="1229" on="1"/>
        <pt x="833" y="1218" on="0"/>
        <pt x="806" y="1218" on="1"/>
        <pt x="753" y="1218" on="0"/>
        <pt x="674" y="1290" on="0"/>
        <pt x="674" y="1334" on="1"/>
        <pt x="674" y="1418" on="0"/>
        <pt x="748" y="1443" on="1"/>
        <pt x="733" y="1478" on="0"/>
        <pt x="677" y="1512" on="0"/>
        <pt x="632" y="1512" on="0"/>
        <pt x="588" y="1505" on="0"/>
        <pt x="567" y="1492" on="1"/>
        <pt x="464" y="1431" on="0"/>
        <pt x="464" y="1128" on="1"/>
        <pt x="464" y="1014" on="1"/>
        <pt x="766" y="1014" on="1"/>
        <pt x="766" y="894" on="1"/>
        <pt x="464" y="894" on="1"/>
        <pt x="464" y="224" on="1"/>
        <pt x="464" y="148" on="0"/>
        <pt x="533" y="110" on="0"/>
        <pt x="675" y="110" on="1"/>
        <pt x="675" y="0" on="1"/>
        <pt x="106" y="0" on="1"/>
      </contour>
    </TTGlyph>
    <TTGlyph name="ff" xMin="83" yMin="0" xMax="1748" yMax="1620">
      <component glyphName=".ttfautohint" x="83" y="0" flags="0x0"/>
      <component glyphName="f" x="0" y="0" flags="0x1004"/>
      <component glyphName="f" x="815" y="0" flags="0x1004"/>
    </TTGlyph>
    <TTGlyph name="ffi" xMin="83" yMin="0" xMax="2227" yMax="1620">
      <component glyphName=".ttfautohint" x="83" y="0" flags="0x0"/>
      <component glyphName="f" x="0" y="0" flags="0x1004"/>
      <component glyphName="f" x="815" y="0" flags="0x1004"/>
      <component glyphName="i" x="1630" y="0" flags="0x1004"/>
    </TTGlyph>
    <TTGlyph name="ffl" xMin="83" yMin="0" xMax="2218" yMax="1620">
      <contour>
        <pt x="1470" y="1620" on="1"/>
        <pt x="1613" y="1620" on="0"/>
        <pt x="1690" y="1523" on="1"/>
        <pt x="1690" y="1526" on="1"/>
        <pt x="1791" y="1526" on="0"/>
        <pt x="1905" y="1555" on="0"/>
        <pt x="1954" y="1568" on="0"/>
        <pt x="1981" y="1568" on="1"/>
        <pt x="2033" y="1568" on="0"/>
        <pt x="2068" y="1508" on="0"/>
        <pt x="2068" y="1440" on="1"/>
        <pt x="2068" y="217" on="1"/>
        <pt x="2068" y="155" on="0"/>
        <pt x="2121" y="110" on="0"/>
        <pt x="2218" y="110" on="1"/>
        <pt x="2218" y="0" on="1"/>
        <pt x="1700" y="0" on="1"/>
        <pt x="1700" y="110" on="1"/>
        <pt x="1787" y="110" on="0"/>
        <pt x="1852" y="158" on="0"/>
        <pt x="1852" y="217" on="1"/>
        <pt x="1852" y="1300" on="1"/>
        <pt x="1852" y="1372" on="0"/>
        <pt x="1827" y="1416" on="0"/>
        <pt x="1771" y="1416" on="1"/>
        <pt x="1741" y="1416" on="1"/>
        <pt x="1748" y="1388" on="0"/>
        <pt x="1748" y="1358" on="1"/>
        <pt x="1748" y="1297" on="0"/>
        <pt x="1677" y="1218" on="0"/>
        <pt x="1568" y="1218" on="0"/>
        <pt x="1489" y="1290" on="0"/>
        <pt x="1489" y="1334" on="1"/>
        <pt x="1489" y="1418" on="0"/>
        <pt x="1563" y="1443" on="1"/>
        <pt x="1548" y="1478" on="0"/>
        <pt x="1492" y="1512" on="0"/>
        <pt x="1447" y="1512" on="0"/>
        <pt x="1403" y="1505" on="0"/>
        <pt x="1382" y="1492" on="1"/>
        <pt x="1279" y="1431" on="0"/>
        <pt x="1279" y="1128" on="1"/>
        <pt x="1279" y="1014" on="1"/>
        <pt x="1581" y="1014" on="1"/>
        <pt x="1581" y="894" on="1"/>
        <pt x="1279" y="894" on="1"/>
        <pt x="1279" y="224" on="1"/>
        <pt x="1279" y="148" on="0"/>
        <pt x="1348" y="110" on="0"/>
        <pt x="1490" y="110" on="1"/>
        <pt x="1490" y="0" on="1"/>
        <pt x="921" y="0" on="1"/>
        <pt x="921" y="110" on="1"/>
        <pt x="1008" y="110" on="0"/>
        <pt x="1052" y="145" on="0"/>
        <pt x="1061" y="185" on="0"/>
        <pt x="1061" y="215" on="1"/>
        <pt x="1061" y="830" on="1"/>
        <pt x="1061" y="869" on="0"/>
        <pt x="1042" y="894" on="0"/>
        <pt x="1011" y="894" on="1"/>
        <pt x="898" y="894" on="1"/>
        <pt x="898" y="1014" on="1"/>
        <pt x="1061" y="1014" on="1"/>
        <pt x="1061" y="1114" on="1"/>
        <pt x="1061" y="1347" on="0"/>
        <pt x="1284" y="1620" on="0"/>
      </contour>
      <contour>
        <pt x="106" y="110" on="1"/>
        <pt x="193" y="110" on="0"/>
        <pt x="237" y="145" on="0"/>
        <pt x="246" y="185" on="0"/>
        <pt x="246" y="215" on="1"/>
        <pt x="246" y="830" on="1"/>
        <pt x="246" y="869" on="0"/>
        <pt x="227" y="894" on="0"/>
        <pt x="196" y="894" on="1"/>
        <pt x="83" y="894" on="1"/>
        <pt x="83" y="1014" on="1"/>
        <pt x="246" y="1014" on="1"/>
        <pt x="246" y="1114" on="1"/>
        <pt x="246" y="1347" on="0"/>
        <pt x="469" y="1620" on="0"/>
        <pt x="655" y="1620" on="1"/>
        <pt x="782" y="1620" on="0"/>
        <pt x="933" y="1465" on="0"/>
        <pt x="933" y="1263" on="0"/>
        <pt x="858" y="1229" on="1"/>
        <pt x="833" y="1218" on="0"/>
        <pt x="806" y="1218" on="1"/>
        <pt x="753" y="1218" on="0"/>
        <pt x="674" y="1290" on="0"/>
        <pt x="674" y="1334" on="1"/>
        <pt x="674" y="1418" on="0"/>
        <pt x="748" y="1443" on="1"/>
        <pt x="733" y="1478" on="0"/>
        <pt x="677" y="1512" on="0"/>
        <pt x="632" y="1512" on="0"/>
        <pt x="588" y="1505" on="0"/>
        <pt x="567" y="1492" on="1"/>
        <pt x="464" y="1431" on="0"/>
        <pt x="464" y="1128" on="1"/>
        <pt x="464" y="1014" on="1"/>
        <pt x="766" y="1014" on="1"/>
        <pt x="766" y="894" on="1"/>
        <pt x="464" y="894" on="1"/>
        <pt x="464" y="224" on="1"/>
        <pt x="464" y="148" on="0"/>
        <pt x="533" y="110" on="0"/>
        <pt x="675" y="110" on="1"/>
        <pt x="675" y="0" on="1"/>
        <pt x="106" y="0" on="1"/>
      </contour>
    </TTGlyph>
    <TTGlyph name="fi" xMin="83" yMin="0" xMax="1412" yMax="1620">
      <component glyphName=".ttfautohint" x="83" y="0" flags="0x0"/>
      <component glyphName="f" x="0" y="0" flags="0x1004"/>
      <component glyphName="i" x="815" y="0" flags="0x1004"/>
    </TTGlyph>
    <TTGlyph name="five" xMin="130" yMin="-20" xMax="1123" yMax="1500">
      <contour>
        <pt x="338" y="683" on="1"/>
        <pt x="172" y="687" on="1"/>
        <pt x="252" y="1500" on="1"/>
        <pt x="1119" y="1500" on="1"/>
        <pt x="1120" y="1489" on="0"/>
        <pt x="1120" y="1435" on="0"/>
        <pt x="1105" y="1408" on="1"/>
        <pt x="1074" y="1355" on="0"/>
        <pt x="962" y="1300" on="0"/>
        <pt x="862" y="1300" on="1"/>
        <pt x="385" y="1300" on="1"/>
        <pt x="331" y="844" on="1"/>
        <pt x="418" y="944" on="0"/>
        <pt x="564" y="978" on="1"/>
        <pt x="612" y="990" on="0"/>
        <pt x="663" y="990" on="1"/>
        <pt x="887" y="990" on="0"/>
        <pt x="1123" y="708" on="0"/>
        <pt x="1123" y="504" on="1"/>
        <pt x="1123" y="257" on="0"/>
        <pt x="810" y="-20" on="0"/>
        <pt x="391" y="-20" on="0"/>
        <pt x="130" y="176" on="0"/>
        <pt x="130" y="403" on="0"/>
        <pt x="216" y="444" on="1"/>
        <pt x="242" y="457" on="0"/>
        <pt x="272" y="457" on="1"/>
        <pt x="333" y="457" on="0"/>
        <pt x="410" y="377" on="0"/>
        <pt x="410" y="247" on="0"/>
        <pt x="350" y="207" on="1"/>
        <pt x="404" y="96" on="0"/>
        <pt x="570" y="96" on="1"/>
        <pt x="694" y="96" on="0"/>
        <pt x="868" y="295" on="0"/>
        <pt x="868" y="633" on="0"/>
        <pt x="727" y="830" on="0"/>
        <pt x="438" y="830" on="0"/>
      </contour>
    </TTGlyph>
</ttFont>
